<?xml version="1.0" standalone="no"?>
<!DOCTYPE svg PUBLIC "-//W3C//DTD SVG 1.1//EN" "http://www.w3.org/Graphics/SVG/1.1/DTD/svg11.dtd" >
<svg>
<metadata>
Created by FontForge 20090914 at Sat Aug  3 06:11:50 2013
 By www-data
Additional Thai table and glyphs of Krungsri Simple designed by Cadson Demak. Copyright (c) 2011 by Cadson Demak Co., Ltd.. All rights reserved.
</metadata>
<defs>
<font id="KrungsriSimple-Bold" horiz-adv-x="0" >
  <font-face 
    font-family="Krungsri Simple"
    font-weight="700"
    font-stretch="normal"
    units-per-em="1000"
    panose-1="2 0 5 3 0 0 0 2 0 4"
    ascent="800"
    descent="-200"
    x-height="522"
    cap-height="707"
    bbox="-758 -512 3720 1178"
    underline-thickness="20"
    underline-position="-113"
    unicode-range="U+0020-U+FB02"
  />
<missing-glyph horiz-adv-x="350" 
 />
    <glyph glyph-name="uni0E5A" unicode="&#xe2f;&#xe2f;" horiz-adv-x="846" 
d="M507 0l-153.999 -0.000976562v432h-3c-28 -45.333 -71.333 -68 -130 -68c-48.667 0 -88.334 15.667 -119.001 47c-34.667 34.667 -52 83.667 -52 147v82h154v-66c0 -54 23.667 -81 71 -81c20 0 37.333 5.66699 52 17c18 14.667 27 35.334 27 62.001v78h5l149 -53v-597z
M766.001 -0.000976562h-154v650h5l149 -53v-597z" />
    <glyph glyph-name="uni0E4F.liga" unicode="&#xe4f;&#x22;" horiz-adv-x="588" 
d="M528 235c0 -64.667 -23 -120 -69 -166s-101 -69 -165 -69s-119 23 -165 69s-69 101.333 -69 166s23 119.834 69 165.501s101 68.5 165 68.5s119 -22.833 165 -68.5s69 -100.834 69 -165.501zM294 45c52.667 0 97.334 18.5 134.001 55.5s55 81.833 55 134.5
c0 52 -18.333 96.5 -55 133.5s-81.334 55.5 -134.001 55.5s-97.334 -18.5 -134.001 -55.5s-55 -81.5 -55 -133.5c0 -52.667 18.333 -97.5 55 -134.5s81.334 -55.5 134.001 -55.5zM431 235c0 -38 -13.5 -70.5 -40.5 -97.5s-59.167 -40.5 -96.5 -40.5
c-38 0 -70.5 13.5 -97.5 40.5s-40.5 59.167 -40.5 96.5c0 38 13.5 70.5 40.5 97.5s59.167 40.5 96.5 40.5c38 0 70.5 -13.5 97.5 -40.5s40.5 -59.167 40.5 -96.5zM238 509h-64l-32 249h128zM410 509h-64l-32 249h128z" />
    <glyph glyph-name="uni0E24.liga" unicode="&#xe24;&#xe32;" horiz-adv-x="1169" 
d="M1089 -292l-148.001 -87.001h-6v777c0 39.333 -11.5 69.333 -34.5 90s-51.5 31 -85.5 31c-71.333 0 -126.666 -30.667 -165.999 -92c3.33301 -20 5 -38.667 5 -56v-663l-148 -87h-6v747c0 44.667 -13.667 80.334 -41 107.001s-64 40 -110 40
c-33.333 0 -64.333 -7 -93 -21c-26 -13.333 -46 -30.333 -60 -51c24 -20.667 41.333 -42.667 52 -66v-260h100v-4l-35 -113h-219v359c-10 28 -29.333 52.667 -58 74v17c16 54 53 100.333 111 139c61.333 40.667 129.333 61 204 61c104 0 183.667 -31.667 239 -95
c68 63.333 147 95 237 95c80 0 143.667 -22.5 191 -67.5s71 -107.167 71 -186.5v-688z" />
    <glyph glyph-name="uni0E26.liga" unicode="&#xe26;&#xe32;" horiz-adv-x="1164" 
d="M1084 -292l-148.001 -87.002h-6v777c0 39.333 -11.5 69.333 -34.5 90s-51.5 31 -85.5 31c-73.333 0 -128.666 -31 -165.999 -93c2.66699 -15.333 4 -33.666 4 -54.999v-663l-148 -87h-6v747c0 45.333 -12.5 81.166 -37.5 107.499s-60.167 39.5 -105.5 39.5
c-32 0 -63 -7.66699 -93 -23c-26 -13.333 -46 -29.666 -60 -48.999c24 -20.667 41.333 -42.667 52 -66v-377h-209l-35 113v4h90v242c-10 26.667 -29.333 51.334 -58 74.001v17c16.667 54.667 52.667 101 108 139c59.333 40.667 127 61 203 61
c104.667 0 183.667 -31.333 237 -94c67.333 62.667 146 94 236 94c80 0 143.667 -22.5 191 -67.5s71 -107.167 71 -186.5v-688z" />
    <glyph glyph-name="fi" unicode="fi" horiz-adv-x="703" 
d="M257 -215h-1.99902l-150 39v568h-65v130h65v46c0 120.667 55.333 181 166 181c43.333 0 83.666 -4.66699 120.999 -14v-131c-36 9.33301 -60.667 14 -74 14c-40.667 0 -61 -21 -61 -63v-33h135v-130h-135v-607zM613.001 0h-152v522h152v-522zM618.001 586h-162v141h162
v-141z" />
    <glyph glyph-name="fl" unicode="fl" horiz-adv-x="689" 
d="M257 -215h-1.99902l-150 39v568h-65v130h65v46c0 120.667 55.333 181 166 181c43.333 0 83.666 -4.66699 120.999 -14v-131c-36 9.33301 -60.667 14 -74 14c-40.667 0 -61 -21 -61 -63v-33h135v-130h-135v-607zM609.001 0h-152v769h2l150 -39v-730z" />
    <glyph glyph-name=".notdef" horiz-adv-x="350" 
 />
    <glyph glyph-name="space" unicode=" " horiz-adv-x="290" 
 />
    <glyph glyph-name="exclam" unicode="!" horiz-adv-x="311" 
d="M212 230h-76l-40 361l-6 116h171l-6 -116zM255 0h-159v172h159v-172z" />
    <glyph glyph-name="quotedbl" unicode="&#x22;" horiz-adv-x="467" 
d="M164 437h-83l-41 321h165zM386 437h-83l-41 321h165z" />
    <glyph glyph-name="numbersign" unicode="#" horiz-adv-x="717" 
d="M485 0h-123l28 160h-134l-28 -160h-123l29 160h-94v127h117l24 140h-103v127h126l28 153h122l-27 -153h133l27 153h123l-27 -153h94v-127h-116l-25 -140h103v-127h-127zM413 287l25 140h-134l-24 -140h133z" />
    <glyph glyph-name="dollar" unicode="$" horiz-adv-x="691" 
d="M408 -104l-89.001 0.000976562v97c-101.333 9.33301 -187.666 46.333 -258.999 111l96 114c50.667 -44.667 106 -72.334 166 -83.001v157l-16 4c-67.333 16.667 -117.333 38 -150 64c-43.333 34 -65 80.333 -65 139c0 62 23 112.333 69 151
c41.333 34.667 94.333 55 159 61v60h89v-61c74 -8.66699 145 -37.667 213 -87l-86 -117c-46.667 32 -90 52 -130 60v-136c150.667 -36.667 226 -111 226 -223c0 -63.333 -22.667 -114 -68 -152c-39.333 -34 -91 -54.667 -155 -62v-97zM404.999 135.001
c43.333 11.333 65 34 65 68c0 28.667 -21.667 51 -65 67v-135zM321.999 571.001c-48 -6 -72 -25.667 -72 -59c0 -24 24 -43.667 72 -59v118z" />
    <glyph glyph-name="percent" unicode="%" horiz-adv-x="942" 
d="M374 406c-34 -39.333 -78.667 -59 -134 -59s-100 20 -134 60c-30.667 35.333 -46 77.333 -46 126c0 52 15 95.667 45 131c32.667 38.667 77.667 58 135 58s102.333 -19.333 135 -58c30 -35.333 45 -79 45 -131c0 -48.667 -15.333 -91 -46 -127zM240 470
c10.667 0 20.334 5.66797 29.001 17.001s13 26.666 13 45.999c0 21.333 -4.33301 38.333 -13 51s-18.334 19 -29.001 19c-27.333 0 -41 -23.333 -41 -70c0 -20 4.16699 -35.5 12.5 -46.5s17.833 -16.5 28.5 -16.5zM280 -3.99902h-142l520 715h142zM836 44.001
c-34 -39.333 -78.667 -59 -134 -59s-100 20 -134 60c-30.667 35.333 -46 77.333 -46 126c0 52 15 95.667 45 131c32.667 38.667 77.667 58 135 58s102.333 -19.333 135 -58c30 -35.333 45 -79 45 -131c0 -48.667 -15.333 -91 -46 -127zM702 108.001
c10.667 0 20.334 5.66797 29.001 17.001s13 26.666 13 45.999c0 21.333 -4.33301 38.333 -13 51s-18.334 19 -29.001 19c-27.333 0 -41 -23.333 -41 -70c0 -20 4.16699 -35.5 12.5 -46.5s17.833 -16.5 28.5 -16.5z" />
    <glyph glyph-name="ampersand" unicode="&#x26;" horiz-adv-x="773" 
d="M716 77l-112.001 -92.001l-80 79c-65.333 -53.333 -139.333 -80 -222 -80c-74 0 -134 18.333 -180 55c-48 37.333 -72 87 -72 149c0 89.333 51.333 156.333 154 201c-36 46 -54 95.333 -54 148c0 51.333 20.333 95 61 131s93.667 54 159 54c60.667 0 111 -17.333 151 -52
c38 -33.333 57 -74.666 57 -123.999c0 -85.333 -51.667 -148.333 -155 -189l107 -103c28.667 37.333 53.334 79.333 74.001 126l119 -58c-28 -58.667 -61 -111 -99 -157zM293.999 295.999c-53.333 -24 -80 -57.333 -80 -100c0 -26 9.66699 -47.167 29 -63.5
s44.333 -24.5 75 -24.5c38 0 76.333 15.667 115 47zM340.999 435.999c66 23.333 98.999 55.332 98.999 95.999c0 20 -6.66699 36.333 -20 49s-30.666 19 -51.999 19c-22 0 -39.833 -6.66699 -53.5 -20s-20.5 -30.666 -20.5 -51.999c0 -27.333 15.667 -58 47 -92z" />
    <glyph glyph-name="quotesingle" unicode="'" horiz-adv-x="245" 
d="M164 437h-83l-41 321h165z" />
    <glyph glyph-name="parenleft" unicode="(" horiz-adv-x="441" 
d="M354 -237c-88.667 48.667 -159.999 121.999 -213.999 219.999c-53.333 96 -80 196.667 -80 302c0 107.333 25 207.333 75 300c52 96.667 125 172.667 219 228l71 -105c-66.667 -49.333 -118.334 -112.666 -155.001 -189.999c-34 -72.667 -51 -149.334 -51 -230.001
c0 -83.333 17 -160.666 51 -231.999c36 -75.333 87.667 -138 155 -188z" />
    <glyph glyph-name="parenright" unicode=")" horiz-adv-x="441" 
d="M16 -132c67.333 50 119.002 112.668 155.002 188.001c34 71.333 51 148.666 51 231.999c0 80.667 -17 157.334 -51 230.001c-36.667 77.333 -88.334 140.666 -155.001 189.999l71 105c94 -55.333 167 -131.333 219 -228c50 -92.667 75 -192.667 75 -300
c0 -105.333 -26.333 -206 -79 -302c-54.667 -98 -126.334 -171.333 -215.001 -220z" />
    <glyph glyph-name="asterisk" unicode="*" horiz-adv-x="385" 
d="M319 471l-97 76l16 -122h-90l16 122l-97 -76l-47 81l113 47l-113 48l47 81l97 -77l-16 124h90l-16 -124l97 77l46 -81l-112 -48l112 -47z" />
    <glyph glyph-name="plus" unicode="+" horiz-adv-x="585" 
d="M361 91h-137v196h-191v135h191v196h137v-196h191v-135h-191v-196z" />
    <glyph glyph-name="comma" unicode="," horiz-adv-x="275" 
d="M235 19c0 -112 -63 -173.333 -189 -184l-11 70c64.667 5.33301 97 37 97 95h-61v172h164v-153z" />
    <glyph glyph-name="hyphen" unicode="-" horiz-adv-x="315" 
d="M295 316h-275v139h275v-139z" />
    <glyph glyph-name="period" unicode="." horiz-adv-x="239" 
d="M199 0h-159v177h159v-177z" />
    <glyph glyph-name="slash" unicode="/" horiz-adv-x="654" 
d="M162 -133h-142l472 941h142z" />
    <glyph glyph-name="zero" unicode="0" horiz-adv-x="776" 
d="M629 103c-58.667 -78.667 -139 -118 -241 -118c-102.667 0 -183 39.333 -241 118c-51.333 69.333 -77 154 -77 254c0 94 26.667 176 80 246c60 79.333 139.333 119 238 119c99.333 0 179 -39.667 239 -119c52.667 -70 79 -152 79 -246c0 -100 -25.667 -184.667 -77 -254z
M388 131c46 0 84 23.001 114 69.001c27.333 43.333 41 95.666 41 156.999c0 58.667 -13.667 109 -41 151c-29.333 46 -67.333 69 -114 69s-85 -23 -115 -69c-27.333 -42.667 -41 -93 -41 -151c0 -60.667 14 -112.667 42 -156c30 -46.667 68 -70 114 -70z" />
    <glyph glyph-name="one" unicode="1" horiz-adv-x="454" 
d="M324 0h-153v559l-111 -30l-35 125l185 63h114v-717z" />
    <glyph glyph-name="two" unicode="2" horiz-adv-x="642" 
d="M592 0l-533 -0.000976562v117l252 210c39.333 33.333 66.833 62 82.5 86s23.5 49.333 23.5 76c0 28.667 -8.83301 51.334 -26.5 68.001s-41.5 25 -71.5 25c-50 0 -102.333 -34 -157 -102l-112 85c76 104.667 171 157 285 157c72 0 130.333 -20.667 175 -62
s67 -94 67 -158c0 -52.667 -13.667 -100 -41 -142c-25.333 -38 -67 -79.333 -125 -124l-124 -95h305v-141z" />
    <glyph glyph-name="three" unicode="3" horiz-adv-x="674" 
d="M161 226c64.667 -64 125.999 -96 183.999 -96c32 0 57.667 8.16699 77 24.5s29 36.166 29 59.499c0 38.667 -20 64.667 -60 78c-27.333 8.66699 -76.333 13 -147 13v119c64.667 0 110 4.66699 136 14c35.333 12 53 35.667 53 71c0 48 -31.333 72 -94 72
c-53.333 0 -107.666 -30.333 -162.999 -91l-105 95c39.333 46.667 79 80.667 119 102c44.667 23.333 96 35 154 35c66.667 0 123 -18 169 -54c50 -39.333 75 -92.333 75 -159c0 -46 -25 -91.667 -75 -137c22 -9.33301 43 -27 63 -53c23.333 -32 35 -66.333 35 -103
c0 -71.333 -24.5 -127.666 -73.5 -168.999s-113.167 -62 -192.5 -62c-110.667 0 -207.667 45 -291 135z" />
    <glyph glyph-name="four" unicode="4" horiz-adv-x="725" 
d="M563 0h-155v151h-336l-42 92l406 474h127v-439h102v-127h-102v-151zM409 280v215l-180 -215h180z" />
    <glyph glyph-name="five" unicode="5" horiz-adv-x="674" 
d="M582 566l-311.999 -0.000976562l-8 -128c32 13.333 69 20 111 20c69.333 0 125.666 -19 168.999 -57c48 -41.333 72 -99 72 -173c0 -71.333 -25 -129.666 -75 -174.999s-113.333 -68 -190 -68c-105.333 0 -198.333 37.333 -279 112l85 109
c64.667 -53.333 128 -80 190 -80c32 0 58.333 9.83301 79 29.5s31 44.167 31 73.5c0 30 -11.167 55 -33.5 75s-50.833 30 -85.5 30c-34 0 -74.333 -12.333 -121 -37l-99 57l22 353h444v-141z" />
    <glyph glyph-name="six" unicode="6" horiz-adv-x="703" 
d="M538 528c-51.333 35.333 -102.002 53.001 -152.002 53.001c-43.333 0 -78.166 -16.333 -104.499 -49s-41.5 -77 -45.5 -133c42.667 40 95.334 60 158.001 60c66.667 0 122.334 -19.667 167.001 -59c48 -41.333 72 -96 72 -164c0 -74.667 -25.833 -135 -77.5 -181
s-115.834 -69 -192.501 -69c-89.333 0 -159 27 -209 81c-56 60 -84 149 -84 267c0 115.333 26.333 207.666 79 276.999c56 74 134.667 111 236 111c82 0 158.667 -26.333 230 -79zM439.998 149.001c21.333 20.667 32 47.001 32 79.001c0 30 -10.667 55 -32 75
s-49.333 30 -84 30c-33.333 0 -61 -10.333 -83 -31s-33 -45.334 -33 -74.001c0 -31.333 10.833 -57.333 32.5 -78s49.5 -31 83.5 -31c34.667 0 62.667 10 84 30z" />
    <glyph glyph-name="seven" unicode="7" horiz-adv-x="593" 
d="M251 0h-177l289 566h-323v141h513v-101z" />
    <glyph glyph-name="eight" unicode="8" horiz-adv-x="707" 
d="M385 426c48.667 22 73.001 49.999 73.001 83.999c0 22 -9.83301 40.333 -29.5 55s-44.5 22 -74.5 22c-30.667 0 -55.834 -7.33301 -75.501 -22s-29.5 -33 -29.5 -55c0 -35.333 29 -59.666 87 -72.999zM374.001 289.999l-52.001 11c-64.667 -20 -97 -50.667 -97 -92
c0 -26.667 11.833 -47.5 35.5 -62.5s54.834 -22.5 93.501 -22.5s69.667 7.5 93 22.5s35 35.833 35 62.5c0 38 -36 65 -108 81zM96 302.999c20.667 28.667 46.333 51.333 77 68c-22.667 13.333 -41.334 31.666 -56.001 54.999c-18 26.667 -27 55 -27 85
c0 70.667 30 125.334 90 164.001c49.333 31.333 107.333 47 174 47c66 0 123.667 -16 173 -48c60 -38.667 90 -93 90 -163c0 -30 -8.66699 -58.333 -26 -85c-15.333 -23.333 -34.333 -41.666 -57 -54.999c30.667 -16.667 56.334 -39.334 77.001 -68.001s31 -59 31 -91
c0 -78 -33 -137.333 -99 -178c-52.667 -32.667 -115.667 -49 -189 -49c-74 0 -137.333 16.333 -190 49c-66 40.667 -99 100 -99 178c0 32 10.333 62.333 31 91z" />
    <glyph glyph-name="nine" unicode="9" horiz-adv-x="705" 
d="M172 177c54 -34 103 -51.002 147 -51.002c46.667 0 83 16.333 109 49c24.667 30.667 38.667 73.667 42 129c-42.667 -41.333 -94.667 -62 -156 -62c-68.667 0 -125.667 19.667 -171 59c-48.667 42 -73 97.333 -73 166c0 75.333 25.167 136.5 75.5 183.5
s113.833 70.833 190.5 71.5c90.667 0.666992 161.667 -24.666 213 -75.999c57.333 -58 86 -146 86 -264s-24.667 -211.667 -74 -281c-54 -76 -132.333 -114.667 -235 -116c-82 -1.33301 -160.333 24.334 -235 77.001zM347 370.998c33.333 0 61 11 83 33s33 47.333 33 76
c0 32 -11.167 58.167 -33.5 78.5s-50.5 30.5 -84.5 30.5s-61.5 -10.333 -82.5 -31s-31.5 -46.667 -31.5 -78c0 -30.667 10.833 -56.5 32.5 -77.5s49.5 -31.5 83.5 -31.5z" />
    <glyph glyph-name="colon" unicode=":" horiz-adv-x="239" 
d="M199 0h-159v172h159v-172zM199 350h-159v172h159v-172z" />
    <glyph glyph-name="semicolon" unicode=";" horiz-adv-x="275" 
d="M230 350h-159v172h159v-172zM235 19c0 -112 -63 -173.333 -189 -184l-11 70c64.667 5.33301 97 37 97 95h-61v172h164v-153z" />
    <glyph glyph-name="less" unicode="&#x3c;" horiz-adv-x="585" 
d="M547 53l-510 253v101l510 243v-155l-310 -140v-2l310 -145v-155z" />
    <glyph glyph-name="equal" unicode="=" horiz-adv-x="585" 
d="M552 389h-519v141h519v-141zM552 183h-519v136h519v-136z" />
    <glyph glyph-name="greater" unicode="&#x3e;" horiz-adv-x="585" 
d="M547 306l-510 -253v155l310 145v2l-310 140v155l510 -243v-101z" />
    <glyph glyph-name="question" unicode="?" horiz-adv-x="587" 
d="M315 230h-118l-13 177c64.667 4 111.5 13.833 140.5 29.5s43.5 39.167 43.5 70.5c0 22.667 -8.66699 40.5 -26 53.5s-39.333 19.5 -66 19.5c-54.667 0 -105 -23 -151 -69l-95 101c71.333 73.333 157.333 110 258 110c66.667 0 122 -17.333 166 -52
c48.667 -38.667 73 -91 73 -157c0 -56 -18.667 -102.667 -56 -140c-35.333 -34.667 -84 -57.667 -146 -69zM339 0h-159v172h159v-172z" />
    <glyph glyph-name="at" unicode="@" horiz-adv-x="1181" 
d="M558 153c33.333 0 60.667 16.999 82 50.999c20 31.333 30 68.333 30 111c0 22.667 -6.66699 40.5 -20 53.5s-31.666 19.5 -54.999 19.5c-32.667 0 -59.834 -14.167 -81.501 -42.5s-32.5 -63.166 -32.5 -104.499c0 -27.333 7.16699 -48.833 21.5 -64.5
s32.833 -23.5 55.5 -23.5zM941.001 -66.001c-102.667 -72.667 -214 -108.999 -334 -108.999c-146.667 0 -262.334 39.667 -347.001 119c-81.333 75.333 -122 173.333 -122 294c0 137.333 49.667 251 149 341c97.333 88 217 132 359 132c126 0 228 -35.667 306 -107
c72 -66 108 -146.333 108 -241c0 -87.333 -23 -161 -69 -221c-51.333 -66.667 -120 -100 -206 -100c-61.333 0 -101.666 26.667 -120.999 80c-17.333 -24 -40 -43 -68 -57c-25.333 -12.667 -50 -19 -74 -19c-50 0 -90.833 17.167 -122.5 51.5s-47.5 79.833 -47.5 136.5
c0 72 21.5 133.167 64.5 183.5s94.833 75.5 155.5 75.5c59.333 0 103 -24 131 -72l14 53h120l-67 -271c-2.66699 -10.667 -4 -21.334 -4 -32.001c0 -16 6 -29.667 18 -41s28 -17 48 -17c42 0 78.5 24.333 109.5 73s46.5 104.334 46.5 167.001c0 88 -31.667 159.5 -95 214.5
s-147 82.5 -251 82.5c-128 0 -232.667 -41 -314 -123c-78.667 -78.667 -118 -175.334 -118 -290.001c0 -103.333 34.333 -187.333 103 -252c71.333 -66.667 167.333 -100 288 -100c112.667 0 216 32.667 310 98z" />
    <glyph glyph-name="A" unicode="A" horiz-adv-x="822" 
d="M792 0h-164l-72 176h-288l-71 -176h-167l310 718h146zM501 310l-89 218l-89 -218h178z" />
    <glyph glyph-name="B" unicode="B" horiz-adv-x="748" 
d="M561 368c90 -25.333 134.999 -84 134.999 -176c0 -54 -19 -98.333 -57 -133c-43.333 -39.333 -105.666 -59 -186.999 -59h-362v707h326c66 0 120.333 -13.667 163 -41c51.333 -33.333 77 -82 77 -146c0 -34 -9.33301 -65.333 -28 -94s-41 -47.667 -67 -57v-1z
M395.999 425c26.667 0 49 6 67 18c20.667 14 31 33.333 31 58c0 19.333 -7 35.333 -21 48s-34.667 19 -62 19h-166v-143h151zM451.999 139c27.333 0 48.333 8.33398 63 25.001c12 13.333 18 28.666 18 45.999c0 52.667 -40.667 79 -122 79h-166v-150h207z" />
    <glyph glyph-name="C" unicode="C" horiz-adv-x="789" 
d="M725 117c-77.333 -88 -172.998 -132.001 -286.998 -132.001c-110.667 0 -201.334 35.333 -272.001 106s-106 158.334 -106 263.001s35.5 192.167 106.5 262.5s161.167 105.5 270.5 105.5c118 0 217 -41.333 297 -124l-105 -109c-66 58.667 -130 88 -192 88
c-62.667 0 -113.834 -21.167 -153.501 -63.5s-59.5 -95.5 -59.5 -159.5c0 -63.333 20.333 -116.5 61 -159.5s91.334 -64.5 152.001 -64.5c65.333 0 126.666 30.667 183.999 92z" />
    <glyph glyph-name="D" unicode="D" horiz-adv-x="802" 
d="M90 0l0.000976562 707h266c130 0 229.667 -39.333 299 -118c58 -66 87 -146.667 87 -242c0 -90 -28.333 -166.667 -85 -230c-70.667 -78 -173.334 -117 -308.001 -117h-259zM343.001 141c85.333 0 148 23 188 69c31.333 35.333 47 81 47 137c0 63.333 -17 114 -51 152
c-40 44.667 -99 67 -177 67h-105v-425h98z" />
    <glyph glyph-name="E" unicode="E" horiz-adv-x="713" 
d="M633 0h-543v707h539v-141h-384v-139h338v-141h-338v-145h388v-141z" />
    <glyph glyph-name="F" unicode="F" horiz-adv-x="684" 
d="M571 271h-326v-271h-155v707h544v-141h-389v-154h326v-141z" />
    <glyph glyph-name="G" unicode="G" horiz-adv-x="829" 
d="M743 89c-95.333 -69.333 -196.997 -104.001 -304.997 -104.001c-110.667 0 -201.334 35.333 -272.001 106s-106 158.334 -106 263.001s35.5 192.167 106.5 262.5s161.167 105.5 270.5 105.5c106 0 200 -33.333 282 -100l-94 -115c-60.667 46.667 -123.334 70 -188.001 70
c-62.667 0 -113.834 -21.167 -153.501 -63.5s-59.5 -95.5 -59.5 -159.5c0 -63.333 20.5 -117 61.5 -161s91.5 -66 151.5 -66c55.333 0 107 15 155 45v99h-170v141h321v-323z" />
    <glyph glyph-name="H" unicode="H" horiz-adv-x="789" 
d="M699 0h-156v301h-298v-301h-155v707h155v-265h298v265h156v-707z" />
    <glyph glyph-name="I" unicode="I" horiz-adv-x="359" 
d="M259 0h-159v707h159v-707z" />
    <glyph glyph-name="J" unicode="J" horiz-adv-x="592" 
d="M507 231c0 -78 -21.9971 -138.667 -65.9971 -182c-27.333 -27.333 -57.333 -45.333 -90 -54c-22.667 -6.66699 -54.334 -10 -95.001 -10c-90.667 0 -169.334 39 -236.001 117l99 108c48 -52.667 93.667 -79 137 -79c25.333 0 46.666 8.33301 63.999 25
c21.333 20 32 49.333 32 88v463h155v-476z" />
    <glyph glyph-name="K" unicode="K" horiz-adv-x="793" 
d="M743 0h-188l-224 303l-86 -88v-215h-155v707h155v-309l293 309h189l-291 -297z" />
    <glyph glyph-name="L" unicode="L" horiz-adv-x="629" 
d="M599 0h-509v707h155v-566h354v-141z" />
    <glyph glyph-name="M" unicode="M" horiz-adv-x="887" 
d="M807 0h-156l-9 467l-197 -310h-3l-197 310l-9 -467h-156l25 711h153l185 -298l186 298h153z" />
    <glyph glyph-name="N" unicode="N" horiz-adv-x="814" 
d="M724 -4h-133l-346 461v-457h-155v711h145l334 -448v444h155v-711z" />
    <glyph glyph-name="O" unicode="O" horiz-adv-x="875" 
d="M815 354c0 -103.333 -35.3311 -190.332 -105.998 -260.999c-72.667 -72 -163.334 -108 -272.001 -108s-198.667 35.667 -270 107s-107 158.666 -107 261.999c0 104.667 35.5 192.167 106.5 262.5s161.167 105.5 270.5 105.5s199.666 -35.167 270.999 -105.5
s107 -157.833 107 -262.5zM437.002 130.001c60.667 0 111.834 21.667 153.501 65s62.5 96.333 62.5 159c0 64 -20.333 117.167 -61 159.5s-92.334 63.5 -155.001 63.5s-114.167 -21.167 -154.5 -63.5s-60.5 -95.5 -60.5 -159.5c0 -63.333 20.667 -116.5 62 -159.5
s92.333 -64.5 153 -64.5z" />
    <glyph glyph-name="P" unicode="P" horiz-adv-x="711" 
d="M377 354c36 0 64.666 11.333 85.999 34c18.667 20.667 28 45.667 28 75c0 28 -9.66699 51.667 -29 71c-21.333 21.333 -50.666 32 -87.999 32h-129v-212h132zM244.999 0l-155.001 -0.000976562v707h292c76.667 0 138.334 -18.667 185.001 -56
c56 -44.667 84 -105.667 84 -183c0 -67.333 -20.333 -123.666 -61 -168.999c-50.667 -56.667 -122.667 -85 -216 -85h-129v-214z" />
    <glyph glyph-name="Q" unicode="Q" horiz-adv-x="956" 
d="M948 129c-30.667 -45.333 -59.332 -78.667 -85.999 -100c-36.667 -29.333 -77.334 -44 -122.001 -44c-44 0 -83.333 15.667 -118 47c-56.667 -31.333 -119.667 -47 -189 -47c-108.667 0 -198.167 35.667 -268.5 107s-105.5 158.666 -105.5 261.999
c0 104.667 35.167 192.167 105.5 262.5s159.833 105.5 268.5 105.5s198.334 -35.167 269.001 -105.5s106 -157.833 106 -262.5c0 -94 -29.667 -175.333 -89 -244c5.33301 -2 11 -3 17 -3c19.333 0 37.666 7.33301 54.999 22c15.333 12.667 35 35.334 59 68.001z
M407.002 316.999c66.667 0 133.002 -32.333 199.002 -97c27.333 37.333 41 82 41 134c0 64 -19.833 117.167 -59.5 159.5s-90.834 63.5 -153.501 63.5s-113.667 -21.167 -153 -63.5s-59 -95.5 -59 -159.5c0 -36.667 6.33301 -69 19 -97c53.333 40 108.666 60 165.999 60z
M434.004 129.999c29.333 0 56.999 5.66699 82.999 17c-36.667 35.333 -75 53 -115 53c-33.333 0 -63.666 -10.333 -90.999 -31c35.333 -26 76.333 -39 123 -39z" />
    <glyph glyph-name="R" unicode="R" horiz-adv-x="787" 
d="M383 364c94 0 141.001 34.667 141.001 104c0 30 -9.33301 53.333 -28 70c-20.667 18.667 -59.334 28 -116.001 28h-135v-202h138zM717.001 0h-186l-160 228h-126v-228h-155v707h287c204.667 0 307 -77.667 307 -233c0 -108 -51 -181.667 -153 -221z" />
    <glyph glyph-name="S" unicode="S" horiz-adv-x="723" 
d="M571 496c-76 55.333 -146.001 82.999 -210.001 82.999c-64.667 0 -97 -20.667 -97 -62c0 -18.667 14.667 -34.667 44 -48c22.667 -10.667 62.334 -22.667 119.001 -36c68 -16 119.333 -37.667 154 -65c50.667 -39.333 76 -93.333 76 -162c0 -72 -28 -128 -84 -168
c-49.333 -35.333 -111 -53 -185 -53c-58.667 0 -115.667 11 -171 33c-62 24 -114.333 58.667 -157 104l110 112c72 -70 145.667 -105 221 -105c32.667 0 58 7.33301 76 22s27 31.667 27 51c0 29.333 -22.667 53 -68 71c-6.66699 2.66699 -39 11.334 -97 26.001
c-70.667 18 -122.667 39.333 -156 64c-46.667 34.667 -70 81.667 -70 141c0 69.333 27.333 124 82 164c49.333 36 111 54 185 54c110 0 207.667 -35.667 293 -107z" />
    <glyph glyph-name="T" unicode="T" horiz-adv-x="653" 
d="M404 0h-155v565h-219v142h593v-142h-219v-565z" />
    <glyph glyph-name="U" unicode="U" horiz-adv-x="792" 
d="M707 275c0 -103.333 -35.998 -181.333 -107.998 -234c-50.667 -37.333 -118.334 -56 -203.001 -56s-152.334 18.667 -203.001 56c-72 52.667 -108 130.667 -108 234v432h155v-392c0 -123.333 52 -185 156 -185s156 61.667 156 185v392h155v-432z" />
    <glyph glyph-name="V" unicode="V" horiz-adv-x="783" 
d="M462 -4h-141l-291 711h176l186 -491h4l186 491h171z" />
    <glyph glyph-name="W" unicode="W" horiz-adv-x="1035" 
d="M841 -4h-147l-177 299l-176 -299h-147l-169 711h162l110 -501l219 358h3l217 -359l112 502h162z" />
    <glyph glyph-name="X" unicode="X" horiz-adv-x="820" 
d="M760 0h-183l-167 243l-167 -243h-183l255 359l-244 348h182l157 -229l157 229h182l-244 -348z" />
    <glyph glyph-name="Y" unicode="Y" horiz-adv-x="772" 
d="M463 0h-155v276l-273 431h186l168 -291h1l168 291h179l-274 -431v-276z" />
    <glyph glyph-name="Z" unicode="Z" horiz-adv-x="768" 
d="M751 146c-36.667 -55.333 -68.668 -94 -96.001 -116c-37.333 -30 -80.333 -45 -129 -45c-35.333 0 -80.166 8.16699 -134.499 24.5s-93.166 24.5 -116.499 24.5c-50 0 -91.667 -17.333 -125 -52l-101 91l418 492h-378v142h586v-116l-359 -420
c4.66699 0.666992 11.667 1 21 1c25.333 0 56.666 -7 93.999 -21s66.333 -21 87 -21c40 0 82 31.667 126 95z" />
    <glyph glyph-name="bracketleft" unicode="[" horiz-adv-x="391" 
d="M371 -169h-311v911h311v-120h-168v-671h168v-120z" />
    <glyph glyph-name="backslash" unicode="\" horiz-adv-x="654" 
d="M634 -133h-142l-472 941h142z" />
    <glyph glyph-name="bracketright" unicode="]" horiz-adv-x="391" 
d="M331 -169h-311v120h168v671h-168v120h311v-911z" />
    <glyph glyph-name="asciicircum" unicode="^" horiz-adv-x="480" 
d="M464 489h-130l-94 112l-94 -112h-130l165 241h118z" />
    <glyph glyph-name="underscore" unicode="_" horiz-adv-x="600" 
d="M613 -180h-626v100h626v-100z" />
    <glyph glyph-name="grave" unicode="`" horiz-adv-x="316" 
d="M291 577h-98l-168 188h164z" />
    <glyph glyph-name="a" unicode="a" horiz-adv-x="620" 
d="M550 0l-149.999 0.000976562v33h-3c-38.667 -32 -87.667 -48 -147 -48c-56.667 0 -105 15.333 -145 46c-44 33.333 -66 78.333 -66 135s21.333 101.667 64 135c39.333 30 87.666 45 144.999 45s107.333 -15.333 150 -46h3v25c0 55.333 -35.333 83 -106 83
c-59.333 0 -108.333 -14.333 -147 -43l-79 89c67.333 53.333 147 80 239 80c68.667 0 125 -16.667 169 -50c48.667 -36.667 73 -88.334 73 -155.001v-329zM366.001 117.001c21.333 11.333 32 27.667 32 49s-10.5 37.833 -31.5 49.5s-47.167 17.5 -78.5 17.5
c-62.667 0 -94 -22.333 -94 -67c0 -44 31.333 -66 94 -66c31.333 0 57.333 5.66699 78 17z" />
    <glyph glyph-name="b" unicode="b" horiz-adv-x="687" 
d="M359 111c38 0 68.833 13.668 92.5 41.001s35.5 63.666 35.5 108.999c0 44 -11.833 79.5 -35.5 106.5s-54.5 40.5 -92.5 40.5c-36.667 0 -67.667 -13.667 -93 -41s-38 -62.333 -38 -105c0 -44.667 12.667 -81 38 -109s56.333 -42 93 -42zM225 0.000976562h-149.999v769h2
l150 -39v-279h2c42.667 55.333 99.667 83 171 83c66.667 0 123 -24 169 -72c48.667 -51.333 73 -118 73 -200c0 -83.333 -24.333 -151 -73 -203c-46 -49.333 -102.333 -74 -169 -74c-74.667 0 -132.334 28.333 -173.001 85h-2v-70z" />
    <glyph glyph-name="c" unicode="c" horiz-adv-x="579" 
d="M544 80c-63.333 -63.333 -137.001 -94.999 -221.001 -94.999c-83.333 0 -151 27 -203 81c-50 51.333 -75 115.666 -75 192.999c0 78 25 142.667 75 194c52 54 119.667 81 203 81c84.667 0 158.334 -31.333 221.001 -94l-87 -87c-42 36 -84 54 -126 54
c-40 0 -72.333 -13.833 -97 -41.5s-37 -63.167 -37 -106.5c0 -42 12.5 -77 37.5 -105s57.167 -42 96.5 -42c41.333 0 83.333 18.333 126 55z" />
    <glyph glyph-name="d" unicode="d" horiz-adv-x="687" 
d="M328 111c36.667 0 67.667 13.999 93 41.999s38 64.333 38 109c0 42.667 -12.667 77.667 -38 105s-56.333 41 -93 41c-38 0 -68.833 -13.5 -92.5 -40.5s-35.5 -62.5 -35.5 -106.5c0 -45.333 11.833 -81.666 35.5 -108.999s54.5 -41 92.5 -41zM612 -0.000976562h-149.999
v70h-2c-40.667 -56.667 -98.334 -85 -173.001 -85c-66.667 0 -123 24.667 -169 74c-48.667 52 -73 119.667 -73 203c0 82 24.333 148.667 73 200c46 48 102.333 72 169 72c71.333 0 128.333 -27.667 171 -83h2v318h2l150 -39v-730z" />
    <glyph glyph-name="e" unicode="e" horiz-adv-x="611" 
d="M563 83c-65.333 -65.333 -145.333 -98 -240 -98c-85.333 0 -153.333 26 -204 78c-49.333 50 -74 114.667 -74 194c0 80.667 24 147 72 199s111.667 78 191 78c83.333 0 148.333 -26.667 195 -80c44 -50 66.667 -116 68 -198h-379c0 -47.333 15 -85 45 -113
c27.333 -25.333 60.333 -38 99 -38c52 0 97.667 20.667 137 62zM413 351c-16 47.333 -49.998 71 -101.998 71c-22.667 0 -43.334 -6.5 -62.001 -19.5s-32.334 -30.167 -41.001 -51.5h205z" />
    <glyph glyph-name="f" unicode="f" horiz-adv-x="422" 
d="M257 -215h-1.99902l-150 39v568h-65v130h65v46c0 120.667 55.333 181 166 181c43.333 0 83.666 -4.66699 120.999 -14v-131c-36 9.33301 -60.667 14 -74 14c-40.667 0 -61 -21 -61 -63v-33h135v-130h-135v-607z" />
    <glyph glyph-name="g" unicode="g" horiz-adv-x="680" 
d="M417 185c26 25.333 39 56.667 39 94c0 36 -13.167 66.5 -39.5 91.5s-56.5 37.5 -90.5 37.5c-34.667 0 -64.167 -12.667 -88.5 -38s-36.5 -56 -36.5 -92c0 -36.667 12 -67.667 36 -93s53.667 -38 89 -38c34.667 0 65 12.667 91 38zM610 81.001
c0 -78 -26.6699 -141.333 -80.0029 -190c-55.333 -50 -128.666 -75 -219.999 -75c-90 0 -168.667 30.667 -236 92l88 90c46.667 -37.333 95.334 -56 146.001 -56c43.333 0 79.5 13.667 108.5 41s43.5 62.333 43.5 105v18h-2c-40.667 -56.667 -98.334 -85 -173.001 -85
c-65.333 0 -121.666 24.667 -168.999 74s-71 111 -71 185c0 72.667 24.333 133.667 73 183c46.667 47.333 102.334 71 167.001 71c71.333 0 128.333 -27.667 171 -83h2v71h152v-441z" />
    <glyph glyph-name="h" unicode="h" horiz-adv-x="639" 
d="M569 0h-152v284c0 78 -30.667 117 -92 117c-30 0 -53.833 -11 -71.5 -33s-26.5 -51 -26.5 -87v-281h-152v769h2l150 -39v-282h2c35.333 57.333 87.666 86 156.999 86c58.667 0 103.834 -18.333 135.501 -55s47.5 -86 47.5 -148v-331z" />
    <glyph glyph-name="i" unicode="i" horiz-adv-x="321" 
d="M236 0h-152v522h152v-522zM241 586h-162v141h162v-141z" />
    <glyph glyph-name="j" unicode="j" horiz-adv-x="342" 
d="M264 4c0 -66 -13.667 -113.833 -41 -143.5s-70.666 -44.5 -129.999 -44.5c-29.333 0 -57 2 -83 6v126c17.333 -2.66699 30.666 -4 39.999 -4c41.333 0 62 20.667 62 62v516h152v-518zM267 586h-162v141h162v-141z" />
    <glyph glyph-name="k" unicode="k" horiz-adv-x="616" 
d="M586 0h-176l-136 208l-47 -50v-158h-152v769h2l150 -39v-388l166 180h181l-200 -209z" />
    <glyph glyph-name="l" unicode="l" horiz-adv-x="312" 
d="M232 0h-152v769h2l150 -39v-730z" />
    <glyph glyph-name="m" unicode="m" horiz-adv-x="953" 
d="M883 0h-151.999v284c0 78 -28.333 117 -85 117c-60.667 0 -91 -40 -91 -120v-281h-152v293c0 72 -28.333 108 -85 108c-60.667 0 -91 -40 -91 -120v-281h-152v522h151v-74h2c35.333 57.333 85.666 86 150.999 86c72 0 122.333 -28.333 151 -85
c42.667 56.667 101.667 85 177 85c58 0 102.333 -18.667 133 -56c28.667 -35.333 43 -84.333 43 -147v-331z" />
    <glyph glyph-name="n" unicode="n" horiz-adv-x="639" 
d="M569 0h-152.001v284c0 78 -30.667 117 -92 117c-30 0 -53.833 -11 -71.5 -33s-26.5 -51 -26.5 -87v-281h-152v522h151v-74h2c35.333 57.333 88 86 158 86c58.667 0 103.834 -18.333 135.501 -55s47.5 -86 47.5 -148v-331z" />
    <glyph glyph-name="o" unicode="o" horiz-adv-x="657" 
d="M612 259c0 -80 -26.833 -145.667 -80.5 -197s-121.5 -77 -203.5 -77s-149.667 25.667 -203 77s-80 117 -80 197c0 78 26.167 143.333 78.5 196s120.5 79 204.5 79c84.667 0 153.667 -26.667 207 -80c51.333 -52 77 -117 77 -195zM328 117c38.667 0 70.667 13.333 96 40
s38 60.667 38 102c0 40.667 -12.333 74.667 -37 102s-57 41 -97 41c-39.333 0 -71.333 -13.667 -96 -41s-37 -61.333 -37 -102c0 -41.333 12.5 -75.333 37.5 -102s56.833 -40 95.5 -40z" />
    <glyph glyph-name="p" unicode="p" horiz-adv-x="687" 
d="M359 111c38 0 68.833 13.668 92.5 41.001s35.5 63.666 35.5 108.999c0 44 -11.833 79.5 -35.5 106.5s-54.5 40.5 -92.5 40.5c-36.667 0 -67.667 -13.667 -93 -41s-38 -62.333 -38 -105c0 -44.667 12.667 -81 38 -109s56.333 -42 93 -42zM225 -214.999l-149.999 39v698
h152v-71h2c42.667 55.333 99.667 83 171 83c66.667 0 123 -24 169 -72c48.667 -51.333 73 -118 73 -200c0 -83.333 -24.333 -151 -73 -203c-46 -49.333 -102.333 -74 -169 -74c-74.667 0 -132.334 28.333 -173.001 85h-2v-285z" />
    <glyph glyph-name="q" unicode="q" horiz-adv-x="687" 
d="M328 111c36.667 0 67.667 13.999 93 41.999s38 64.333 38 109c0 42.667 -12.667 77.667 -38 105s-56.333 41 -93 41c-38 0 -68.833 -13.5 -92.5 -40.5s-35.5 -62.5 -35.5 -106.5c0 -45.333 11.833 -81.666 35.5 -108.999s54.5 -41 92.5 -41zM612 -215.001h-2.99902
l-147 39v246h-2c-40.667 -56.667 -98.334 -85 -173.001 -85c-66.667 0 -123 24.667 -169 74c-48.667 52 -73 119.667 -73 203c0 82 24.333 148.667 73 200c46 48 102.333 72 169 72c71.333 0 128.333 -27.667 171 -83h2v71h152v-737z" />
    <glyph glyph-name="r" unicode="r" horiz-adv-x="430" 
d="M227 0h-152v522h151v-112h2c36 82.667 98.333 124 187 124v-156c-60.667 0 -107.167 -16 -139.5 -48s-48.5 -77.667 -48.5 -137v-193z" />
    <glyph glyph-name="s" unicode="s" horiz-adv-x="543" 
d="M422 359c-48.667 41.333 -98.334 61.998 -149.001 61.998c-38.667 0 -58 -13 -58 -39c0 -20.667 27.333 -37 82 -49c60.667 -13.333 105.334 -29.666 134.001 -48.999c44 -30 66 -73.333 66 -130c0 -54 -20.667 -96 -62 -126c-38.667 -28.667 -88 -43 -148 -43
c-46 0 -91 10.167 -135 30.5s-79.667 48.833 -107 85.5l89 86c50.667 -56 103 -84 157 -84c16 0 29.833 4.33301 41.5 13s17.5 19.334 17.5 32.001c0 29.333 -31.667 51 -95 65c-56.667 12.667 -98 27 -124 43c-40.667 26.667 -61 64.667 -61 114c0 52.667 21 94 63 124
c38.667 26.667 87.667 40 147 40c83.333 0 156 -27 218 -81z" />
    <glyph glyph-name="t" unicode="t" horiz-adv-x="452" 
d="M397 -1c-36.667 -9.33301 -77 -14 -121 -14c-110.667 0 -166 59.667 -166 179v228h-70v130h73l28 170h121v-170h135v-130h-135v-215c0 -42 20.333 -63 61 -63c13.333 0 38 4.66699 74 14v-129z" />
    <glyph glyph-name="u" unicode="u" horiz-adv-x="639" 
d="M564 0h-150.998v74h-2c-36.667 -59.333 -89.334 -89 -158.001 -89c-58.667 0 -103.834 18.333 -135.501 55s-47.5 86 -47.5 148v334h152v-287c0 -78 31.333 -117 94 -117c64 0 96 41 96 123v281h152v-522z" />
    <glyph glyph-name="v" unicode="v" horiz-adv-x="627" 
d="M381 -4h-138l-218 526h164l125 -338l127 338h161z" />
    <glyph glyph-name="w" unicode="w" horiz-adv-x="883" 
d="M681 -4h-136l-102 309l-105 -309h-136l-172 526h153l93 -302l101 304h130l103 -305l93 303h150z" />
    <glyph glyph-name="x" unicode="x" horiz-adv-x="650" 
d="M600 0h-165l-110 160l-113 -160h-162l189 266l-181 256h165l104 -150l104 150h161l-181 -255z" />
    <glyph glyph-name="y" unicode="y" horiz-adv-x="661" 
d="M568 90c0 -78.667 -23.667 -143 -71 -193c-50 -54 -118.667 -81 -206 -81c-86.667 0 -160.667 30.667 -222 92l88 90c42.667 -36.667 84.667 -55 126 -55c39.333 0 71.5 14 96.5 42s37.5 63 37.5 105v15h-2c-36 -56 -87.333 -84 -154 -84c-58 0 -103 18.667 -135 56
c-30 35.333 -45 84.333 -45 147v298h152v-251c0 -78 29.667 -117 89 -117c30 0 53.167 10.5 69.5 31.5s24.5 49.833 24.5 86.5v250h152v-432z" />
    <glyph glyph-name="z" unicode="z" horiz-adv-x="615" 
d="M602 112c-29.333 -44 -53.999 -74.333 -73.999 -91c-29.333 -24 -64.333 -36 -105 -36c-28 0 -62.833 5.5 -104.5 16.5s-70.834 16.5 -87.501 16.5c-38 0 -72 -11.333 -102 -34l-85 70l304 347h-267v121h467v-97l-269 -295c1.33301 0 3.33301 0.333008 6 1h5
c16 0 37.667 -4.66699 65 -14s48.333 -14 63 -14c30 0 61.333 23.333 94 70z" />
    <glyph glyph-name="braceleft" unicode="{" horiz-adv-x="432" 
d="M396 -177c-90 6 -154.333 26.6689 -193 62.002c-33.333 31.333 -50 76.666 -50 135.999v104c0 38.667 -9.16699 66.167 -27.5 82.5s-47.833 24.5 -88.5 24.5h-17v103h17c40.667 0 70.167 8.33301 88.5 25s27.5 44 27.5 82v114c0 59.333 16.667 104.666 50 135.999
c38.667 35.333 103 56 193 62l16 -92c-82.667 -13.333 -124 -56.333 -124 -129v-111c0 -72 -36 -118 -108 -138c72 -20.667 108 -66.667 108 -138v-102c0 -72.667 41.333 -115.667 124 -129z" />
    <glyph glyph-name="bar" unicode="|" horiz-adv-x="155" 
d="M135 -184h-115v1008h115v-1008z" />
    <glyph glyph-name="braceright" unicode="}" horiz-adv-x="432" 
d="M279 21c0 -59.333 -16.667 -104.668 -50 -136.001c-38.667 -35.333 -103 -56 -193 -62l-16 92c82.667 13.333 124 56.333 124 129v102c0 71.333 36 117.333 108 138c-72 20 -108 66 -108 138v111c0 72.667 -41.333 115.667 -124 129l16 92c90 -6 154.333 -26.667 193 -62
c33.333 -31.333 50 -76.666 50 -135.999v-114c0 -38 9.16699 -65.333 27.5 -82s47.833 -25 88.5 -25h17v-103h-17c-40.667 0 -70.167 -8.16699 -88.5 -24.5s-27.5 -43.833 -27.5 -82.5v-104z" />
    <glyph glyph-name="asciitilde" unicode="~" horiz-adv-x="419" 
d="M399 451c-20.667 -93.333 -59.334 -140 -116.001 -140c-20.667 0 -45.5 7 -74.5 21s-48.5 21 -58.5 21c-22 0 -39.667 -16.667 -53 -50l-77 22c21.333 92.667 60.333 139 117 139c20.667 0 45.834 -6.83301 75.501 -20.5s48.5 -20.5 56.5 -20.5c22 0 39.667 16.333 53 49
z" />
    <glyph glyph-name="uni007F" horiz-adv-x="500" 
 />
    <glyph glyph-name="nonbreakingspace" unicode="&#xa0;" horiz-adv-x="258" 
 />
    <glyph glyph-name="exclamdown" unicode="&#xa1;" horiz-adv-x="301" 
d="M211 -180h-171l6 116l40 356h76l43 -356zM205 350h-159v172h159v-172z" />
    <glyph glyph-name="cent" unicode="&#xa2;" horiz-adv-x="583" 
d="M367 -105h-82.999v92c-72.667 8.66699 -130.667 38.334 -174 89.001s-65 111.667 -65 183c0 70.667 21.667 131.667 65 183s101.333 81.333 174 90v98h83v-99c68 -8.66699 128.333 -39 181 -91l-87 -87c-34 29.333 -66.333 46.333 -97 51v-289
c31.333 6 63.666 23.333 96.999 52l87 -87c-52.667 -52.667 -113 -83.334 -181 -92.001v-93zM287.001 400c-60 -20.667 -89.999 -67.6689 -89.999 -141.002c0 -33.333 8.16699 -62.666 24.5 -87.999s38.166 -42.666 65.499 -51.999v281z" />
    <glyph glyph-name="sterling" unicode="&#xa3;" horiz-adv-x="525" 
d="M492 0h-469.999l51 294h-53v139h78l19 107c21.333 120.667 92.333 181 213 181c37.333 0 78.666 -6.66699 123.999 -20l-25 -134c-36.667 10.667 -65.667 16 -87 16c-44.667 0 -70.667 -22.667 -78 -68l-13 -82h120v-139h-142l-23 -153h286v-141z" />
    <glyph glyph-name="currency" unicode="&#xa4;" horiz-adv-x="660" 
 />
    <glyph glyph-name="yen" unicode="&#xa5;" horiz-adv-x="792" 
d="M634 122h-159v-122h-159v122h-157v100h158v58h-158v101h93l-207 326h186l168 -291h1l168 291h179l-209 -326h96v-101h-160v-58h160v-100z" />
    <glyph glyph-name="brokenbar" unicode="&#xa6;" horiz-adv-x="155" 
d="M135 390h-115v434h115v-434zM135 -184h-115v434h115v-434z" />
    <glyph glyph-name="section" unicode="&#xa7;" horiz-adv-x="535" 
d="M337 292c15.333 10.667 23 24.334 23 41.001c0 16 -7.83301 29.5 -23.5 40.5s-34.5 16.5 -56.5 16.5c-22.667 0 -41.667 -5.33301 -57 -16s-23 -24.334 -23 -41.001c0 -16 7.83301 -29.5 23.5 -40.5s34.5 -16.5 56.5 -16.5c22.667 0 41.667 5.33301 57 16zM432 214
c42 -27.333 63.0029 -63.667 63.0029 -109c0 -53.333 -21.333 -95.666 -64 -126.999c-38.667 -28 -88.334 -42 -149.001 -42c-46 0 -91 10.167 -135 30.5s-79.667 48.833 -107 85.5l89 86c50.667 -56 103 -84 157 -84c16 0 29.833 4.33301 41.5 13s17.5 19.334 17.5 32.001
c0 24.667 -24.333 45 -73 61c-78.667 26 -124 42.667 -136 50c-48.667 27.333 -73 66.666 -73 117.999c0 50 21 89.667 63 119v2c-42 27.333 -63 63.666 -63 108.999c0 52.667 21.333 94 64 124c39.333 26.667 88.666 40 147.999 40c83.333 0 156 -27 218 -81l-76 -94
c-48.667 41.333 -98.334 62 -149.001 62c-38.667 0 -58 -13 -58 -39c0 -24.667 24.667 -45.667 74 -63c79.333 -28 125 -45.333 137 -52c49.333 -28.667 74 -68.667 74 -120c0 -50 -21 -89.667 -63 -119v-2z" />
    <glyph glyph-name="dieresis" unicode="&#xa8;" horiz-adv-x="399" 
d="M174 593h-149v172h149v-172zM374 593h-149v172h149v-172z" />
    <glyph glyph-name="copyright" unicode="&#xa9;" horiz-adv-x="847" 
d="M684 93c-72 -72 -158.667 -107.999 -260 -107.999s-188.166 36.167 -260.499 108.5s-108.5 159.166 -108.5 260.499s36.167 188 108.5 260s159.166 108 260.499 108s188 -36 260 -108s108 -158.667 108 -260s-36 -188.333 -108 -261zM645 132.001
c61.333 61.333 92 135.333 92 222c0 86 -30.667 159.667 -92 221s-135 92 -221 92c-86.667 0 -160.5 -30.667 -221.5 -92s-91.5 -135 -91.5 -221c0 -86.667 30.5 -160.5 91.5 -221.5s134.833 -91.5 221.5 -91.5c86 0 159.667 30.333 221 91zM585 231.001
c-42.667 -41.333 -93.666 -62 -152.999 -62c-58.667 0 -106.334 19 -143.001 57c-35.333 36 -53 81 -53 135s18 99.5 54 136.5s83.333 55.5 142 55.5s109.667 -21 153 -63l-56 -63c-29.333 25.333 -60 38 -92 38c-27.333 0 -50 -10 -68 -30s-27 -44.667 -27 -74
c0 -30 8.83301 -54.833 26.5 -74.5s40.5 -29.5 68.5 -29.5c31.333 0 62 12.333 92 37z" />
    <glyph glyph-name="ordfeminine" unicode="&#xaa;" horiz-adv-x="368" 
d="M331 601l-83.998 -0.000976562v17c-22.667 -16 -49.667 -24 -81 -24c-42.667 0 -77.334 9.33301 -104.001 28s-40 43 -40 73c0 32.667 14.333 58.334 43 77.001c25.333 17.333 56.666 26 93.999 26c31.333 0 60 -7.66699 86 -23v4c0 40 -21.667 60 -65 60
c-25.333 0 -53.333 -12.333 -84 -37l-50 49c40 38.667 88.333 58 145 58c38.667 0 71 -10.333 97 -31c28.667 -22 43 -52.333 43 -91v-186zM289.002 499.999h-205v77h205v-77zM222.002 667.999c14 7.33301 21.001 16.667 21.001 28c0 26.667 -22.333 40 -67 40
c-16.667 0 -30.667 -4.16699 -42 -12.5s-17 -17.833 -17 -28.5s5.33301 -19.667 16 -27s24 -11 40 -11c19.333 0 35.666 3.66699 48.999 11z" />
    <glyph glyph-name="guillemotleft" unicode="&#xab;" horiz-adv-x="599" 
d="M589 78h-153l-173 209l173 209h153l-141 -209zM335 78h-152l-173 209l173 209h152l-141 -209z" />
    <glyph glyph-name="logicalnot" unicode="&#xac;" horiz-adv-x="554" 
d="M536 170h-137v196h-382v135h519v-331z" />
    <glyph glyph-name="uni00AD" unicode="&#xad;" horiz-adv-x="315" 
d="M295 316h-275v139h275v-139z" />
    <glyph glyph-name="registered" unicode="&#xae;" horiz-adv-x="514" 
d="M257 339c53.333 0 98.833 19 136.5 57s56.5 83.333 56.5 136s-18.833 97.834 -56.5 135.501s-83.167 56.5 -136.5 56.5s-98.833 -18.833 -136.5 -56.5s-56.5 -82.834 -56.5 -135.501s19 -98 57 -136s83.333 -57 136 -57zM494 533
c0 -65.333 -23.167 -121.166 -69.5 -167.499s-102.166 -69.5 -167.499 -69.5s-121.166 23.167 -167.499 69.5s-69.5 102.166 -69.5 167.499s23.167 121.166 69.5 167.499s102.166 69.5 167.499 69.5s121.166 -23.167 167.499 -69.5s69.5 -102.166 69.5 -167.499zM392 413
h-70l-63 86h-40v-86h-59v254h113c65.333 0 98 -27.333 98 -82c0 -34 -17 -59 -51 -75zM270 555c28 0 42 9.66699 42 29c0 20 -13.667 30 -41 30h-52v-59h51z" />
    <glyph glyph-name="macron" unicode="&#xaf;" horiz-adv-x="385" 
d="M25 601v121h335v-121h-335z" />
    <glyph glyph-name="degree" unicode="&#xb0;" horiz-adv-x="346" 
d="M209 578c10 10 15 21.6689 15 35.002s-5 24.666 -15 33.999s-22 14 -36 14s-26.167 -4.83301 -36.5 -14.5s-15.5 -20.834 -15.5 -33.501c0 -13.333 5.16699 -24.833 15.5 -34.5s22.5 -14.5 36.5 -14.5s26 4.66699 36 14zM326 612.002
c0 -42.667 -14.833 -78.834 -44.5 -108.501s-65.834 -44.5 -108.501 -44.5s-78.834 14.833 -108.501 44.5s-44.5 65.834 -44.5 108.501s14.833 78.834 44.5 108.501s65.834 44.5 108.501 44.5s78.834 -14.833 108.501 -44.5s44.5 -65.834 44.5 -108.501z" />
    <glyph glyph-name="plusminus" unicode="&#xb1;" horiz-adv-x="585" 
d="M552 64h-519v118h519v-118zM552 349h-191v-141h-137v141h-191v130h191v144h137v-144h191v-130z" />
    <glyph glyph-name="twosuperior" unicode="&#xb2;" horiz-adv-x="385" 
d="M355 513h-326v66l150 122c40 32.667 60 59.667 60 81c0 24 -19 36 -57 36c-29.333 0 -58 -17 -86 -51l-74 55c44 58.667 103.667 88 179 88c42.667 0 78.5 -11.5 107.5 -34.5s43.5 -53.833 43.5 -92.5c0 -27.333 -10.833 -53.833 -32.5 -79.5s-62.5 -59.5 -122.5 -101.5
h158v-89z" />
    <glyph glyph-name="threesuperior" unicode="&#xb3;" horiz-adv-x="398" 
d="M135 680l0.000976562 67.001h27c53.333 0 80 13.667 80 41c0 23.333 -13.667 35 -41 35c-31.333 0 -63.333 -16.667 -96 -50l-67 60c49.333 51.333 103.666 77 162.999 77c42.667 0 78.334 -10.667 107.001 -32c29.333 -23.333 44 -53.333 44 -90
c0 -16.667 -4.66699 -31.667 -14 -45s-21 -22.333 -35 -27c40 -14.667 60 -42.334 60 -83.001c0 -38 -16.5 -68.833 -49.5 -92.5s-71.5 -35.5 -115.5 -35.5c-64.667 0 -122.334 26.333 -173.001 79l68 64c40 -36.667 75.333 -55 106 -55c34 0 51 13.333 51 40
c0 31.333 -28.333 47 -85 47h-30z" />
    <glyph glyph-name="acute" unicode="&#xb4;" horiz-adv-x="316" 
d="M123 577h-98l102 188h164z" />
    <glyph glyph-name="mu" unicode="&#xb5;" horiz-adv-x="639" 
d="M564 0l-150.999 -0.000976562v74h-2c-34.667 -55.333 -77.334 -83 -128.001 -83c-20.667 0 -43 5 -67 15l3 -174h-149v690h152v-287c0 -78 30.667 -117 92 -117c30 0 53.833 11.333 71.5 34s26.5 52.334 26.5 89.001v281h152v-522z" />
    <glyph glyph-name="paragraph" unicode="&#xb6;" horiz-adv-x="642" 
d="M552 -64l-113 0.000976562v651h-43v-651h-121v277c-67.333 3.33301 -123.333 28.166 -168 74.499s-67 103.833 -67 172.5c0 69.333 23 127.833 69 175.5s106 71.5 180 71.5h263v-771z" />
    <glyph glyph-name="periodcentered" unicode="&#xb7;" horiz-adv-x="239" 
d="M40 267v177h159v-177h-159z" />
    <glyph glyph-name="cedilla" unicode="&#xb8;" horiz-adv-x="235" 
d="M25 -178c41.333 0 62 12 62 36c0 23.333 -20.667 35 -62 35v77c55.333 0 100 -10.167 134 -30.5s51 -47.5 51 -81.5c0 -34.667 -17.5 -62.167 -52.5 -82.5s-79.167 -30.5 -132.5 -30.5v77z" />
    <glyph glyph-name="onesuperior" unicode="&#xb9;" horiz-adv-x="255" 
d="M200 513h-112v288l-58 -15l-25 80l122 40h73v-393z" />
    <glyph glyph-name="ordmasculine" unicode="&#xba;" horiz-adv-x="398" 
d="M373 750c0 -44.667 -16.167 -81.5 -48.5 -110.5s-73.5 -43.5 -123.5 -43.5c-52 0 -94.333 14.333 -127 43s-49 65.667 -49 111c0 44.667 16 82.167 48 112.5s74.667 45.5 128 45.5c52 0 93.667 -15.167 125 -45.5s47 -67.833 47 -112.5zM201 661
c23.333 0 42.167 8.66699 56.5 26s21.5 38.333 21.5 63c0 26.667 -7 48.667 -21 66s-33 26 -57 26c-26 0 -45.833 -8.5 -59.5 -25.5s-20.5 -39.167 -20.5 -66.5c0 -26 7.16699 -47.333 21.5 -64s33.833 -25 58.5 -25zM303.001 500h-205v77h205v-77z" />
    <glyph glyph-name="guillemotright" unicode="&#xbb;" horiz-adv-x="599" 
d="M163 78h-153l141 209l-141 209h153l173 -209zM416 78h-152l141 209l-141 209h152l173 -209z" />
    <glyph glyph-name="onequarter" unicode="&#xbc;" horiz-adv-x="743" 
d="M200 317h-112v288l-58 -15l-25 80l122 40h73v-393zM146 -8h-96l472 722h96zM658 0h-110v79h-179l-21 60l218 254h92v-231h55v-83h-55v-79zM548 163v72l-65 -72h65z" />
    <glyph glyph-name="onehalf" unicode="&#xbd;" horiz-adv-x="773" 
d="M146 -8h-96l472 722h96zM200 317h-112v288l-58 -15l-25 80l122 40h73v-393zM743 0h-326v66l150 122c40 32.667 60 59.667 60 81c0 24 -19 36 -57 36c-29.333 0 -58 -17 -86 -51l-74 55c44 58.667 103.667 88 179 88c42.667 0 78.5 -11.5 107.5 -34.5
s43.5 -53.833 43.5 -92.5c0 -27.333 -10.833 -53.833 -32.5 -79.5s-62.5 -59.5 -122.5 -101.5h158v-89z" />
    <glyph glyph-name="threequarters" unicode="&#xbe;" horiz-adv-x="873" 
d="M276 -8h-96l472 722h96zM788 0h-110v79h-179l-21 60l218 254h92v-231h55v-83h-55v-79zM678 163v72l-65 -72h65zM132 484l0.000976562 67.001h27c53.333 0 80 13.667 80 41c0 23.333 -13.667 35 -41 35c-31.333 0 -63.333 -16.667 -96 -50l-67 60
c49.333 51.333 103.666 77 162.999 77c42.667 0 78.334 -10.667 107.001 -32c29.333 -23.333 44 -53.333 44 -90c0 -16.667 -4.66699 -31.667 -14 -45s-21 -22.333 -35 -27c40 -14.667 60 -42.334 60 -83.001c0 -38 -16.5 -68.833 -49.5 -92.5s-71.5 -35.5 -115.5 -35.5
c-64.667 0 -122.334 26.333 -173.001 79l68 64c40 -36.667 75.333 -55 106 -55c34 0 51 13.333 51 40c0 31.333 -28.333 47 -85 47h-30z" />
    <glyph glyph-name="questiondown" unicode="&#xbf;" horiz-adv-x="587" 
d="M557 -79c-71.333 -73.333 -157.334 -110 -258.001 -110c-67.333 0 -122.666 17 -165.999 51c-48.667 37.333 -73 89 -73 155c0 56 18.667 102 56 138c35.333 34 84 56.667 146 68l10 69h118l13 -172c-64.667 -4 -111.5 -13.333 -140.5 -28s-43.5 -37.667 -43.5 -69
c0 -22.667 8.66699 -40 26 -52s39.333 -18 66 -18c54.667 0 105 23 151 69zM406.999 350h-159v172h159v-172z" />
    <glyph glyph-name="Agrave" unicode="&#xc0;" horiz-adv-x="822" 
d="M792 0h-164l-72 176h-288l-71 -176h-167l310 718h146zM501 310l-89 218l-89 -218h178zM504 762h-98l-168 188h164z" />
    <glyph glyph-name="Aacute" unicode="&#xc1;" horiz-adv-x="822" 
d="M792 0h-164l-72 176h-288l-71 -176h-167l310 718h146zM501 310l-89 218l-89 -218h178zM416 762h-98l102 188h164z" />
    <glyph glyph-name="Acircumflex" unicode="&#xc2;" horiz-adv-x="822" 
d="M792 0h-164l-72 176h-288l-71 -176h-167l310 718h146zM501 310l-89 218l-89 -218h178zM621 751h-113l-98 85l-100 -85h-110l146 186h129z" />
    <glyph glyph-name="Atilde" unicode="&#xc3;" horiz-adv-x="822" 
d="M792 0h-164l-72 176h-288l-71 -176h-167l310 718h146zM501 310l-89 218l-89 -218h178zM604 911c-20.667 -94 -58.335 -141 -113.002 -141c-20 0 -47.167 6.66699 -81.5 20s-56.166 20 -65.499 20c-21.333 0 -38.333 -14.667 -51 -44l-75 23c21.333 93.333 59 140 113 140
c20 0 47.333 -6.5 82 -19.5s56.667 -19.5 66 -19.5c20.667 0 37.334 15 50.001 45z" />
    <glyph glyph-name="Adieresis" unicode="&#xc4;" horiz-adv-x="822" 
d="M792 0h-164l-72 176h-288l-71 -176h-167l310 718h146zM501 310l-89 218l-89 -218h178zM385 778h-149v172h149v-172zM585 778h-149v172h149v-172z" />
    <glyph glyph-name="Aring" unicode="&#xc5;" horiz-adv-x="822" 
d="M792 0h-164l-72 176h-288l-71 -176h-167l310 718h146zM501 310l-89 218l-89 -218h178zM540 880c0 -35.333 -12.667 -65.666 -38 -90.999s-55.666 -38 -90.999 -38s-65.666 12.667 -90.999 38s-38 55.666 -38 90.999s12.667 65.666 38 90.999s55.666 38 90.999 38
s65.666 -12.667 90.999 -38s38 -55.666 38 -90.999zM411 834c12.667 0 23.5 4.5 32.5 13.5s13.5 19.833 13.5 32.5s-4.5 23.5 -13.5 32.5s-19.833 13.5 -32.5 13.5s-23.5 -4.5 -32.5 -13.5s-13.5 -19.833 -13.5 -32.5s4.5 -23.5 13.5 -32.5s19.833 -13.5 32.5 -13.5z" />
    <glyph glyph-name="AE" unicode="&#xc6;" horiz-adv-x="1051" 
d="M971 0h-468v176h-219l-107 -176h-177l443 707h524v-141h-314v-139h268v-141h-268v-145h318v-141zM503 310v225l-138 -225h138z" />
    <glyph glyph-name="Ccedilla" unicode="&#xc7;" horiz-adv-x="789" 
d="M725 117c-77.333 -88 -172.998 -132.001 -286.998 -132.001c-110.667 0 -201.334 35.333 -272.001 106s-106 158.334 -106 263.001s35.5 192.167 106.5 262.5s161.167 105.5 270.5 105.5c118 0 217 -41.333 297 -124l-105 -109c-66 58.667 -130 88 -192 88
c-62.667 0 -113.834 -21.167 -153.501 -63.5s-59.5 -95.5 -59.5 -159.5c0 -63.333 20.333 -116.5 61 -159.5s91.334 -64.5 152.001 -64.5c65.333 0 126.666 30.667 183.999 92zM362.002 -178.001c41.333 0 62 12 62 36c0 23.333 -20.667 35 -62 35v77
c55.333 0 100 -10.167 134 -30.5s51 -47.5 51 -81.5c0 -34.667 -17.5 -62.167 -52.5 -82.5s-79.167 -30.5 -132.5 -30.5v77z" />
    <glyph glyph-name="Egrave" unicode="&#xc8;" horiz-adv-x="713" 
d="M633 0h-543v707h539v-141h-384v-139h338v-141h-338v-145h388v-141zM449 762h-98l-168 188h164z" />
    <glyph glyph-name="Eacute" unicode="&#xc9;" horiz-adv-x="713" 
d="M633 0h-543v707h539v-141h-384v-139h338v-141h-338v-145h388v-141zM371 762h-98l102 188h164z" />
    <glyph glyph-name="Ecircumflex" unicode="&#xca;" horiz-adv-x="713" 
d="M633 0h-543v707h539v-141h-384v-139h338v-141h-338v-145h388v-141zM567 751h-113l-98 85l-100 -85h-110l146 186h129z" />
    <glyph glyph-name="Edieresis" unicode="&#xcb;" horiz-adv-x="713" 
d="M633 0h-543v707h539v-141h-384v-139h338v-141h-338v-145h388v-141zM331 778h-149v172h149v-172zM531 778h-149v172h149v-172z" />
    <glyph glyph-name="Igrave" unicode="&#xcc;" horiz-adv-x="359" 
d="M259 0h-159v707h159v-707zM277 762h-98l-168 188h164z" />
    <glyph glyph-name="Iacute" unicode="&#xcd;" horiz-adv-x="359" 
d="M259 0h-159v707h159v-707zM179 762h-98l102 188h164z" />
    <glyph glyph-name="Icircumflex" unicode="&#xce;" horiz-adv-x="359" 
d="M259 0h-159v707h159v-707zM390 751h-113l-98 85l-100 -85h-110l146 186h129z" />
    <glyph glyph-name="Idieresis" unicode="&#xcf;" horiz-adv-x="359" 
d="M259 0h-159v707h159v-707zM154 778h-149v172h149v-172zM354 778h-149v172h149v-172z" />
    <glyph glyph-name="Eth" unicode="&#xd0;" horiz-adv-x="798" 
d="M86 0l0.000976562 316h-66v139h66v252h266c130 0 229.667 -39.333 299 -118c58 -66 87 -146.667 87 -242c0 -90 -28.333 -166.667 -85 -230c-70.667 -78 -173.334 -117 -308.001 -117h-259zM339.001 141c85.333 0 148 23 188 69c31.333 35.333 47 81 47 137
c0 63.333 -17 114 -51 152c-40 44.667 -99 67 -177 67h-105v-111h130v-139h-130v-175h98z" />
    <glyph glyph-name="Ntilde" unicode="&#xd1;" horiz-adv-x="814" 
d="M724 -4h-133l-348 461v-457h-153v711h145l335 -448v444h154v-711zM620 911c-20.667 -94 -58.335 -141 -113.002 -141c-20 0 -47.167 6.66699 -81.5 20s-56.166 20 -65.499 20c-21.333 0 -38.333 -14.667 -51 -44l-75 23c21.333 93.333 59 140 113 140
c20 0 47.333 -6.5 82 -19.5s56.667 -19.5 66 -19.5c20.667 0 37.334 15 50.001 45z" />
    <glyph glyph-name="Ograve" unicode="&#xd2;" horiz-adv-x="875" 
d="M815 354c0 -103.333 -35.3311 -190.332 -105.998 -260.999c-72.667 -72 -163.334 -108 -272.001 -108s-198.667 35.667 -270 107s-107 158.666 -107 261.999c0 104.667 35.5 192.167 106.5 262.5s161.167 105.5 270.5 105.5s199.666 -35.167 270.999 -105.5
s107 -157.833 107 -262.5zM437.002 130.001c60.667 0 111.834 21.667 153.501 65s62.5 96.333 62.5 159c0 64 -20.333 117.167 -61 159.5s-92.334 63.5 -155.001 63.5s-114.167 -21.167 -154.5 -63.5s-60.5 -95.5 -60.5 -159.5c0 -63.333 20.667 -116.5 62 -159.5
s92.333 -64.5 153 -64.5zM520.002 762.001h-98l-168 188h164z" />
    <glyph glyph-name="Oacute" unicode="&#xd3;" horiz-adv-x="875" 
d="M815 354c0 -103.333 -35.3311 -190.332 -105.998 -260.999c-72.667 -72 -163.334 -108 -272.001 -108s-198.667 35.667 -270 107s-107 158.666 -107 261.999c0 104.667 35.5 192.167 106.5 262.5s161.167 105.5 270.5 105.5s199.666 -35.167 270.999 -105.5
s107 -157.833 107 -262.5zM437.002 130.001c60.667 0 111.834 21.667 153.501 65s62.5 96.333 62.5 159c0 64 -20.333 117.167 -61 159.5s-92.334 63.5 -155.001 63.5s-114.167 -21.167 -154.5 -63.5s-60.5 -95.5 -60.5 -159.5c0 -63.333 20.667 -116.5 62 -159.5
s92.333 -64.5 153 -64.5zM452.002 762.001h-98l102 188h164z" />
    <glyph glyph-name="Ocircumflex" unicode="&#xd4;" horiz-adv-x="875" 
d="M815 354c0 -103.333 -35.3311 -190.332 -105.998 -260.999c-72.667 -72 -163.334 -108 -272.001 -108s-198.667 35.667 -270 107s-107 158.666 -107 261.999c0 104.667 35.5 192.167 106.5 262.5s161.167 105.5 270.5 105.5s199.666 -35.167 270.999 -105.5
s107 -157.833 107 -262.5zM437.002 130.001c60.667 0 111.834 21.667 153.501 65s62.5 96.333 62.5 159c0 64 -20.333 117.167 -61 159.5s-92.334 63.5 -155.001 63.5s-114.167 -21.167 -154.5 -63.5s-60.5 -95.5 -60.5 -159.5c0 -63.333 20.667 -116.5 62 -159.5
s92.333 -64.5 153 -64.5zM648.002 751.001h-113l-98 85l-100 -85h-110l146 186h129z" />
    <glyph glyph-name="Otilde" unicode="&#xd5;" horiz-adv-x="875" 
d="M815 354c0 -103.333 -35.3311 -190.332 -105.998 -260.999c-72.667 -72 -163.334 -108 -272.001 -108s-198.667 35.667 -270 107s-107 158.666 -107 261.999c0 104.667 35.5 192.167 106.5 262.5s161.167 105.5 270.5 105.5s199.666 -35.167 270.999 -105.5
s107 -157.833 107 -262.5zM437.002 130.001c60.667 0 111.834 21.667 153.501 65s62.5 96.333 62.5 159c0 64 -20.333 117.167 -61 159.5s-92.334 63.5 -155.001 63.5s-114.167 -21.167 -154.5 -63.5s-60.5 -95.5 -60.5 -159.5c0 -63.333 20.667 -116.5 62 -159.5
s92.333 -64.5 153 -64.5zM630.002 911.001c-20.667 -94 -58.335 -141 -113.002 -141c-20 0 -47.167 6.66699 -81.5 20s-56.166 20 -65.499 20c-21.333 0 -38.333 -14.667 -51 -44l-75 23c21.333 93.333 59 140 113 140c20 0 47.333 -6.5 82 -19.5s56.667 -19.5 66 -19.5
c20.667 0 37.334 15 50.001 45z" />
    <glyph glyph-name="Odieresis" unicode="&#xd6;" horiz-adv-x="875" 
d="M815 354c0 -103.333 -35.3311 -190.332 -105.998 -260.999c-72.667 -72 -163.334 -108 -272.001 -108s-198.667 35.667 -270 107s-107 158.666 -107 261.999c0 104.667 35.5 192.167 106.5 262.5s161.167 105.5 270.5 105.5s199.666 -35.167 270.999 -105.5
s107 -157.833 107 -262.5zM437.002 130.001c60.667 0 111.834 21.667 153.501 65s62.5 96.333 62.5 159c0 64 -20.333 117.167 -61 159.5s-92.334 63.5 -155.001 63.5s-114.167 -21.167 -154.5 -63.5s-60.5 -95.5 -60.5 -159.5c0 -63.333 20.667 -116.5 62 -159.5
s92.333 -64.5 153 -64.5zM412.002 778.001h-149v172h149v-172zM612.002 778.001h-149v172h149v-172z" />
    <glyph glyph-name="multiply" unicode="&#xd7;" horiz-adv-x="585" 
d="M445 106l-153 152l-149 -149l-96 96l149 149l-152 153l96 96l153 -152l149 149l96 -96l-149 -149l152 -153z" />
    <glyph glyph-name="Oslash" unicode="&#xd8;" horiz-adv-x="875" 
d="M274 -78h-101.999l60 119c-53.333 32.667 -95.333 76.667 -126 132s-46 115.666 -46 180.999c0 104.667 35.5 192.167 106.5 262.5s161.167 105.5 270.5 105.5c44.667 0 87 -6.66699 127 -20l40 80h102l-59 -118c52 -32.667 93 -76.167 123 -130.5
s45 -114.166 45 -179.499c0 -103.333 -35.333 -190.333 -106 -261c-72.667 -72 -163.334 -108 -272.001 -108c-40 0 -80.667 6 -122 18zM499.001 568c-18.667 6 -39.333 9 -62 9c-62.667 0 -114.167 -21.167 -154.5 -63.5s-60.5 -95.5 -60.5 -159.5
c0 -74.667 27 -133.667 81 -177zM379.002 137c16.667 -4.66699 35.999 -7 57.999 -7c60.667 0 111.834 21.667 153.501 65s62.5 96.333 62.5 159c0 73.333 -25.667 131.333 -77 174z" />
    <glyph glyph-name="Ugrave" unicode="&#xd9;" horiz-adv-x="792" 
d="M707 275c0 -103.333 -35.998 -181.333 -107.998 -234c-50.667 -37.333 -118.334 -56 -203.001 -56s-152.334 18.667 -203.001 56c-72 52.667 -108 130.667 -108 234v432h155v-392c0 -123.333 52 -185 156 -185s156 61.667 156 185v392h155v-432zM479.002 762h-98
l-168 188h164z" />
    <glyph glyph-name="Uacute" unicode="&#xda;" horiz-adv-x="792" 
d="M707 275c0 -103.333 -35.998 -181.333 -107.998 -234c-50.667 -37.333 -118.334 -56 -203.001 -56s-152.334 18.667 -203.001 56c-72 52.667 -108 130.667 -108 234v432h155v-392c0 -123.333 52 -185 156 -185s156 61.667 156 185v392h155v-432zM411.002 762h-98l102 188
h164z" />
    <glyph glyph-name="Ucircumflex" unicode="&#xdb;" horiz-adv-x="792" 
d="M707 275c0 -103.333 -35.998 -181.333 -107.998 -234c-50.667 -37.333 -118.334 -56 -203.001 -56s-152.334 18.667 -203.001 56c-72 52.667 -108 130.667 -108 234v432h155v-392c0 -123.333 52 -185 156 -185s156 61.667 156 185v392h155v-432zM606.002 751h-113l-98 85
l-100 -85h-110l146 186h129z" />
    <glyph glyph-name="Udieresis" unicode="&#xdc;" horiz-adv-x="792" 
d="M707 275c0 -103.333 -35.998 -181.333 -107.998 -234c-50.667 -37.333 -118.334 -56 -203.001 -56s-152.334 18.667 -203.001 56c-72 52.667 -108 130.667 -108 234v432h155v-392c0 -123.333 52 -185 156 -185s156 61.667 156 185v392h155v-432zM370.002 778h-149v172
h149v-172zM570.002 778h-149v172h149v-172z" />
    <glyph glyph-name="Yacute" unicode="&#xdd;" horiz-adv-x="772" 
d="M411 762h-98l102 188h164zM463 0h-155v276l-273 431h186l168 -291h1l168 291h179l-274 -431v-276z" />
    <glyph glyph-name="Thorn" unicode="&#xde;" horiz-adv-x="721" 
d="M245 0h-155v707h155v-153h170c69.333 0 126 -15.667 170 -47c51.333 -36.667 77 -89.667 77 -159s-25.667 -122.333 -77 -159c-44 -32 -100.667 -48 -170 -48h-170v-141zM412 281c28 0 49.667 6.33203 65 18.999s23 28.667 23 48c0 18.667 -7.66699 34.334 -23 47.001
s-37 19 -65 19h-167v-133h167z" />
    <glyph glyph-name="germandbls" unicode="&#xdf;" horiz-adv-x="661" 
d="M225 0l-150 0.000976562v508c0 74 21.333 132.5 64 175.5s101 64.5 175 64.5c66 0 120.333 -17.333 163 -52c45.333 -36.667 68 -85.667 68 -147c0 -60 -22.333 -105.667 -67 -137c37.333 -10 68.666 -30 93.999 -60c29.333 -34.667 44 -76.667 44 -126
c0 -68.667 -20.667 -125.334 -62 -170.001c-43.333 -47.333 -100.666 -71 -171.999 -71c-44.667 0 -85 5.33301 -121 16l34 120c19.333 -5.33301 37.333 -8 54 -8c32 0 58.333 9 79 27c23.333 20 35 47.333 35 82c0 77.333 -60 116 -180 116v114c74 0 111 31.333 111 94
c0 19.333 -7.16699 34.833 -21.5 46.5s-34.5 17.5 -60.5 17.5c-58 0 -87 -33.333 -87 -100v-510z" />
    <glyph glyph-name="agrave" unicode="&#xe0;" horiz-adv-x="620" 
d="M550 0l-150.001 0.000976562v33h-3c-38.667 -32 -87.667 -48 -147 -48c-56.667 0 -105 15.333 -145 46c-44 33.333 -66 78.333 -66 135s21.667 101.667 65 135c38.667 30 86.667 45 144 45s107.333 -15.333 150 -46h3v25c0 55.333 -35.333 83 -106 83
c-58 0 -107 -14.333 -147 -43l-79 89c66.667 53.333 146.334 80 239.001 80c68.667 0 125 -16.667 169 -50c48.667 -36.667 73 -88.334 73 -155.001v-329zM365.999 117.001c21.333 11.333 32 27.667 32 49c0 22 -10.5 38.667 -31.5 50s-47.167 17 -78.5 17
c-62.667 0 -94 -22.333 -94 -67c0 -44 31.333 -66 94 -66c31.333 0 57.333 5.66699 78 17zM402.999 577.002h-98l-168 188h164z" />
    <glyph glyph-name="aacute" unicode="&#xe1;" horiz-adv-x="620" 
d="M550 0l-150.001 0.000976562v33h-3c-38.667 -32 -87.667 -48 -147 -48c-56.667 0 -105 15.333 -145 46c-44 33.333 -66 78.333 -66 135s21.667 101.667 65 135c38.667 30 86.667 45 144 45s107.333 -15.333 150 -46h3v25c0 55.333 -35.333 83 -106 83
c-58 0 -107 -14.333 -147 -43l-79 89c66.667 53.333 146.334 80 239.001 80c68.667 0 125 -16.667 169 -50c48.667 -36.667 73 -88.334 73 -155.001v-329zM365.999 117.001c21.333 11.333 32 27.667 32 49c0 22 -10.5 38.667 -31.5 50s-47.167 17 -78.5 17
c-62.667 0 -94 -22.333 -94 -67c0 -44 31.333 -66 94 -66c31.333 0 57.333 5.66699 78 17zM324.999 577.002h-98l102 188h164z" />
    <glyph glyph-name="acircumflex" unicode="&#xe2;" horiz-adv-x="620" 
d="M550 0l-150.001 0.000976562v33h-3c-38.667 -32 -87.667 -48 -147 -48c-56.667 0 -105 15.333 -145 46c-44 33.333 -66 78.333 -66 135s21.667 101.667 65 135c38.667 30 86.667 45 144 45s107.333 -15.333 150 -46h3v25c0 55.333 -35.333 83 -106 83
c-58 0 -107 -14.333 -147 -43l-79 89c66.667 53.333 146.334 80 239.001 80c68.667 0 125 -16.667 169 -50c48.667 -36.667 73 -88.334 73 -155.001v-329zM365.999 117.001c21.333 11.333 32 27.667 32 49c0 22 -10.5 38.667 -31.5 50s-47.167 17 -78.5 17
c-62.667 0 -94 -22.333 -94 -67c0 -44 31.333 -66 94 -66c31.333 0 57.333 5.66699 78 17zM519.999 566.002h-113l-98 85l-100 -85h-110l146 186h129z" />
    <glyph glyph-name="atilde" unicode="&#xe3;" horiz-adv-x="620" 
d="M550 0l-150.001 0.000976562v33h-3c-38.667 -32 -87.667 -48 -147 -48c-56.667 0 -105 15.333 -145 46c-44 33.333 -66 78.333 -66 135s21.667 101.667 65 135c38.667 30 86.667 45 144 45s107.333 -15.333 150 -46h3v25c0 55.333 -35.333 83 -106 83
c-58 0 -107 -14.333 -147 -43l-79 89c66.667 53.333 146.334 80 239.001 80c68.667 0 125 -16.667 169 -50c48.667 -36.667 73 -88.334 73 -155.001v-329zM365.999 117.001c21.333 11.333 32 27.667 32 49c0 22 -10.5 38.667 -31.5 50s-47.167 17 -78.5 17
c-62.667 0 -94 -22.333 -94 -67c0 -44 31.333 -66 94 -66c31.333 0 57.333 5.66699 78 17zM502.999 726.002c-20.667 -94 -58.335 -141 -113.002 -141c-20 0 -47.167 6.66699 -81.5 20s-56.166 20 -65.499 20c-21.333 0 -38.333 -14.667 -51 -44l-75 23
c21.333 93.333 59 140 113 140c20 0 47.333 -6.5 82 -19.5s56.667 -19.5 66 -19.5c20.667 0 37.334 15 50.001 45z" />
    <glyph glyph-name="adieresis" unicode="&#xe4;" horiz-adv-x="620" 
d="M550 0l-150.001 0.000976562v33h-3c-38.667 -32 -87.667 -48 -147 -48c-56.667 0 -105 15.333 -145 46c-44 33.333 -66 78.333 -66 135s21.667 101.667 65 135c38.667 30 86.667 45 144 45s107.333 -15.333 150 -46h3v25c0 55.333 -35.333 83 -106 83
c-58 0 -107 -14.333 -147 -43l-79 89c66.667 53.333 146.334 80 239.001 80c68.667 0 125 -16.667 169 -50c48.667 -36.667 73 -88.334 73 -155.001v-329zM365.999 117.001c21.333 11.333 32 27.667 32 49c0 22 -10.5 38.667 -31.5 50s-47.167 17 -78.5 17
c-62.667 0 -94 -22.333 -94 -67c0 -44 31.333 -66 94 -66c31.333 0 57.333 5.66699 78 17zM283.999 593.002h-149v172h149v-172zM483.999 593.002h-149v172h149v-172z" />
    <glyph glyph-name="aring" unicode="&#xe5;" horiz-adv-x="620" 
d="M550 0l-150.001 0.000976562v33h-3c-38.667 -32 -87.667 -48 -147 -48c-56.667 0 -105 15.333 -145 46c-44 33.333 -66 78.333 -66 135s21.667 101.667 65 135c38.667 30 86.667 45 144 45s107.333 -15.333 150 -46h3v25c0 55.333 -35.333 83 -106 83
c-58 0 -107 -14.333 -147 -43l-79 89c66.667 53.333 146.334 80 239.001 80c68.667 0 125 -16.667 169 -50c48.667 -36.667 73 -88.334 73 -155.001v-329zM365.999 117.001c21.333 11.333 32 27.667 32 49c0 22 -10.5 38.667 -31.5 50s-47.167 17 -78.5 17
c-62.667 0 -94 -22.333 -94 -67c0 -44 31.333 -66 94 -66c31.333 0 57.333 5.66699 78 17zM438.999 695.002c0 -35.333 -12.667 -65.666 -38 -90.999s-55.666 -38 -90.999 -38s-65.666 12.667 -90.999 38s-38 55.666 -38 90.999s12.667 65.666 38 90.999
s55.666 38 90.999 38s65.666 -12.667 90.999 -38s38 -55.666 38 -90.999zM309.999 649.002c12.667 0 23.5 4.5 32.5 13.5s13.5 19.833 13.5 32.5s-4.5 23.5 -13.5 32.5s-19.833 13.5 -32.5 13.5s-23.5 -4.5 -32.5 -13.5s-13.5 -19.833 -13.5 -32.5s4.5 -23.5 13.5 -32.5
s19.833 -13.5 32.5 -13.5z" />
    <glyph glyph-name="ae" unicode="&#xe6;" horiz-adv-x="909" 
d="M861 83c-60.667 -65.333 -135.003 -98 -223.003 -98c-85.333 0 -151 29.333 -197 88c-54 -58.667 -121.667 -88 -203 -88c-53.333 0 -99 15.333 -137 46c-41.333 33.333 -62 78.333 -62 135s20.333 101.667 61 135c36.667 30 82 45 136 45c56 0 103.333 -14.667 142 -44
h3c0 70.667 -33.667 106 -101 106c-54.667 0 -100.667 -14.333 -138 -43l-74 89c62.667 53.333 137.334 80 224.001 80c73.333 0 130.333 -21.333 171 -64c44.667 42.667 99.667 64 165 64c76.667 0 136.334 -26.667 179.001 -80
c38.667 -49.333 59.334 -115.333 62.001 -198h-348c0 -48 13.333 -85.667 40 -113c24 -25.333 53.667 -38 89 -38c48 0 90.667 20.667 128 62zM348.997 117c18.667 11.333 28 27.667 28 49c0 44.667 -33.333 67 -100 67c-61.333 0 -92 -22.333 -92 -67
c0 -44 30.667 -66 92 -66c29.333 0 53.333 5.66699 72 17zM716.997 351.001c-12.667 47.333 -42.668 71 -90.001 71c-45.333 0 -75.666 -23.667 -90.999 -71h181z" />
    <glyph glyph-name="ccedilla" unicode="&#xe7;" horiz-adv-x="579" 
d="M544 80c-63.333 -63.333 -137.001 -94.999 -221.001 -94.999c-83.333 0 -151 27 -203 81c-50 51.333 -75 115.666 -75 192.999c0 78 25 142.667 75 194c52 54 119.667 81 203 81c84.667 0 158.334 -31.333 221.001 -94l-87 -87c-42 36 -84 54 -126 54
c-40 0 -72.333 -13.833 -97 -41.5s-37 -63.167 -37 -106.5c0 -42 12.5 -77 37.5 -105s57.167 -42 96.5 -42c41.333 0 83.333 18.333 126 55zM241.999 -177.999c41.333 0 62 12 62 36c0 23.333 -20.667 35 -62 35v77c55.333 0 100 -10.167 134 -30.5s51 -47.5 51 -81.5
c0 -34.667 -17.5 -62.167 -52.5 -82.5s-79.167 -30.5 -132.5 -30.5v77z" />
    <glyph glyph-name="egrave" unicode="&#xe8;" horiz-adv-x="611" 
d="M563 83c-65.333 -65.333 -145.333 -98 -240 -98c-85.333 0 -153.333 26 -204 78c-49.333 50 -74 114.667 -74 194c0 80.667 24 147 72 199s111.667 78 191 78c83.333 0 148.333 -26.667 195 -80c44 -50 66.667 -116 68 -198h-379c0 -47.333 15 -85 45 -113
c27.333 -25.333 60.333 -38 99 -38c52 0 97.667 20.667 137 62zM413 351c-16 47.333 -49.998 71 -101.998 71c-22.667 0 -43.334 -6.5 -62.001 -19.5s-32.334 -30.167 -41.001 -51.5h205zM398.002 577h-98l-168 188h164z" />
    <glyph glyph-name="eacute" unicode="&#xe9;" horiz-adv-x="611" 
d="M563 83c-65.333 -65.333 -145.333 -98 -240 -98c-85.333 0 -153.333 26 -204 78c-49.333 50 -74 114.667 -74 194c0 80.667 24 147 72 199s111.667 78 191 78c83.333 0 148.333 -26.667 195 -80c44 -50 66.667 -116 68 -198h-379c0 -47.333 15 -85 45 -113
c27.333 -25.333 60.333 -38 99 -38c52 0 97.667 20.667 137 62zM413 351c-16 47.333 -49.998 71 -101.998 71c-22.667 0 -43.334 -6.5 -62.001 -19.5s-32.334 -30.167 -41.001 -51.5h205zM320.002 577h-98l102 188h164z" />
    <glyph glyph-name="ecircumflex" unicode="&#xea;" horiz-adv-x="611" 
d="M563 83c-65.333 -65.333 -145.333 -98 -240 -98c-85.333 0 -153.333 26 -204 78c-49.333 50 -74 114.667 -74 194c0 80.667 24 147 72 199s111.667 78 191 78c83.333 0 148.333 -26.667 195 -80c44 -50 66.667 -116 68 -198h-379c0 -47.333 15 -85 45 -113
c27.333 -25.333 60.333 -38 99 -38c52 0 97.667 20.667 137 62zM413 351c-16 47.333 -49.998 71 -101.998 71c-22.667 0 -43.334 -6.5 -62.001 -19.5s-32.334 -30.167 -41.001 -51.5h205zM516.002 566h-113l-98 85l-100 -85h-110l146 186h129z" />
    <glyph glyph-name="edieresis" unicode="&#xeb;" horiz-adv-x="611" 
d="M563 83c-65.333 -65.333 -145.333 -98 -240 -98c-85.333 0 -153.333 26 -204 78c-49.333 50 -74 114.667 -74 194c0 80.667 24 147 72 199s111.667 78 191 78c83.333 0 148.333 -26.667 195 -80c44 -50 66.667 -116 68 -198h-379c0 -47.333 15 -85 45 -113
c27.333 -25.333 60.333 -38 99 -38c52 0 97.667 20.667 137 62zM413 351c-16 47.333 -49.998 71 -101.998 71c-22.667 0 -43.334 -6.5 -62.001 -19.5s-32.334 -30.167 -41.001 -51.5h205zM280.002 593h-149v172h149v-172zM480.002 593h-149v172h149v-172z" />
    <glyph glyph-name="igrave" unicode="&#xec;" horiz-adv-x="312" 
d="M232 0h-152v522h152v-522zM249 577h-98l-168 188h164z" />
    <glyph glyph-name="iacute" unicode="&#xed;" horiz-adv-x="312" 
d="M232 0h-152v522h152v-522zM161 577h-98l102 188h164z" />
    <glyph glyph-name="icircumflex" unicode="&#xee;" horiz-adv-x="312" 
d="M232 0h-152v522h152v-522zM367 566h-113l-98 85l-100 -85h-110l146 186h129z" />
    <glyph glyph-name="idieresis" unicode="&#xef;" horiz-adv-x="312" 
d="M232 0h-152v522h152v-522zM131 593h-149v172h149v-172zM331 593h-149v172h149v-172z" />
    <glyph glyph-name="eth" unicode="&#xf0;" horiz-adv-x="594" 
d="M540 647l-72.001 -27c59.333 -90 89 -194 89 -312c0 -98 -21.667 -175.667 -65 -233c-46 -60 -111.667 -90 -197 -90c-75.333 0 -137.666 25.5 -186.999 76.5s-74 117.833 -74 200.5c0 84 24.667 151 74 201c46.667 47.333 106.667 71 180 71c38 0 72 -10.333 102 -31h3
c-13.333 30 -27.333 54.333 -42 73l-86 -32l-41 90l44 18c-9.33301 6 -29 17.667 -59 35l66 92c29.333 -16 68.333 -42.333 117 -79l105 40zM294.999 113c31.333 0 56.668 14.168 76.001 42.501s29 64.166 29 107.499c0 41.333 -9.5 75.5 -28.5 102.5s-44.5 40.5 -76.5 40.5
c-32.667 0 -58.667 -13.167 -78 -39.5s-29 -60.833 -29 -103.5c0 -42 9.33301 -77 28 -105c19.333 -30 45.666 -45 78.999 -45z" />
    <glyph glyph-name="ntilde" unicode="&#xf1;" horiz-adv-x="639" 
d="M569 0h-152.001v284c0 78 -30.667 117 -92 117c-30 0 -53.833 -11 -71.5 -33s-26.5 -51 -26.5 -87v-281h-152v522h151v-74h2c35.333 57.333 88 86 158 86c58.667 0 103.834 -18.333 135.501 -55s47.5 -86 47.5 -148v-331zM516.999 726
c-20.667 -94 -58.335 -141 -113.002 -141c-20 0 -47.167 6.66699 -81.5 20s-56.166 20 -65.499 20c-21.333 0 -38.333 -14.667 -51 -44l-75 23c21.333 93.333 59 140 113 140c20 0 47.333 -6.5 82 -19.5s56.667 -19.5 66 -19.5c20.667 0 37.334 15 50.001 45z" />
    <glyph glyph-name="ograve" unicode="&#xf2;" horiz-adv-x="657" 
d="M612 259c0 -80 -26.833 -145.667 -80.5 -197s-121.5 -77 -203.5 -77s-149.667 25.667 -203 77s-80 117 -80 197c0 78 26.167 143.333 78.5 196s120.5 79 204.5 79c84.667 0 153.667 -26.667 207 -80c51.333 -52 77 -117 77 -195zM328 117c38.667 0 70.667 13.333 96 40
s38 60.667 38 102c0 40.667 -12.333 74.667 -37 102s-57 41 -97 41c-39.333 0 -71.333 -13.667 -96 -41s-37 -61.333 -37 -102c0 -41.333 12.5 -75.333 37.5 -102s56.833 -40 95.5 -40zM421 577h-98l-168 188h164z" />
    <glyph glyph-name="oacute" unicode="&#xf3;" horiz-adv-x="657" 
d="M612 259c0 -80 -26.833 -145.667 -80.5 -197s-121.5 -77 -203.5 -77s-149.667 25.667 -203 77s-80 117 -80 197c0 78 26.167 143.333 78.5 196s120.5 79 204.5 79c84.667 0 153.667 -26.667 207 -80c51.333 -52 77 -117 77 -195zM328 117c38.667 0 70.667 13.333 96 40
s38 60.667 38 102c0 40.667 -12.333 74.667 -37 102s-57 41 -97 41c-39.333 0 -71.333 -13.667 -96 -41s-37 -61.333 -37 -102c0 -41.333 12.5 -75.333 37.5 -102s56.833 -40 95.5 -40zM333 577h-98l102 188h164z" />
    <glyph glyph-name="ocircumflex" unicode="&#xf4;" horiz-adv-x="657" 
d="M612 259c0 -80 -26.833 -145.667 -80.5 -197s-121.5 -77 -203.5 -77s-149.667 25.667 -203 77s-80 117 -80 197c0 78 26.167 143.333 78.5 196s120.5 79 204.5 79c84.667 0 153.667 -26.667 207 -80c51.333 -52 77 -117 77 -195zM328 117c38.667 0 70.667 13.333 96 40
s38 60.667 38 102c0 40.667 -12.333 74.667 -37 102s-57 41 -97 41c-39.333 0 -71.333 -13.667 -96 -41s-37 -61.333 -37 -102c0 -41.333 12.5 -75.333 37.5 -102s56.833 -40 95.5 -40zM539 566h-113l-98 85l-100 -85h-110l146 186h129z" />
    <glyph glyph-name="otilde" unicode="&#xf5;" horiz-adv-x="657" 
d="M612 259c0 -80 -26.833 -145.667 -80.5 -197s-121.5 -77 -203.5 -77s-149.667 25.667 -203 77s-80 117 -80 197c0 78 26.167 143.333 78.5 196s120.5 79 204.5 79c84.667 0 153.667 -26.667 207 -80c51.333 -52 77 -117 77 -195zM328 117c38.667 0 70.667 13.333 96 40
s38 60.667 38 102c0 40.667 -12.333 74.667 -37 102s-57 41 -97 41c-39.333 0 -71.333 -13.667 -96 -41s-37 -61.333 -37 -102c0 -41.333 12.5 -75.333 37.5 -102s56.833 -40 95.5 -40zM521 726c-20.667 -94 -58.335 -141 -113.002 -141c-20 0 -47.167 6.66699 -81.5 20
s-56.166 20 -65.499 20c-21.333 0 -38.333 -14.667 -51 -44l-75 23c21.333 93.333 59 140 113 140c20 0 47.333 -6.5 82 -19.5s56.667 -19.5 66 -19.5c20.667 0 37.334 15 50.001 45z" />
    <glyph glyph-name="odieresis" unicode="&#xf6;" horiz-adv-x="657" 
d="M612 259c0 -80 -26.833 -145.667 -80.5 -197s-121.5 -77 -203.5 -77s-149.667 25.667 -203 77s-80 117 -80 197c0 78 26.167 143.333 78.5 196s120.5 79 204.5 79c84.667 0 153.667 -26.667 207 -80c51.333 -52 77 -117 77 -195zM328 117c38.667 0 70.667 13.333 96 40
s38 60.667 38 102c0 40.667 -12.333 74.667 -37 102s-57 41 -97 41c-39.333 0 -71.333 -13.667 -96 -41s-37 -61.333 -37 -102c0 -41.333 12.5 -75.333 37.5 -102s56.833 -40 95.5 -40zM303 593h-149v172h149v-172zM503 593h-149v172h149v-172z" />
    <glyph glyph-name="divide" unicode="&#xf7;" horiz-adv-x="585" 
d="M557 284h-529v141h529v-141zM375 81h-165v159h165v-159zM372 465h-159v162h159v-162z" />
    <glyph glyph-name="oslash" unicode="&#xf8;" horiz-adv-x="657" 
d="M216 -64h-96l47 93c-81.333 52 -122 128.667 -122 230c0 78 26.167 143.333 78.5 196s120.5 79 204.5 79c31.333 0 60 -4 86 -12l34 67h96l-51 -102c79.333 -52 119 -128 119 -228c0 -80 -26.833 -145.667 -80.5 -197s-121.5 -77 -203.5 -77
c-28 0 -55.667 3.66699 -83 11zM355 399c-8 2 -17 3 -27 3c-39.333 0 -71.333 -13.667 -96 -41s-37 -61.333 -37 -102c0 -42 12.667 -76.333 38 -103zM305 118c4.66699 -0.666992 12.333 -0.999023 23 -0.999023c38.667 0 70.667 13.333 96 40s38 60.667 38 102
c0 39.333 -12 72.666 -36 99.999z" />
    <glyph glyph-name="ugrave" unicode="&#xf9;" horiz-adv-x="639" 
d="M564 0l-150.998 -0.000976562v74h-2c-36.667 -59.333 -89.334 -89 -158.001 -89c-58.667 0 -103.834 18.333 -135.501 55s-47.5 86 -47.5 148v334h152v-287c0 -78 30.667 -117 92 -117c30 0 53.833 11.333 71.5 34s26.5 52.334 26.5 89.001v281h152v-522z
M402.002 576.999h-98l-168 188h164z" />
    <glyph glyph-name="uacute" unicode="&#xfa;" horiz-adv-x="639" 
d="M564 0l-150.998 -0.000976562v74h-2c-36.667 -59.333 -89.334 -89 -158.001 -89c-58.667 0 -103.834 18.333 -135.501 55s-47.5 86 -47.5 148v334h152v-287c0 -78 30.667 -117 92 -117c30 0 53.833 11.333 71.5 34s26.5 52.334 26.5 89.001v281h152v-522z
M334.002 576.999h-98l102 188h164z" />
    <glyph glyph-name="ucircumflex" unicode="&#xfb;" horiz-adv-x="639" 
d="M564 0l-150.998 -0.000976562v74h-2c-36.667 -59.333 -89.334 -89 -158.001 -89c-58.667 0 -103.834 18.333 -135.501 55s-47.5 86 -47.5 148v334h152v-287c0 -78 30.667 -117 92 -117c30 0 53.833 11.333 71.5 34s26.5 52.334 26.5 89.001v281h152v-522z
M530.002 565.999h-113l-98 85l-100 -85h-110l146 186h129z" />
    <glyph glyph-name="udieresis" unicode="&#xfc;" horiz-adv-x="639" 
d="M564 0l-150.998 -0.000976562v74h-2c-36.667 -59.333 -89.334 -89 -158.001 -89c-58.667 0 -103.834 18.333 -135.501 55s-47.5 86 -47.5 148v334h152v-287c0 -78 30.667 -117 92 -117c30 0 53.833 11.333 71.5 34s26.5 52.334 26.5 89.001v281h152v-522z
M294.002 592.999h-149v172h149v-172zM494.002 592.999h-149v172h149v-172z" />
    <glyph glyph-name="yacute" unicode="&#xfd;" horiz-adv-x="661" 
d="M568 90c0 -78.667 -23.667 -143 -71 -193c-50 -54 -118.667 -81 -206 -81c-86.667 0 -160.667 30.667 -222 92l88 90c42.667 -36.667 84.667 -55 126 -55c39.333 0 71.5 14 96.5 42s37.5 63 37.5 105v15h-2c-36 -56 -87.333 -84 -154 -84c-58 0 -103 18.667 -135 56
c-30 35.333 -45 84.333 -45 147v298h152v-251c0 -78 29.667 -117 89 -117c30 0 53.167 10.5 69.5 31.5s24.5 49.833 24.5 86.5v250h152v-432zM345 577h-98l102 188h164z" />
    <glyph glyph-name="thorn" unicode="&#xfe;" horiz-adv-x="687" 
d="M225 -215l-149.999 39v945h2l150 -39v-279h2c42.667 55.333 99.667 83 171 83c66.667 0 123 -24 169 -72c48.667 -51.333 73 -118 73 -200c0 -83.333 -24.333 -151 -73 -203c-46 -49.333 -102.333 -74 -169 -74c-74.667 0 -132.334 28.333 -173.001 85h-2v-285z
M359.001 111c38 0 68.833 13.668 92.5 41.001s35.5 63.666 35.5 108.999c0 44 -11.833 79.5 -35.5 106.5s-54.5 40.5 -92.5 40.5c-36.667 0 -67.667 -13.667 -93 -41s-38 -62.333 -38 -105c0 -44.667 12.667 -81 38 -109s56.333 -42 93 -42z" />
    <glyph glyph-name="ydieresis" unicode="&#xff;" horiz-adv-x="661" 
d="M568 90c0 -78.667 -23.667 -143 -71 -193c-50 -54 -118.667 -81 -206 -81c-86.667 0 -160.667 30.667 -222 92l88 90c42.667 -36.667 84.667 -55 126 -55c39.333 0 71.5 14 96.5 42s37.5 63 37.5 105v15h-2c-36 -56 -87.333 -84 -154 -84c-58 0 -103 18.667 -135 56
c-30 35.333 -45 84.333 -45 147v298h152v-251c0 -78 29.667 -117 89 -117c30 0 53.167 10.5 69.5 31.5s24.5 49.833 24.5 86.5v250h152v-432zM305 593h-149v172h149v-172zM505 593h-149v172h149v-172z" />
    <glyph glyph-name="dotlessi" unicode="&#x131;" horiz-adv-x="312" 
d="M232 0h-152v522h152v-522z" />
    <glyph glyph-name="Lslash" unicode="&#x141;" horiz-adv-x="630" 
d="M600 0h-509v263l-71 -27v140l71 27v304h155v-246l120 47v-140l-120 -47v-180h354v-141z" />
    <glyph glyph-name="lslash" unicode="&#x142;" horiz-adv-x="337" 
d="M246 0h-152v264l-74 -28v140l74 28v365h2l150 -39v-268l71 27v-140l-71 -27v-322z" />
    <glyph glyph-name="OE" unicode="&#x152;" horiz-adv-x="1153" 
d="M1073 0l-468 0.000976562v58c-58 -48.667 -126.333 -73 -205 -73c-98 0 -179.167 35.667 -243.5 107s-96.5 158.666 -96.5 261.999c0 104.667 32.167 192.167 96.5 262.5s145.5 105.5 243.5 105.5c78.667 0 147 -24.333 205 -73v58h464v-141h-314v-139h268v-141h-268
v-145h318v-141zM405 129.001c51.333 0 95.166 21.833 131.499 65.5s54.5 96.5 54.5 158.5c0 63.333 -17.667 116.333 -53 159s-79.666 64 -132.999 64s-97.5 -21.167 -132.5 -63.5s-52.5 -95.5 -52.5 -159.5c0 -62.667 18 -115.667 54 -159s79.667 -65 131 -65z" />
    <glyph glyph-name="oe" unicode="&#x153;" horiz-adv-x="962" 
d="M914 83c-60.667 -65.333 -135.002 -98 -223.002 -98c-80 0 -144 26 -192 78c-50 -52 -113.667 -78 -191 -78c-76 0 -138.833 25.667 -188.5 77s-74.5 117 -74.5 197c0 78 24.333 143.333 73 196s112 79 190 79c78.667 0 142.667 -26.333 192 -79
c46 52.667 106.333 79 181 79c76.667 0 136.334 -26.667 179.001 -80c38.667 -49.333 59.334 -115.333 62.001 -198h-348c0 -48 13.333 -85.667 40 -113c24 -25.333 53.667 -38 89 -38c48 0 90.667 20.667 128 62zM307.998 117c34 0 61.834 13.333 83.501 40
s32.5 60.667 32.5 102c0 40.667 -10.5 74.667 -31.5 102s-49.167 41 -84.5 41c-34 0 -61.5 -13.667 -82.5 -41s-31.5 -61.333 -31.5 -102c0 -41.333 10.667 -75.333 32 -102s48.666 -40 81.999 -40zM769.999 351c-12.667 47.333 -42.668 71 -90.001 71
c-45.333 0 -75.666 -23.667 -90.999 -71h181z" />
    <glyph glyph-name="Scaron" unicode="&#x160;" horiz-adv-x="723" 
d="M571 496c-76 55.333 -146.001 82.999 -210.001 82.999c-64.667 0 -97 -20.667 -97 -62c0 -18.667 14.667 -34.667 44 -48c22.667 -10.667 62.334 -22.667 119.001 -36c68 -16 119.333 -37.667 154 -65c50.667 -39.333 76 -93.333 76 -162c0 -72 -28 -128 -84 -168
c-49.333 -35.333 -111 -53 -185 -53c-58.667 0 -115.667 11 -171 33c-62 24 -114.333 58.667 -157 104l110 112c72 -70 145.667 -105 221 -105c32.667 0 58 7.33301 76 22s27 31.667 27 51c0 29.333 -22.667 53 -68 71c-6.66699 2.66699 -39 11.334 -97 26.001
c-70.667 18 -122.667 39.333 -156 64c-46.667 34.667 -70 81.667 -70 141c0 69.333 27.333 124 82 164c49.333 36 111 54 185 54c110 0 207.667 -35.667 293 -107zM440.999 757.999h-129l-146 186h113l98 -85l100 85h110z" />
    <glyph glyph-name="scaron" unicode="&#x161;" horiz-adv-x="543" 
d="M422 359c-48.667 41.333 -98.334 61.998 -149.001 61.998c-38.667 0 -58 -13 -58 -39c0 -20.667 27.333 -37 82 -49c60.667 -13.333 105.334 -29.666 134.001 -48.999c44 -30 66 -73.333 66 -130c0 -54 -20.667 -96 -62 -126c-38.667 -28.667 -88 -43 -148 -43
c-46 0 -91 10.167 -135 30.5s-79.667 48.833 -107 85.5l89 86c50.667 -56 103 -84 157 -84c16 0 29.833 4.33301 41.5 13s17.5 19.334 17.5 32.001c0 29.333 -31.667 51 -95 65c-56.667 12.667 -98 27 -124 43c-40.667 26.667 -61 64.667 -61 114c0 52.667 21 94 63 124
c38.667 26.667 87.667 40 147 40c83.333 0 156 -27 218 -81zM346 572.998h-129l-146 186h113l98 -85l100 85h110z" />
    <glyph glyph-name="Ydieresis" unicode="&#x178;" horiz-adv-x="772" 
d="M360 778h-149v172h149v-172zM560 778h-149v172h149v-172zM463 0h-155v276l-273 431h186l168 -291h1l168 291h179l-274 -431v-276z" />
    <glyph glyph-name="Zcaron" unicode="&#x17d;" horiz-adv-x="768" 
d="M751 146c-36.667 -55.333 -68.668 -94 -96.001 -116c-37.333 -30 -80.333 -45 -129 -45c-35.333 0 -80.166 8.16699 -134.499 24.5s-93.166 24.5 -116.499 24.5c-50 0 -91.667 -17.333 -125 -52l-101 91l418 492h-378v142h586v-116l-359 -420
c4.66699 0.666992 11.667 1 21 1c25.333 0 56.666 -7 93.999 -21s66.333 -21 87 -21c40 0 82 31.667 126 95zM452.999 758h-129l-146 186h113l98 -85l100 85h110z" />
    <glyph glyph-name="zcaron" unicode="&#x17e;" horiz-adv-x="615" 
d="M602 112c-29.333 -44 -53.999 -74.333 -73.999 -91c-29.333 -24 -64.333 -36 -105 -36c-28 0 -62.833 5.5 -104.5 16.5s-70.834 16.5 -87.501 16.5c-38 0 -72 -11.333 -102 -34l-85 70l304 347h-267v121h467v-97l-269 -295c1.33301 0 3.33301 0.333008 6 1h5
c16 0 37.667 -4.66699 65 -14s48.333 -14 63 -14c30 0 61.333 23.333 94 70zM387.001 573h-129l-146 186h113l98 -85l100 85h110z" />
    <glyph glyph-name="florin" unicode="&#x192;" horiz-adv-x="380" 
d="M168 -4c-21.333 -120 -87 -180 -197 -180c-44 0 -83.667 4.66699 -119 14l23 130c34.667 -9.33301 58.334 -14 71.001 -14c41.333 0 65.666 21 72.999 63l68 383h-65v130h88l8 46c20.667 120 86.334 180 197.001 180c44 0 83.667 -4.66699 119 -14l-23 -130
c-34.667 9.33301 -58.334 14 -71.001 14c-42 0 -66 -21 -72 -63l-6 -33h112v-130h-135z" />
    <glyph glyph-name="circumflex" unicode="&#x2c6;" horiz-adv-x="471" 
d="M446 566h-113l-98 85l-100 -85h-110l146 186h129z" />
    <glyph glyph-name="caron" unicode="&#x2c7;" horiz-adv-x="471" 
d="M300 573h-129l-146 186h113l98 -85l100 85h110z" />
    <glyph glyph-name="breve" unicode="&#x2d8;" horiz-adv-x="411" 
d="M386 747c-4 -50 -22.501 -90.667 -55.501 -122s-74.5 -47 -124.5 -47s-91.667 15.667 -125 47s-52 72 -56 122h95c12.667 -40 41.334 -60 86.001 -60s73 20 85 60h95z" />
    <glyph glyph-name="dotaccent" unicode="&#x2d9;" horiz-adv-x="204" 
d="M179 593h-154v176h154v-176z" />
    <glyph glyph-name="ring" unicode="&#x2da;" horiz-adv-x="308" 
d="M283 695c0 -35.333 -12.667 -65.666 -38 -90.999s-55.666 -38 -90.999 -38s-65.666 12.667 -90.999 38s-38 55.666 -38 90.999s12.667 65.666 38 90.999s55.666 38 90.999 38s65.666 -12.667 90.999 -38s38 -55.666 38 -90.999zM154 649c12.667 0 23.5 4.5 32.5 13.5
s13.5 19.833 13.5 32.5s-4.5 23.5 -13.5 32.5s-19.833 13.5 -32.5 13.5s-23.5 -4.5 -32.5 -13.5s-13.5 -19.833 -13.5 -32.5s4.5 -23.5 13.5 -32.5s19.833 -13.5 32.5 -13.5z" />
    <glyph glyph-name="ogonek" unicode="&#x2db;" horiz-adv-x="235" 
d="M210 -255c-53.333 0 -97 9.99902 -131 29.999c-36 20.667 -54 48.334 -54 83.001c0 34 17 61.167 51 81.5s78.667 30.5 134 30.5v-77c-41.333 0 -62 -11.667 -62 -35c0 -24 20.667 -36 62 -36v-77z" />
    <glyph glyph-name="tilde" unicode="&#x2dc;" horiz-adv-x="436" 
d="M411 726c-20.667 -94 -58.335 -141 -113.002 -141c-20 0 -47.167 6.66699 -81.5 20s-56.166 20 -65.499 20c-21.333 0 -38.333 -14.667 -51 -44l-75 23c21.333 93.333 59 140 113 140c20 0 47.333 -6.5 82 -19.5s56.667 -19.5 66 -19.5c20.667 0 37.334 15 50.001 45z
" />
    <glyph glyph-name="hungarumlaut" unicode="&#x2dd;" horiz-adv-x="495" 
d="M123 577h-98l102 188h164zM302 577h-98l102 188h164z" />
    <glyph glyph-name="Omega" unicode="&#x3a9;" horiz-adv-x="693" 
 />
    <glyph glyph-name="pi" unicode="&#x3c0;" horiz-adv-x="564" 
 />
    <glyph glyph-name="uni0E00" unicode="&#xe00;" horiz-adv-x="195" 
 />
    <glyph glyph-name="uni0E01" unicode="&#xe01;" horiz-adv-x="726" 
d="M646 0h-154v368c0 45.333 -13.167 81.166 -39.5 107.499s-63.5 39.5 -111.5 39.5c-65.333 0 -115 -24 -149 -72c24 -20.667 41.333 -42.667 52 -66v-377h-154v359c-10 28 -29.333 52.667 -58 74v17c16 54 52.333 100.333 109 139c60 40.667 127.333 61 202 61
c92 0 165.5 -24.667 220.5 -74s82.5 -117.666 82.5 -204.999v-371z" />
    <glyph glyph-name="uni0E02" unicode="&#xe02;" horiz-adv-x="676" 
d="M596 219c0 -78.667 -26 -138.667 -78 -180c-45.333 -36 -104.333 -54 -177 -54c-74 0 -134.333 17.667 -181 53c-52.667 41.333 -79 101 -79 179v83c0 28.667 16 64.5 48 107.5s48 70.5 48 82.5c0 16.667 -9 25 -27 25h-104v4l34 119h127c36.667 0 65.5 -10.667 86.5 -32
s31.5 -49.333 31.5 -84c0 -32 -15 -69 -45 -111s-45 -73.667 -45 -95v-81c0 -78 36.333 -117 109 -117c65.333 0 98 39.667 98 119v401h154v-419z" />
    <glyph glyph-name="uni0E03" unicode="&#xe03;" horiz-adv-x="681" 
d="M601 219c0 -78 -26.332 -137.998 -78.999 -179.998c-46 -36 -105.333 -54 -178 -54c-74.667 0 -135.334 17.667 -182.001 53c-53.333 41.333 -80 101 -80 179v83c0 32.667 11.333 64 34 94l84 102v4c-20.667 -13.333 -42 -20 -64 -20c-26 0 -48.5 8.16699 -67.5 24.5
s-28.5 37.166 -28.5 62.499v51l93 28h6v-45c0 -23.333 10.667 -35 32 -35c24 0 36 11.667 36 35v37h126v-116c0 -32.667 -16.167 -72.834 -48.5 -120.501s-48.5 -83.167 -48.5 -106.5v-60c0 -78 37 -117 111 -117c66.667 0 100 39.667 100 119v401h154v-419z" />
    <glyph glyph-name="uni0E04" unicode="&#xe04;" horiz-adv-x="754" 
d="M674 0l-154 0.000976562v362c0 50 -12.333 88.667 -37 116s-60 41 -106 41s-81.333 -13.667 -106 -41s-37 -66 -37 -116v-89h2c29.333 50 71.333 75 126 75h67v-131h-76c-30.667 0 -56 -7.33301 -76 -22s-32 -35.334 -36 -62.001l-19 -133h-142v376
c0 86 28.333 153.667 85 203c54 47.333 124.667 71 212 71s158 -23.667 212 -71c56.667 -49.333 85 -117 85 -203v-376z" />
    <glyph glyph-name="uni0E05" unicode="&#xe05;" horiz-adv-x="759" 
d="M679 0h-153.999v417c0 26 -1 43.333 -3 52c-4 18.667 -13.667 32.667 -29 42c-32.667 -28.667 -70.334 -51.334 -113.001 -68.001c-33.333 12.667 -71 35 -113 67c-15.333 -9.33301 -25.333 -23 -30 -41c-2 -9.33301 -3 -26.666 -3 -51.999v-144h2
c29.333 50 71.333 75 126 75h67v-131h-76c-30.667 0 -56 -7.33301 -76 -22s-32 -35.334 -36 -62.001l-19 -133h-142v409c0 140 66.333 219.333 199 238c26.667 -35.333 60 -63.666 100 -84.999c42 23.333 76.667 51 104 83c68.667 -12 118.5 -37.167 149.5 -75.5
s46.5 -91.833 46.5 -160.5v-409z" />
    <glyph glyph-name="uni0E06" unicode="&#xe06;" horiz-adv-x="752" 
d="M672 255c0 -86 -20.667 -152.498 -62 -199.498s-98 -70.5 -170 -70.5c-50 0 -94.667 11.333 -134 34c-34 19.333 -58.667 43.333 -74 72h-2v-91h-150v291c0 30.667 6.33301 57 19 79c6.66699 12 21.667 30.667 45 56s41.333 49 54 71v3c-20.667 -13.333 -42 -20 -64 -20
c-26 0 -48.5 8.16699 -67.5 24.5s-28.5 37.166 -28.5 62.499v51l93 28h6v-45c0 -23.333 10.667 -35 32 -35c24 0 36 11.667 36 35v37h126v-116c0 -32.667 -16.167 -71.334 -48.5 -116.001s-48.5 -78 -48.5 -100v-23c0 -45.333 14.5 -83 43.5 -113s64.833 -45 107.5 -45
c88.667 0 133 49 133 147v366h154v-383z" />
    <glyph glyph-name="uni0E07" unicode="&#xe07;" horiz-adv-x="650" 
d="M225 -4l-229.999 426.001h163l159 -291c40 10 72 35.667 96 77c23.333 38.667 35 84 35 136c0 55.333 -12.333 99.333 -37 132s-60 49 -106 49h-68v8l27 117h62c84.667 0 152.667 -30 204 -90c48 -56 72 -124.667 72 -206c0 -96.667 -26 -179.334 -78 -248.001
c-56.667 -73.333 -129.334 -110 -218.001 -110h-81z" />
    <glyph glyph-name="uni0E08" unicode="&#xe08;" horiz-adv-x="676" 
d="M245 -4l-110 233h-76v5l28 118h151l101 -215c39.333 16 71.5 44.167 96.5 84.5s37.5 84.5 37.5 132.5c0 50 -16.333 90.667 -49 122c-30.667 29.333 -69 44 -115 44c-75.333 0 -146.333 -34.333 -213 -103l-91 97c84 90.667 186.667 136 308 136
c91.333 0 166 -28.167 224 -84.5s87 -126.833 87 -211.5c0 -83.333 -29.5 -159.833 -88.5 -229.5s-126.833 -112.5 -203.5 -128.5h-87z" />
    <glyph glyph-name="uni0E09" unicode="&#xe09;" horiz-adv-x="746" 
d="M666 0l-152.002 -0.00195312v90h-5c-43.333 -70 -107.333 -105 -192 -105c-65.333 0 -117.333 20 -156 60c-36 36.667 -54 83.334 -54 140.001v50h-68v5l28 118h194v-139c0 -31.333 9.83301 -56.166 29.5 -74.499s45.834 -27.5 78.501 -27.5
c44.667 0 80.667 16.333 108 49c25.333 30.667 38 68.667 38 114v83c0 47.333 -18 86 -54 116c-33.333 27.333 -73.666 41 -120.999 41c-74.667 0 -146.334 -33.667 -215.001 -101l-89 95c84.667 90.667 187.334 136 308.001 136c96 0 173.667 -25.667 233 -77
s89 -119 89 -203v-370z" />
    <glyph glyph-name="uni0E0A" unicode="&#xe0a;" horiz-adv-x="692" 
d="M612 219c0 -78.667 -27 -138.668 -81 -180.001c-48 -36 -110.333 -54 -187 -54c-78 0 -141.333 17.667 -190 53c-56 41.333 -84 101 -84 179v83c0 28.667 14.167 64.5 42.5 107.5s42.5 70.5 42.5 82.5c0 16.667 -9 25 -27 25h-93v4l34 119h116
c37.333 0 66.333 -10.167 87 -30.5s31 -48.833 31 -85.5c0 -34.667 -13.167 -72.5 -39.5 -113.5s-39.5 -71.833 -39.5 -92.5v-81c0 -78 41 -117 123 -117c74 0 111 39.667 111 119v107c0 62 -25.333 93 -76 93h-19v116h25c61.333 0 98.333 42 111 126l144 -44
c-8 -40.667 -26.333 -74 -55 -100c-24.667 -23.333 -54 -37.666 -88 -42.999v-2c74.667 -24 112 -73.667 112 -149v-122z" />
    <glyph glyph-name="uni0E0B" unicode="&#xe0b;" horiz-adv-x="698" 
d="M618 219c0 -78.667 -27.332 -138.666 -81.999 -179.999c-48.667 -36 -111.334 -54 -188.001 -54c-79.333 0 -143 17.667 -191 53c-56 40.667 -84 100.334 -84 179.001v83c0 33.333 10.333 64.666 31 93.999l80 103v3c-20.667 -13.333 -42 -20 -64 -20
c-26 0 -48.5 8.16699 -67.5 24.5s-28.5 37.166 -28.5 62.499v51l93 28h6v-45c0 -23.333 10.667 -35 32 -35c24 0 36 11.667 36 35v37h126v-116c0 -32.667 -15 -72.834 -45 -120.501s-45 -83.167 -45 -106.5v-60c0 -78 41.333 -117 124 -117c75.333 0 113 39.667 113 119v107
c0 62 -25.333 93 -76 93h-16v116h22c61.333 0 98.333 42 111 126l144 -44c-8 -40.667 -26.333 -74 -55 -100c-24.667 -23.333 -54 -37.666 -88 -42.999v-2c74.667 -24 112 -73.667 112 -149v-122z" />
    <glyph glyph-name="uni0E0C" unicode="&#xe0c;" horiz-adv-x="1116" 
d="M1036 255c0 -86 -19 -152.499 -57 -199.499s-90.667 -70.5 -158 -70.5c-44.667 0 -84.667 11.333 -120 34c-30 18.667 -52.667 42.667 -68 72h-2v-91h-147v368c0 45.333 -11.5 81.166 -34.5 107.499s-56.167 39.5 -99.5 39.5c-34 0 -65.667 -7.66699 -95 -23
c-25.333 -13.333 -45 -29.666 -59 -48.999c24 -20.667 41.333 -42.667 52 -66v-260h100v-4l-34 -113h-220v359c-10 28 -29.333 52.667 -58 74v17c16 53.333 53 99.666 111 138.999c61.333 40.667 128.333 61 201 61c89.333 0 160 -24.5 212 -73.5s78 -117.5 78 -205.5v-88
c0 -46 12 -83.833 36 -113.5s54.667 -44.5 92 -44.5c77.333 0 116 49 116 147v366h154v-383z" />
    <glyph glyph-name="uni0E0D" unicode="&#xe0d;" horiz-adv-x="1116" 
d="M1038 -75c-18 -36 -45.667 -64.667 -83 -86c-32.667 -18.667 -65.334 -28 -98.001 -28c-27.333 0 -61.166 8.33301 -101.499 25s-68.5 25 -84.5 25c-33.333 0 -69 -18.333 -107 -55l-80 83c62 58.667 119.667 88 173 88c23.333 0 56.333 -8.16699 99 -24.5
s71.667 -24.5 87 -24.5c43.333 0 77.333 21 102 63zM1036 264c0 -80 -27.667 -141.665 -83 -184.998c-50 -39.333 -114.333 -59 -193 -59s-143 19.667 -193 59c-55.333 43.333 -83 105 -83 185v104c0 45.333 -11.833 81.166 -35.5 107.499s-57.167 39.5 -100.5 39.5
c-62.667 0 -113.334 -24 -152.001 -72c24 -20.667 41.333 -42.667 52 -66v-260h100v-4l-34 -113h-220v359c-10 28 -29.333 52.667 -58 74v17c16 53.333 52.667 99.666 110 138.999c60.667 40.667 127.334 61 200.001 61c89.333 0 160.333 -24.5 213 -73.5
s79 -117.5 79 -205.5v-94c0 -38.667 12 -69 36 -91c22 -20.667 50.667 -31 86 -31c36 0 65.5 10.667 88.5 32s34.5 51.333 34.5 90v361h153v-374z" />
    <glyph glyph-name="uni0E0E" unicode="&#xe0e;" horiz-adv-x="738" 
d="M658 -85c0 -66 -20.999 -119.001 -62.999 -159.001c-37.333 -36 -82.333 -54 -135 -54h-18l-127 83v-75l-118 -52h-7v259h125l127 -81c41.333 0 62 30.333 62 91v441c0 45.333 -12.5 81.166 -37.5 107.499s-60.167 39.5 -105.5 39.5c-68 0 -119 -24 -153 -72
c24 -20.667 41.333 -42.667 52 -66v-377h-210l-34 117h90v242c-10 26.667 -29.333 51.334 -58 74.001v17c16 54 51.667 100.333 107 139c59.333 40.667 126 61 200 61c91.333 0 164.666 -24.667 219.999 -74s83 -117.666 83 -204.999v-456z" />
    <glyph glyph-name="uni0E0F" unicode="&#xe0f;" horiz-adv-x="738" 
d="M658 -76c0 -70.667 -20.668 -126 -62.001 -166c-38 -37.333 -86.667 -56 -146 -56h-40l-87 90c-3.33301 -28 -17.333 -52 -42 -72s-53.667 -30 -87 -30h-79v117h55c39.333 0 59 20.667 59 62v48h126l90 -89c39.333 7.33301 59 38.333 59 93v447
c0 45.333 -12.5 81.166 -37.5 107.499s-60.167 39.5 -105.5 39.5c-32 0 -63 -7.66699 -93 -23c-26 -13.333 -46 -29.666 -60 -48.999c24 -20.667 41.333 -42.667 52 -66v-377h-210l-34 117h90v242c-10 26.667 -29.333 51.334 -58 74.001v17
c16.667 54.667 52.334 101 107.001 139c60 40.667 129 61 207 61c90 0 161.833 -25.333 215.5 -76s80.5 -118.334 80.5 -203.001v-447z" />
    <glyph glyph-name="uni0E10" unicode="&#xe10;" horiz-adv-x="676" 
d="M245 -4l-109.999 232.999h-76v5l28 118h151l101 -215c39.333 16 71.5 44.167 96.5 84.5s37.5 84.5 37.5 132.5c0 50 -16.333 90.667 -49 122c-30.667 29.333 -69 44 -115 44c-75.333 0 -146.333 -34.333 -213 -103l-91 97c84 90.667 186.667 136 308 136
c31.333 -1.33301 61.666 -6.66602 90.999 -15.999c73.333 4 137.333 28.667 192 74l87 -99c-36 -34.667 -82.667 -54.667 -140 -60c54 -52.667 81 -117.667 81 -195c0 -83.333 -29.5 -159.833 -88.5 -229.5s-126.833 -112.5 -203.5 -128.5h-87zM591.001 -122.001
c0 -56.667 -15.998 -101.001 -47.998 -133.001c-28.667 -28 -65.667 -42 -111 -42c-36 0 -67.333 7.83301 -94 23.5s-44.334 36.834 -53.001 63.501c-6.66699 -26 -23.334 -47 -50.001 -63s-56.667 -24 -90 -24h-96v124h67c68.667 0 103 29 103 87h134c0 -62 19 -93 57 -93
c30 0 45 20.667 45 62v31h136v-36z" />
    <glyph glyph-name="uni0E11" unicode="&#xe11;" horiz-adv-x="782" 
d="M702 0l-153.998 0.000976562v366c0 47.333 -10.333 84 -31 110s-49.334 39 -86.001 39c-50.667 0 -91 -16.667 -121 -50c-32 -34.667 -48 -82.334 -48 -143.001v-322h-154v315c0 42 11.333 81 34 117c16 26 35 46.667 57 62v6c-20.667 -13.333 -43.334 -20 -68.001 -20
c-26 0 -48.5 8.16699 -67.5 24.5s-28.5 37.166 -28.5 62.499v51l93 28h6v-45c0 -23.333 10.667 -35 32 -35c24 0 36 11.667 36 35v37h126v-62c42 50 94.333 75 157 75c61.333 0 112 -23 152 -69c43.333 -49.333 65 -115.666 65 -198.999v-383z" />
    <glyph glyph-name="uni0E12" unicode="&#xe12;" horiz-adv-x="1171" 
d="M1091 255c0 -86 -19.832 -152.501 -59.499 -199.501s-93.834 -70.5 -162.501 -70.5c-46 0 -87.333 11.333 -124 34c-32 19.333 -55.667 43.333 -71 72h-2v-91h-147v402c0 56.667 -14 93.334 -42 110.001c-28 -23.333 -61.667 -43.666 -101 -60.999
c-43.333 20 -78.333 41.333 -105 64c-50.667 -23.333 -76 -86.666 -76 -189.999c0 -56.667 15.667 -104 47 -142s71.333 -57 120 -57h79v-6l-37 -124h-66c-92.667 0 -166 32.667 -220 98c-51.333 61.333 -77 139.666 -77 234.999c0 80.667 20.333 150 61 208
c44 62 104.333 100 181 114c30 -32.667 62 -58.334 96 -77.001c32 14.667 69 40.334 111 77.001c122 -36.667 183 -119.334 183 -248.001v-120c0 -45.333 13 -83 39 -113s58 -45 96 -45c82 0 123 49 123 147v366h154v-383z" />
    <glyph glyph-name="uni0E13" unicode="&#xe13;" horiz-adv-x="1116" 
d="M1036 0l-147.001 -0.000976562v91h-2c-15.333 -29.333 -38 -53.333 -68 -72c-35.333 -22.667 -75.333 -34 -120 -34c-64 0 -115.333 18 -154 54c-40.667 38.667 -61 93.667 -61 165v164c0 44.667 -12.333 80.334 -37 107.001s-58.667 40 -102 40
c-65.333 0 -115 -24 -149 -72c24 -20.667 41.333 -42.667 52 -66v-260h100v-4l-35 -113h-219v359c-10 28 -29.333 52.667 -58 74v17c16.667 56 53 103 109 141c58.667 39.333 125.334 59 200.001 59c89.333 0 160.5 -24.5 213.5 -73.5s79.5 -117.5 79.5 -205.5v-119
c0 -84.667 38.667 -127 116 -127c37.333 0 68 14.833 92 44.5s36 67.5 36 113.5v355h154v-638z" />
    <glyph glyph-name="uni0E14" unicode="&#xe14;" horiz-adv-x="758" 
d="M678 0l-154 0.00195312v365c0 46 -13.333 82.5 -40 109.5s-62.334 40.5 -107.001 40.5c-57.333 0 -101.666 -19 -132.999 -57c-28.667 -34.667 -43 -78.334 -43 -131.001c0 -60.667 15.333 -109.334 46 -146.001s70 -55 118 -55h75v-6l-42 -124h-57
c-88 0 -159.667 32.333 -215 97c-52.667 62 -79 138.333 -79 229c0 96 28.333 174 85 234c59.333 62.667 139.333 94 240 94c90 0 163.5 -25.667 220.5 -77s85.5 -120.333 85.5 -207v-366z" />
    <glyph glyph-name="uni0E15" unicode="&#xe15;" horiz-adv-x="767" 
d="M687 0h-153.999v402c0 56.667 -14 93.334 -42 110.001c-25.333 -20.667 -60.333 -41 -105 -61c-49.333 22.667 -85.666 44 -108.999 64c-50.667 -23.333 -76 -86.666 -76 -189.999c0 -56.667 15.667 -104 47 -142s71.333 -57 120 -57h81v-6l-43 -124h-62
c-92.667 0 -166 32.667 -220 98c-51.333 61.333 -77 139.666 -77 234.999c0 80.667 20.333 150 61 208c44 62 104.333 100 181 114c27.333 -29.333 60.666 -55 99.999 -77c37.333 17.333 75.666 43 114.999 77c122 -36.667 183 -119.334 183 -248.001v-403z" />
    <glyph glyph-name="uni0E16" unicode="&#xe16;" horiz-adv-x="734" 
d="M654 0l-154 -0.00195312v368c0 44.667 -13.667 80.334 -41 107.001s-64 40 -110 40c-33.333 0 -64.333 -7 -93 -21c-26 -13.333 -46 -30.333 -60 -51c24 -20.667 41.333 -42.667 52 -66v-260h100v-4l-35 -113h-219v359c-10 28 -29.333 52.667 -58 74v17
c16 54 53 100.333 111 139c61.333 40.667 129.333 61 204 61c90 0 163 -24.667 219 -74s84 -117.666 84 -204.999v-371z" />
    <glyph glyph-name="uni0E17" unicode="&#xe17;" horiz-adv-x="756" 
d="M676 0l-153.999 0.000976562v366c0 46 -10.333 82 -31 108c-22.667 27.333 -54.334 41 -95.001 41c-47.333 0 -85.333 -16.667 -114 -50c-30.667 -34.667 -46 -82.334 -46 -143.001v-322h-154v638h150v-91h2c18.667 28 44 51.333 76 70c38 22.667 80 34 126 34
c72 0 129.667 -23 173 -69c44.667 -48 67 -114.333 67 -199v-383z" />
    <glyph glyph-name="uni0E18" unicode="&#xe18;" horiz-adv-x="721" 
d="M651 175c0 -63.333 -28.668 -111.333 -86.001 -144c-51.333 -30 -120 -45 -206 -45c-88.667 0 -158 15 -208 45c-54 32 -81 80 -81 144v58l145 51h7v-83c0 -34.667 13 -59.334 39 -74.001c21.333 -11.333 54 -17 98 -17c93.333 0 140 25 140 75v79
c0 44.667 -22.667 67 -68 67h-372v112c0 60.667 21.333 108.334 64 143.001s99.334 52 170.001 52h328v-123h-334c-49.333 0 -74 -24 -74 -72h229c63.333 0 113.333 -13.667 150 -41c39.333 -30 59 -74.667 59 -134v-93z" />
    <glyph glyph-name="uni0E19" unicode="&#xe19;" horiz-adv-x="750" 
d="M670 0h-150v91h-2c-15.333 -28.667 -39 -52.667 -71 -72c-38.667 -22.667 -82.667 -34 -132 -34c-73.333 0 -130.333 22 -171 66c-42.667 46 -64 111.667 -64 197v390h154v-373c0 -93.333 45.333 -140 136 -140c42 0 76.833 14.833 104.5 44.5s41.5 67.5 41.5 113.5v355
h154v-638z" />
    <glyph glyph-name="uni0E1A" unicode="&#xe1a;" horiz-adv-x="756" 
d="M676 257c0 -90.667 -28.998 -160 -86.998 -208c-52.667 -42.667 -123 -64 -211 -64s-158.333 21.667 -211 65c-58 47.333 -87 116.333 -87 207v381h154v-370c0 -48.667 13.667 -86 41 -112c25.333 -24 59.666 -36 102.999 -36s78.166 12.5 104.499 37.5
s39.5 61.833 39.5 110.5v370h154v-381z" />
    <glyph glyph-name="uni0E1B" unicode="&#xe1b;" horiz-adv-x="756" 
d="M676 257c0 -90.667 -28.998 -160 -86.998 -208c-52.667 -42.667 -123 -64 -211 -64s-158.333 21.667 -211 65c-58 47.333 -87 116.333 -87 207v381h154v-370c0 -48.667 13.667 -86 41 -112c25.333 -24 59.666 -36 102.999 -36s78.166 12.5 104.499 37.5
s39.5 61.833 39.5 110.5v593l149 66h5v-670z" />
    <glyph glyph-name="uni0E1C" unicode="&#xe1c;" horiz-adv-x="780" 
d="M700 0l-156 -0.000976562l-149 251l-157 -251h-156v497c0 42.667 12.667 76.834 38 102.501s60.333 38.5 105 38.5h87l30 -118v-5h-56c-35.333 0 -53 -18 -53 -54v-169l-4 -100l51 98l111 169h8l107 -171l47 -96l-4 99v347h151v-638z" />
    <glyph glyph-name="uni0E1D" unicode="&#xe1d;" horiz-adv-x="780" 
d="M700 0l-156 -0.000976562l-149 251l-157 -251h-156v497c0 42.667 12.667 76.834 38 102.501s60.333 38.5 105 38.5h87l30 -118v-5h-56c-35.333 0 -53 -18 -53 -54v-169l-4 -100l51 98l111 169h8l107 -171l47 -96l-4 99v572l146 64h5v-927z" />
    <glyph glyph-name="uni0E1E" unicode="&#xe1e;" horiz-adv-x="796" 
d="M648 -3h-150l-73 211l-27 116l-27 -116l-73 -211h-150l-120 641h157l53 -285l10 -144l36 144l72 205h84l72 -205l36 -144l10 144l53 285h157z" />
    <glyph glyph-name="uni0E1F" unicode="&#xe1f;" horiz-adv-x="796" 
d="M648 -3h-150l-73 211l-27 116l-27 -116l-73 -211h-150l-120 641h157l53 -285l10 -144l36 144l72 205h84l72 -205l36 -144l10 144l102 560h157z" />
    <glyph glyph-name="uni0E20" unicode="&#xe20;" horiz-adv-x="738" 
d="M658 0l-154 -0.000976562v368c0 45.333 -12.5 81.166 -37.5 107.499s-60.167 39.5 -105.5 39.5c-32 0 -63 -7.66699 -93 -23c-26 -13.333 -46 -29.666 -60 -48.999c24 -20.667 41.333 -42.667 52 -66v-377h-209l-35 113v4h90v242c-10 26.667 -29.333 51.334 -58 74.001
v17c16.667 54.667 52.667 101 108 139c59.333 40.667 127 61 203 61c91.333 0 164 -24.5 218 -73.5s81 -117.5 81 -205.5v-371z" />
    <glyph glyph-name="uni0E21" unicode="&#xe21;" horiz-adv-x="752" 
d="M672 255c0 -86 -20.501 -152.5 -61.501 -199.5s-97.5 -70.5 -169.5 -70.5c-50 0 -94.333 11.333 -133 34c-34 19.333 -58.667 43.333 -74 72h-2v-91h-150v638h154v-355c0 -45.333 14.333 -83 43 -113s64.334 -45 107.001 -45c88 0 132 49 132 147v366h154v-383z" />
    <glyph glyph-name="uni0E22" unicode="&#xe22;" horiz-adv-x="724" 
d="M644 242c0 -82.667 -27.3301 -146.668 -81.9971 -192.001c-52 -43.333 -123.667 -65 -215 -65c-86 0 -156 17.667 -210 53c-58 38 -87 91 -87 159c0 36.667 9.66699 69 29 97s44.666 46.333 75.999 55v3c-70 23.333 -105 68 -105 134c0 44 18.5 80.333 55.5 109
s83.167 43 138.5 43h86l42 -108v-5h-107c-40.667 0 -61 -19.333 -61 -58c0 -15.333 6.16699 -28.333 18.5 -39s28.166 -16 47.499 -16h118v-118h-108c-23.333 0 -41.833 -7.66699 -55.5 -23s-20.5 -32.666 -20.5 -51.999c0 -32.667 14.667 -58 44 -76
c25.333 -15.333 56.666 -23 93.999 -23c45.333 0 81.333 11 108 33s40 51 40 87v398h154v-396z" />
    <glyph glyph-name="uni0E23" unicode="&#xe23;" horiz-adv-x="622" 
d="M489 459c-54.667 42.667 -114.333 64 -179 64c-75.333 0 -113 -18.333 -113 -55c0 -22 13.333 -39 40 -51c17.333 -8 51.333 -17 102 -27c74.667 -15.333 131.334 -36.333 170.001 -63c52 -36.667 78 -86.667 78 -150c0 -61.333 -29.333 -110 -88 -146
c-50.667 -30.667 -109.667 -46 -177 -46c-119.333 0 -220 40.667 -302 122l89 103c64 -65.333 137 -98 219 -98c70.667 0 106 20.667 106 62c0 22 -14 39.333 -42 52c-16.667 7.33301 -49.334 16.333 -98.001 27c-76.667 16.667 -134 37.334 -172 62.001
c-52.667 34.667 -79 82 -79 142c0 59.333 25 106.666 75 141.999c48 34 110 51 186 51c104.667 0 192.667 -31 264 -93z" />
    <glyph glyph-name="uni0E24" unicode="&#xe24;" horiz-adv-x="734" 
d="M654 -292l-148 -87.002h-6v747c0 44.667 -13.667 80.334 -41 107.001s-64 40 -110 40c-33.333 0 -64.333 -7 -93 -21c-26 -13.333 -46 -30.333 -60 -51c24 -20.667 41.333 -42.667 52 -66v-260h100v-4l-35 -113h-219v359c-10 28 -29.333 52.667 -58 74v17
c16 54 53 100.333 111 139c61.333 40.667 129.333 61 204 61c90 0 163 -24.667 219 -74s84 -117.666 84 -204.999v-663z" />
    <glyph glyph-name="uni0E25" unicode="&#xe25;" horiz-adv-x="730" 
d="M650 0l-154.002 0.000976562v236c-44.667 38 -101 57 -169 57c-38.667 0 -69.667 -8.16699 -93 -24.5s-35 -38.833 -35 -67.5c0 -26 8.83301 -47 26.5 -63s38.834 -24 63.501 -24c32.667 0 62.334 9.66699 89.001 29l64 -106c-39.333 -34.667 -91.333 -52 -156 -52
c-72 0 -130.167 19.333 -174.5 58s-66.5 91 -66.5 157c0 69.333 27.333 124.333 82 165c47.333 34.667 102.666 52 165.999 52c81.333 0 148.666 -18.667 201.999 -56v44c0 35.333 -13.667 63.166 -41 83.499s-62.333 30.5 -105 30.5c-77.333 0 -142.666 -29 -195.999 -87
l-103 87c76.667 87.333 178.334 131 305.001 131c82 0 150.667 -21 206 -63c59.333 -44.667 89 -103.667 89 -177v-410z" />
    <glyph glyph-name="uni0E26" unicode="&#xe26;" horiz-adv-x="738" 
d="M658 -292l-148 -87.001h-6v747c0 45.333 -12.5 81.166 -37.5 107.499s-60.167 39.5 -105.5 39.5c-32 0 -63 -7.66699 -93 -23c-26 -13.333 -46 -29.666 -60 -48.999c24 -20.667 41.333 -42.667 52 -66v-377h-209l-35 113v4h90v242c-10 26.667 -29.333 51.334 -58 74.001
v17c16.667 54.667 52.667 101 108 139c59.333 40.667 127 61 203 61c91.333 0 164 -24.5 218 -73.5s81 -117.5 81 -205.5v-663z" />
    <glyph glyph-name="uni0E27" unicode="&#xe27;" horiz-adv-x="635" 
d="M128 206c46.667 -57.333 99.3311 -86 157.998 -86c44 0 79.667 18.833 107 56.5s41 85.834 41 144.501s-14.167 105.667 -42.5 141s-67.5 53 -117.5 53c-58 0 -116 -28 -174 -84l-95 97c80 81.333 172.333 122 277 122c94.667 0 169.334 -30.167 224.001 -90.5
s82 -139.833 82 -238.5c0 -104.667 -27.167 -186.834 -81.5 -246.501s-126.166 -89.5 -215.499 -89.5c-104.667 0 -190.667 38.667 -258 116z" />
    <glyph glyph-name="uni0E28" unicode="&#xe28;" horiz-adv-x="758" 
d="M674 0l-153.999 0.000976562v362c0 50 -12.333 88.667 -37 116s-60 41 -106 41s-81.333 -13.667 -106 -41s-37 -66 -37 -116v-89h2c29.333 50 71.333 75 126 75h67v-131h-76c-30.667 0 -56 -7.33301 -76 -22s-32 -35.334 -36 -62.001l-19 -133h-142v376
c0 86 28.333 153.667 85 203c54 47.333 124.667 71 212 71c33.333 0 61.333 -5.66699 84 -17c41.333 3.33301 75 9.66602 101 18.999c31.333 10.667 63.666 29.334 96.999 56.001l87 -99c-16.667 -16.667 -39.5 -30.5 -68.5 -41.5s-57.167 -17.167 -84.5 -18.5
c54 -43.333 81 -101 81 -173v-376z" />
    <glyph glyph-name="uni0E29" unicode="&#xe29;" horiz-adv-x="772" 
d="M769 312h-85.001v-55c0 -90.667 -29.667 -160 -89 -208c-53.333 -42.667 -124.333 -64 -213 -64c-89.333 0 -160.666 21.667 -213.999 65c-58.667 47.333 -88 116.333 -88 207v381h154v-370c0 -48.667 14.333 -86 43 -112c26 -24 61 -36 105 -36s79.667 12.5 107 37.5
s41 61.833 41 110.5v44h-150v4l33 125h117v197h154v-197h85v-129z" />
    <glyph glyph-name="uni0E2A" unicode="&#xe2a;" horiz-adv-x="734" 
d="M650 0l-154.004 0.000976562v236c-44.667 38 -101 57 -169 57c-38.667 0 -69.667 -8.16699 -93 -24.5s-35 -38.833 -35 -67.5c0 -26 8.83301 -47 26.5 -63s38.834 -24 63.501 -24c32.667 0 62.334 9.66699 89.001 29l64 -106c-39.333 -34.667 -91.333 -52 -156 -52
c-72 0 -130.167 19.333 -174.5 58s-66.5 91 -66.5 157c0 69.333 27.333 124.333 82 165c47.333 34.667 102.666 52 165.999 52c81.333 0 148.666 -18.667 201.999 -56v44c0 35.333 -13.667 63.166 -41 83.499s-62.333 30.5 -105 30.5c-77.333 0 -142.666 -29 -195.999 -87
l-103 87c76.667 87.333 178.334 131 305.001 131c32.667 0 63.334 -5.66699 92.001 -17c38.667 3.33301 70.334 9.66602 95.001 18.999c29.333 10.667 61 29.334 95 56.001l87 -99c-35.333 -34 -81 -53.333 -137 -58c16.667 -13.333 31 -33.333 43 -60
c13.333 -30 20 -62 20 -96v-395z" />
    <glyph glyph-name="uni0E2B" unicode="&#xe2b;" horiz-adv-x="749" 
d="M669 0h-154v268c0 75.333 -35.333 123.333 -106 144c-116.667 -77.333 -175 -186.333 -175 -327v-85h-154v638h154v-246c93.333 128 221.333 218.333 384 271l62 -115c-58.667 -14 -111 -35 -157 -63c40 -12.667 74.333 -39 103 -79s43 -82 43 -126v-280z" />
    <glyph glyph-name="uni0E2C" unicode="&#xe2c;" horiz-adv-x="782" 
d="M702 0h-156l-155 251l-155 -251h-156v638h151v-346l-4 -100l38 76l124 183h8l119 -183l39 -76l-4 99v127c0 34.667 -8 60.667 -24 78s-36 26 -60 26h-26v116h32c26.667 0 50.667 11.333 72 34c24 26 39.667 61.667 47 107l144 -44c-8 -42 -25.5 -77.333 -52.5 -106
s-57.167 -46 -90.5 -52v-2c33.333 -7.33301 59.833 -25.333 79.5 -54s29.5 -62.667 29.5 -102v-419z" />
    <glyph glyph-name="uni0E2D" unicode="&#xe2d;" horiz-adv-x="718" 
d="M307 252l-106.999 0.000976562v-10c0 -36 14 -64.667 42 -86s62.667 -32 104 -32c55.333 0 97.333 19 126 57c26.667 35.333 40 84 40 146c0 59.333 -15.333 105.5 -46 138.5s-71.334 49.5 -122.001 49.5c-78 0 -150 -29.667 -216 -89l-86 107c86 78 187.667 117 305 117
c94.667 0 171.5 -29.5 230.5 -88.5s88.5 -135.167 88.5 -228.5c0 -108.667 -27.667 -193.334 -83 -254.001s-134.333 -91 -237 -91c-86.667 0 -158 24.333 -214 73s-84 113 -84 193v115h259v-117z" />
    <glyph glyph-name="uni0E2E" unicode="&#xe2e;" horiz-adv-x="718" 
d="M716 609c-36.667 -35.333 -83.666 -55.333 -140.999 -60c60.667 -60.667 91 -136 91 -226c0 -104 -27.333 -185.667 -82 -245c-56.667 -60 -136 -90 -238 -90c-86.667 0 -158 24.333 -214 73s-84 113 -84 193v115h259v-117h-107v-10c0 -36 14 -64.667 42 -86
s62.667 -32 104 -32c55.333 0 97.333 19 126 57c26.667 35.333 40 84 40 146c0 59.333 -15.333 105.5 -46 138.5s-71.334 49.5 -122.001 49.5c-78 0 -150 -29.667 -216 -89l-86 107c86.667 78 186.667 117 300 117c34 0 65.333 -5.66699 94 -17
c72 5.33301 136.333 30.333 193 75z" />
    <glyph glyph-name="uni0E2F" unicode="&#xe2f;" horiz-adv-x="587" 
d="M507 0l-153.999 -0.000976562v432h-3c-28 -45.333 -71.333 -68 -130 -68c-48.667 0 -88.334 15.667 -119.001 47c-34.667 34.667 -52 83.667 -52 147v82h154v-66c0 -54 23.667 -81 71 -81c20 0 37.333 5.66699 52 17c18 14.667 27 35.334 27 62.001v78h5l149 -53v-597z
" />
    <glyph glyph-name="uni0E30" unicode="&#xe30;" horiz-adv-x="355" 
d="M294 369h-147.001c-35.333 0 -63.666 10.333 -84.999 31s-32 46 -32 76v60h122v-24c0 -24 13.333 -36 40 -36h133v-4zM293.999 80h-147.001c-35.333 0 -63.666 10.333 -84.999 31s-32 46 -32 76v60h122v-24c0 -24 13.333 -36 40 -36h133v-4z" />
    <glyph glyph-name="uni0E31" unicode="&#xe31;" 
d="M55 739h-276c-45.333 0 -81.333 11 -108 33s-40 52.667 -40 92v56h132v-25c0 -29.333 15.667 -44 47 -44h294v-7z" />
    <glyph glyph-name="uni0E32" unicode="&#xe32;" horiz-adv-x="594" 
d="M514 0h-154v398c0 39.333 -10.333 69.333 -31 90s-47.667 31 -81 31c-54.667 0 -109 -32.333 -163 -97l-85 101c72 84.667 158.667 127 260 127c79.333 0 141.5 -22.333 186.5 -67s67.5 -107 67.5 -187v-396z" />
    <glyph glyph-name="uni0E33" unicode="&#xe33;" horiz-adv-x="594" 
d="M514 0h-154v398c0 39.333 -10.333 69.333 -31 90s-47.667 31 -81 31c-54.667 0 -109 -32.333 -163 -97l-85 101c72 84.667 158.667 127 260 127c79.333 0 141.5 -22.333 186.5 -67s67.5 -107 67.5 -187v-396zM-196 789c21.333 0 32 11.333 32 34s-10.667 34 -32 34
s-32 -11.333 -32 -34s10.667 -34 32 -34zM-76 823c0 -32.667 -11.833 -60.834 -35.5 -84.501s-51.834 -35.5 -84.501 -35.5c-33.333 0 -61.666 11.833 -84.999 35.5s-35 51.834 -35 84.501c0 33.333 11.667 61.666 35 84.999s51.666 35 84.999 35
c32.667 0 60.834 -11.667 84.501 -35s35.5 -51.666 35.5 -84.999z" />
    <glyph glyph-name="uni0E34" unicode="&#xe34;" 
d="M-80 739h-537v7l83 107h454v-114z" />
    <glyph glyph-name="uni0E35" unicode="&#xe35;" 
d="M-80 739h-537v7l83 107h322v51l120 46h12v-211z" />
    <glyph glyph-name="uni0E36" unicode="&#xe36;" 
d="M-275 853c3.33301 25.333 15.333 46.834 36 64.501s44.667 26.5 72 26.5c29.333 0 54.333 -10.167 75 -30.5s31 -44.5 31 -72.5c0 -28.667 -10.333 -52.834 -31 -72.501s-45.667 -29.5 -75 -29.5h-450v7l83 107h259zM-167 810.001c7.33301 0 13.833 3.16699 19.5 9.5
s8.5 13.5 8.5 21.5s-2.83301 15.167 -8.5 21.5s-12.167 9.5 -19.5 9.5s-13.833 -3.16699 -19.5 -9.5s-8.5 -13.5 -8.5 -21.5s2.83301 -15.167 8.5 -21.5s12.167 -9.5 19.5 -9.5z" />
    <glyph glyph-name="uni0E37" unicode="&#xe37;" 
d="M-80 739h-537v7l83 107h194v56l98 41h4v-104h56v63l98 41h4v-211z" />
    <glyph glyph-name="uni0E38" unicode="&#xe38;" 
d="M-80 -260l-117 -77h-7v141h-63v5l25 95h162v-164z" />
    <glyph glyph-name="uni0E39" unicode="&#xe39;" 
d="M-80 -183c0 -46 -28 -83.667 -84 -113c-50 -26 -107.333 -39 -172 -39h-89v140h-63v5l25 94h150v-144c24 0 47.333 4.66699 70 14c28.667 12 43 28.667 43 50v80h120v-87z" />
    <glyph glyph-name="uni0E3A" unicode="&#xe3a;" 
d="M-65 -184c0 -23.333 -8.5 -43.166 -25.5 -59.499s-37.833 -24.5 -62.5 -24.5s-45.667 8.16699 -63 24.5s-26 36.166 -26 59.499c0 22.667 8.66699 42.167 26 58.5s38.333 24.5 63 24.5s45.5 -8 62.5 -24s25.5 -35.667 25.5 -59z" />
    <glyph glyph-name="uni0E3F" unicode="&#xe3f;" horiz-adv-x="697" 
d="M388 -104l-89.001 -0.00195312v104h-219v699h219v72h89v-72c62 -2 112.667 -16.667 152 -44c47.333 -33.333 71 -80.333 71 -141c0 -33.333 -10.167 -64.166 -30.5 -92.499s-43.833 -47.166 -70.5 -56.499v-1c90 -25.333 135 -83.333 135 -174
c0 -54.667 -18.333 -98.667 -55 -132c-41.333 -38.667 -102.666 -58 -183.999 -58h-18v-104zM415.999 138.998c27.333 0 47.667 7.99902 61 23.999c10 12.667 15 27.667 15 45c0 48.667 -34.667 74.334 -104 77.001v-146h28zM299 138.997v146h-70v-146h70zM299 420.997v139
h-70v-139h70zM388 422.997c47.333 8.66699 71 32.666 71 71.999c0 40.667 -23.667 62.334 -71 65.001v-137z" />
    <glyph glyph-name="uni0E40" unicode="&#xe40;" horiz-adv-x="336" 
d="M279 0h-189v638h154v-517h80v-4z" />
    <glyph glyph-name="uni0E41" unicode="&#xe41;" horiz-adv-x="633" 
d="M279 0h-189v638h154v-517h80v-4zM576 0h-189v638h154v-517h80v-4z" />
    <glyph glyph-name="uni0E42" unicode="&#xe42;" horiz-adv-x="352" 
d="M288 0l-188.998 0.00195312v691c0 51.333 -18.667 97.666 -56 138.999c-33.333 36.667 -74 63 -122 79c22 39.333 56.667 71.333 104 96c52 27.333 111.667 41 179 41c78 0 157.333 -21 238 -63l-59 -116c-60.667 36.667 -117.334 55 -170.001 55
c-38.667 0 -68 -5 -88 -15c35.333 -19.333 64.666 -45.333 87.999 -78c26.667 -38.667 40 -80.334 40 -125.001v-583h80v-4z" />
    <glyph glyph-name="uni0E43" unicode="&#xe43;" horiz-adv-x="360" 
d="M296 0l-189.002 0.00292969v592c0 36 10.333 71 31 105l58 79c20.667 29.333 31 56.333 31 81c0 36.667 -19 55 -57 55c-20 0 -42.667 -8.83301 -68 -26.5s-46 -39.834 -62 -66.501l-104 96c24.667 36.667 56.334 66.667 95.001 90c44.667 27.333 92.667 41 144 41
c58.667 0 107.334 -17.333 146.001 -52s58 -75.334 58 -122.001c0 -37.333 -19.667 -84.333 -59 -141s-59 -105.334 -59 -146.001v-464h80v-4z" />
    <glyph glyph-name="uni0E44" unicode="&#xe44;" horiz-adv-x="355" 
d="M291 0h-189.001v675c0 102.667 31.667 181.667 95 237c-11.333 4.66699 -22.666 7 -33.999 7c-16.667 0 -41.167 -8.33301 -73.5 -25s-59.166 -25 -80.499 -25c-63.333 0 -112 23 -146 69l72 107c32 -28.667 70 -43 114 -43c16.667 0 40.334 5.66699 71.001 17
s58.667 17 84 17c51.333 0 105.666 -16.667 162.999 -50v-57c-34.667 -16.667 -61.834 -43.5 -81.501 -80.5s-29.5 -77.167 -29.5 -120.5v-607h80v-4z" />
    <glyph glyph-name="uni0E45" unicode="&#xe45;" horiz-adv-x="594" 
d="M514 -292l-148 -87h-6v777c0 39.333 -10.333 69.333 -31 90s-47.667 31 -81 31c-57.333 0 -111.333 -33 -162 -99l-86 103c72 84.667 158.667 127 260 127c79.333 0 141.5 -22.333 186.5 -67s67.5 -107 67.5 -187v-688z" />
    <glyph glyph-name="uni0E46" unicode="&#xe46;" horiz-adv-x="624" 
d="M542 -136l-147.999 -87h-6v597c0 24.667 -6 41.667 -18 51c-14.667 -12 -41 -26.333 -79 -43c-42.667 16.667 -71.334 31.667 -86.001 45c-17.333 -2 -26 -17.667 -26 -47c0 -14 3.66699 -26.167 11 -36.5s15.666 -15.5 24.999 -15.5c12.667 0 26.334 3.66699 41.001 11
l38 -79c-25.333 -24 -60.333 -36 -105 -36c-35.333 0 -66.333 13.833 -93 41.5s-40 60.834 -40 99.501c0 44.667 14.333 81.667 43 111s67.667 47.333 117 54c18 -22 44 -41.333 78 -58c36.667 18 62.334 37 77.001 57c55.333 -5.33301 97.666 -23.333 126.999 -54
s44 -71.334 44 -122.001v-489z" />
    <glyph glyph-name="uni0E47" unicode="&#xe47;" 
d="M-168 736h-127c-29.333 0 -53.333 15.333 -72 46c-29.333 -9.33301 -53.333 -25.333 -72 -48c-38 0 -70.333 12.833 -97 38.5s-40 56.167 -40 91.5c0 34.667 12 64.667 36 90s55.333 38 94 38h278v-87h-264c-22 0 -33 -13 -33 -39c0 -20.667 7.33301 -35.667 22 -45
c26 19.333 56.333 33.333 91 42h21c8 -22.667 20.667 -34 38 -34h125v-93z" />
    <glyph glyph-name="uni0E48" unicode="&#xe48;" 
d="M-89 986l-105 -40h-10v191h115v-151z" />
    <glyph glyph-name="uni0E49" unicode="&#xe49;" 
d="M7 972l-321 -0.000976562v6l48 60c8 10 12 18.333 12 25c0 10.667 -5 16 -15 16h-40v62l79 20c26 0 48.167 -6.16699 66.5 -18.5s27.5 -27.166 27.5 -44.499c0 -11.333 -4.66699 -22.333 -14 -33h197v-7z" />
    <glyph glyph-name="uni0E4A" unicode="&#xe4a;" 
d="M130 1159c-5.33301 -52.667 -24.667 -96.999 -58 -132.999s-74.666 -54 -123.999 -54h-68v6c17.333 8 26 20.667 26 38c0 18 -6.66699 29.667 -20 35c-14 -8 -35.333 -21 -64 -39c-22 7.33301 -43 18 -63 32c-8.66699 -4 -13 -13 -13 -27c0 -22 12.667 -35 38 -39v-6h-71
c-18.667 0 -34.334 8.33301 -47.001 25s-19 34 -19 52c0 27.333 11.333 49.666 34 66.999c19.333 14.667 44.666 23.667 75.999 27c25.333 -29.333 47 -49.666 65 -60.999c22.667 16 42.334 36.333 59.001 61c28 -0.666992 52.167 -8.33398 72.5 -23.001
s30.5 -33.667 30.5 -57c0 -13.333 -5 -27.666 -15 -42.999c38 21.333 57 67.666 57 138.999h104z" />
    <glyph glyph-name="uni0E4B" unicode="&#xe4b;" 
d="M-21 1034l-79 5l4 -67h-106l4 65l-79 -3v81l79 -5l-4 67h106l-4 -67l79 4v-80z" />
    <glyph glyph-name="uni0E4C" unicode="&#xe4c;" 
d="M-27 983h-116c-22.667 0 -34 -11 -34 -33v-23h-117v47c0 34 11.5 60.667 34.5 80s51.833 29 86.5 29h95l51 -94v-6z" />
    <glyph glyph-name="uni0E4D" unicode="&#xe4d;" 
d="M-196 789c21.333 0 32 11.333 32 34s-10.667 34 -32 34s-32 -11.333 -32 -34s10.667 -34 32 -34zM-76 823c0 -32.667 -11.833 -60.834 -35.5 -84.501s-51.834 -35.5 -84.501 -35.5c-33.333 0 -61.666 11.833 -84.999 35.5s-35 51.834 -35 84.501
c0 33.333 11.667 61.666 35 84.999s51.666 35 84.999 35c32.667 0 60.834 -11.667 84.501 -35s35.5 -51.666 35.5 -84.999z" />
    <glyph glyph-name="uni0E4E" unicode="&#xe4e;" horiz-adv-x="830" 
d="M680 217c0 -35.333 -12.333 -59.333 -37 -72l-203 -104v239c0 18.667 6 31 18 37l145 74c9.33301 4.66699 19 7 29 7c32 0 48 -18 48 -54v-127zM414 28l-264 135v260c0 24.667 9.66699 42 29 52l164 84c24.667 12.667 47.667 19 69 19c22 0 47 -7 75 -21l115 -57
c16 -8 24 -20 24 -36c0 -18.667 -11 -33.667 -33 -45l-148 -75c-20.667 -10.667 -31 -31 -31 -61v-255z" />
    <glyph glyph-name="uni0E4F" unicode="&#xe4f;" horiz-adv-x="588" 
d="M528 235c0 -64.667 -23 -120 -69 -166s-101 -69 -165 -69s-119 23 -165 69s-69 101.333 -69 166s23 119.834 69 165.501s101 68.5 165 68.5s119 -22.833 165 -68.5s69 -100.834 69 -165.501zM294 45c52.667 0 97.334 18.5 134.001 55.5s55 81.833 55 134.5
c0 52 -18.333 96.5 -55 133.5s-81.334 55.5 -134.001 55.5s-97.334 -18.5 -134.001 -55.5s-55 -81.5 -55 -133.5c0 -52.667 18.333 -97.5 55 -134.5s81.334 -55.5 134.001 -55.5zM431 235c0 -38 -13.5 -70.5 -40.5 -97.5s-59.167 -40.5 -96.5 -40.5
c-38 0 -70.5 13.5 -97.5 40.5s-40.5 59.167 -40.5 96.5c0 38 13.5 70.5 40.5 97.5s59.167 40.5 96.5 40.5c38 0 70.5 -13.5 97.5 -40.5s40.5 -59.167 40.5 -96.5z" />
    <glyph glyph-name="uni0E50" unicode="&#xe50;" horiz-adv-x="706" 
d="M652 266c0 -82.667 -28.6689 -150.167 -86.002 -202.5s-128.666 -78.5 -213.999 -78.5c-84 0 -154.667 26.333 -212 79s-86 120 -86 202c0 81.333 28.667 148.5 86 201.5s128 79.5 212 79.5c84.667 0 155.834 -26.5 213.501 -79.5s86.5 -120.167 86.5 -201.5z
M351.998 105c46.667 0 84.834 15 114.501 45s44.5 69 44.5 117c0 47.333 -14.833 85.833 -44.5 115.5s-67.834 44.5 -114.501 44.5c-46 0 -83.667 -14.833 -113 -44.5s-44 -68.167 -44 -115.5c0 -48 14.667 -87 44 -117s67 -45 113 -45z" />
    <glyph glyph-name="uni0E51" unicode="&#xe51;" horiz-adv-x="683" 
d="M251 -49l-40.001 111.001v7h77c58.667 0 106.667 17.333 144 52s56 81 56 139c0 52.667 -13.833 93.667 -41.5 123s-66.167 44 -115.5 44c-40.667 0 -74.5 -10.5 -101.5 -31.5s-40.5 -47.5 -40.5 -79.5c0 -54 29 -81 87 -81h22l55 55h15l56 -79l-96 -90h-59
c-57.333 0 -105.666 14 -144.999 42c-49.333 34 -74 84.667 -74 152c0 64.667 25.5 119.5 76.5 164.5s118.5 67.5 202.5 67.5c93.333 0 166.666 -26 219.999 -78s80 -122.667 80 -212c0 -86.667 -29.667 -159.334 -89 -218.001s-132.666 -88 -219.999 -88h-69z" />
    <glyph glyph-name="uni0E52" unicode="&#xe52;" horiz-adv-x="759" 
d="M692 204c0 -62.667 -21.6689 -113 -65.002 -151c-40 -35.333 -89.667 -53 -149 -53h-151c-79.333 -0 -141.666 21.833 -186.999 65.5s-68 106.5 -68 188.5v395l132 81h7v-475c0 -44 10.667 -77.5 32 -100.5s49.333 -34.5 84 -34.5h146c24 0 43.333 8.16699 58 24.5
s22 39.166 22 68.499v184c0 18.667 -6 31.334 -18 38.001c-20.667 -20 -44 -34.667 -70 -44c-34 14.667 -59.333 29 -76 43c-16 -10 -24 -28 -24 -54c0 -15.333 5.5 -28.666 16.5 -39.999s22.833 -17 35.5 -17h45v-105h-56c-43.333 0 -80 12.333 -110 37
c-34.667 29.333 -52 70.333 -52 123c0 44 11 81 33 111c24 33.333 59 52.666 105 57.999c30.667 -30.667 58.334 -52.667 83.001 -66c28.667 18 54 40 76 66c48 -2.66699 85.667 -19 113 -49c25.333 -28.667 38 -64.667 38 -108v-186z" />
    <glyph glyph-name="uni0E53" unicode="&#xe53;" horiz-adv-x="717" 
d="M647 0l-137 -0.000976562v332c0 52 -14.333 82 -43 90c-30 -12.667 -45 -37.667 -45 -75v-156h-127v156c0 38 -14 63 -42 75c-34 -10 -51 -40 -51 -90v-131c0 -56.667 27 -85 81 -85h60v-7l-37 -113h-53c-52.667 0 -95.667 14 -129 42c-39.333 33.333 -59 81.333 -59 144
v156c0 110.667 63 178.334 189 203.001c38 -15.333 73 -40.666 105 -75.999c34.667 37.333 69 62.666 103 75.999c123.333 -24 185 -91.667 185 -203v-338z" />
    <glyph glyph-name="uni0E54" unicode="&#xe54;" horiz-adv-x="673" 
d="M640 0h-111.998c-62 -0 -108.333 18.333 -139 55l-87 -69c-72 14.667 -130.667 46 -176 94c-49.333 52 -74 114.333 -74 187c0 87.333 25 154.5 75 201.5s120.333 70.5 211 70.5h111c48.667 0 73 23.667 73 71v59h6l126 -84v-4c0 -49.333 -18.833 -88.666 -56.5 -117.999
s-85.834 -44 -144.501 -44h-111c-48 0 -84.833 -13 -110.5 -39s-38.5 -61.333 -38.5 -106c0 -76 30.333 -126.667 91 -152l66 51c2 47.333 17 86.666 45 117.999c31.333 34 73 51 125 51h73v-111h-52c-18.667 0 -33.834 -5.16699 -45.501 -15.5s-17.5 -23.833 -17.5 -40.5
c0 -17.333 6 -31.333 18 -42s27.667 -16 47 -16h97v-117z" />
    <glyph glyph-name="uni0E55" unicode="&#xe55;" horiz-adv-x="678" 
d="M645 0h-111.997c-62 -0 -108.333 18.333 -139 55l-92 -69c-72.667 14.667 -131.334 45.334 -176.001 92.001c-49.333 50.667 -74 112 -74 184c0 117.333 44 198.666 132 243.999c-2 8 -3 17 -3 27c0 31.333 11 57.666 33 78.999s49 32 81 32
c30.667 0 57 -10.167 79 -30.5s33.667 -45.166 35 -74.499h45c48.667 0 73 23.667 73 71v59h6l126 -83v-5c0 -49.333 -18.833 -88.666 -56.5 -117.999s-85.834 -44 -144.501 -44h-116c-48 0 -84.833 -13 -110.5 -39s-38.5 -61.333 -38.5 -106c0 -76 30.333 -126.667 91 -152
l71 51c2 47.333 17 86.666 45 117.999c31.333 34 73 51 125 51h73v-111h-52c-18.667 0 -33.834 -5.16699 -45.501 -15.5s-17.5 -23.833 -17.5 -40.5c0 -17.333 6 -31.333 18 -42s27.667 -16 47 -16h97v-117zM295.003 499c21.333 0 32 11.333 32 34s-10.667 34 -32 34
c-22.667 0 -34 -11.333 -34 -34s11.333 -34 34 -34z" />
    <glyph glyph-name="uni0E56" unicode="&#xe56;" horiz-adv-x="648" 
d="M187 229c0 -38.667 11.667 -68.999 35 -90.999s55.666 -33 96.999 -33s74.333 14.833 99 44.5s37 70.167 37 121.5c0 47.333 -15 85.666 -45 114.999c-26.667 25.333 -58.667 39 -96 41l-166 -82l-75 35l-68 252l110 79h8l61 -228l118 64h15
c78.667 0 144.334 -24 197.001 -72c54.667 -51.333 82 -118.333 82 -201c0 -93.333 -25 -164.833 -75 -214.5s-118 -74.5 -204 -74.5c-80 0 -144.333 22.333 -193 67c-46 42 -69 94.667 -69 158v6l114 63h18v-50z" />
    <glyph glyph-name="uni0E57" unicode="&#xe57;" horiz-adv-x="907" 
d="M837 239c0 -86 -25.332 -150.999 -75.999 -194.999c-43.333 -38 -100.333 -57 -171 -57c-48.667 0 -101.334 9 -158.001 27l-25 91c57.333 15.333 86 54.666 86 117.999v109c0 52.667 -13 82.667 -39 90c-30 -12.667 -45 -37.667 -45 -75v-156h-119v156
c0 38.667 -13.667 63.667 -41 75c-31.333 -9.33301 -47 -39.333 -47 -90v-131c0 -56.667 27 -85 81 -85h64v-7l-43 -113h-51c-52.667 0 -95.667 14 -129 42c-39.333 33.333 -59 81.333 -59 144v156c0 111.333 61.667 179 185 203c32.667 -13.333 66 -38.666 100 -75.999
c36 38.667 69 64 99 76c120.667 -23.333 181 -91 181 -203v-111c0 -32 -8.33301 -60.167 -25 -84.5s-38 -41.5 -64 -51.5c9.33301 -5.33301 20.333 -8 33 -8c36 0 65.833 13.167 89.5 39.5s35.5 65.166 35.5 116.499v317l131 87h7v-404z" />
    <glyph glyph-name="uni0E58" unicode="&#xe58;" horiz-adv-x="718" 
d="M526 0l-52 -0.00195312c-28.667 0 -53.667 9.33301 -75 28c-19.333 16 -33.333 36.667 -42 62l-68 -104c-73.333 14 -130.666 45 -171.999 93c-43.333 50 -65 113.667 -65 191c0 86.667 24.833 153.167 74.5 199.5s120.167 69.5 211.5 69.5h111c48.667 0 73 23.667 73 71
v59h6l126 -79v-9c0 -49.333 -18.833 -88.666 -56.5 -117.999s-85.834 -44 -144.501 -44h-111c-48 0 -84.833 -13.167 -110.5 -39.5s-38.5 -62.833 -38.5 -109.5c0 -66.667 19.333 -112 58 -136l67 100h95c0 -67.333 17 -105.666 51 -114.999l30 23
c15.333 12 23 25.667 23 41v98h136v-105c0 -46.667 -15.667 -83 -47 -109z" />
    <glyph glyph-name="uni0E59" unicode="&#xe59;" horiz-adv-x="682" 
d="M651 -4l-61.001 -0.000976562c-64.667 0 -110 30.667 -136 92l-132 314c-19.333 16 -37.666 24 -54.999 24c-21.333 0 -39.333 -10.667 -54 -32s-22 -51 -22 -89v-68c0 -78.667 33.333 -118 100 -118h77v-8l-59 -111h-23c-68.667 0 -124 18.333 -166 55
c-45.333 40 -68 96.667 -68 170v85c0 78 19.667 137.667 59 179c36 38 84.667 57 146 57c32.667 0 66 -8 100 -24c32 -15.333 58.333 -34.666 79 -57.999l28 -79c0 24.667 14.833 58 44.5 100s44.5 84.667 44.5 128v40h6l118 -74v-21c0 -36.667 -12.667 -72 -38 -106
l-71 -83c-25.333 -34 -38 -70.333 -38 -109c0 -18 4 -36.333 12 -55l30 -69c8.66699 -19.333 35 -29 79 -29v-111z" />
    <glyph glyph-name="uni0E5B" unicode="&#xe5b;" horiz-adv-x="830" 
d="M680 217c0 -35.333 -12.333 -59.333 -37 -72l-203 -104v239c0 18.667 6 31 18 37l145 74c9.33301 4.66699 19 7 29 7c32 0 48 -18 48 -54v-127zM414 28l-264 135v260c0 24.667 9.66699 42 29 52l164 84c24.667 12.667 47.667 19 69 19c22 0 47 -7 75 -21l115 -57
c16 -8 24 -20 24 -36c0 -18.667 -11 -33.667 -33 -45l-148 -75c-20.667 -10.667 -31 -31 -31 -61v-255z" />
    <glyph glyph-name="endash" unicode="&#x2013;" horiz-adv-x="540" 
d="M520 319h-500v133h500v-133z" />
    <glyph glyph-name="emdash" unicode="&#x2014;" horiz-adv-x="887" 
d="M867 321h-847v129h847v-129z" />
    <glyph glyph-name="quoteleft" unicode="&#x2018;" horiz-adv-x="242" 
d="M222 437h-94l-108 321h170z" />
    <glyph glyph-name="quoteright" unicode="&#x2019;" horiz-adv-x="242" 
d="M115 437h-95l33 321h169z" />
    <glyph glyph-name="quotesinglbase" unicode="&#x201a;" horiz-adv-x="239" 
d="M112 -149h-92l33 321h166z" />
    <glyph glyph-name="quotedblleft" unicode="&#x201c;" horiz-adv-x="461" 
d="M441 437h-92l-107 321h166zM219 437h-91l-108 321h167z" />
    <glyph glyph-name="quotedblright" unicode="&#x201d;" horiz-adv-x="461" 
d="M112 437h-92l33 321h166zM333 437h-91l32 321h167z" />
    <glyph glyph-name="quotedblbase" unicode="&#x201e;" horiz-adv-x="461" 
d="M112 -149h-92l33 321h166zM333 -149h-91l32 321h167z" />
    <glyph glyph-name="dagger" unicode="&#x2020;" horiz-adv-x="360" 
d="M247 -64h-134v506h-83v124h83v141h134v-141h83v-124h-83v-506z" />
    <glyph glyph-name="daggerdbl" unicode="&#x2021;" horiz-adv-x="360" 
d="M247 -64h-134v141h-83v124h83v241h-83v124h83v141h134v-141h83v-124h-83v-241h83v-124h-83v-141z" />
    <glyph glyph-name="bullet" unicode="&#x2022;" horiz-adv-x="358" 
d="M318 375c0 -44 -15.5 -81.5 -46.5 -112.5s-68.5 -46.5 -112.5 -46.5s-81.5 15.5 -112.5 46.5s-46.5 68.5 -46.5 112.5s15.5 81.5 46.5 112.5s68.5 46.5 112.5 46.5s81.5 -15.5 112.5 -46.5s46.5 -68.5 46.5 -112.5z" />
    <glyph glyph-name="ellipsis" unicode="&#x2026;" horiz-adv-x="794" 
d="M194 0h-154v177h154v-177zM474 0h-154v177h154v-177zM754 0h-154v177h154v-177z" />
    <glyph glyph-name="perthousand" unicode="&#x2030;" horiz-adv-x="3770" 
d="M1432 29c-1.33301 -19.333 -10.334 -29.001 -27.001 -29.001h-106v54h-4c-43.333 -44.667 -89.666 -67 -138.999 -67c-48.667 0 -89 12.667 -121 38c-40.667 32.667 -61 82.334 -61 149.001v348h101c16 -1.33301 24 -10.333 24 -27v-281c0 -71.333 29.667 -107 89 -107
c42 0 73 15.667 93 47c14.667 23.333 22 52.333 22 87v281h105c16 -1.33301 24 -10.333 24 -27v-466zM2596 19.999c0 -64 -25.334 -114.666 -76.001 -151.999c-46.667 -34.667 -105.334 -52 -176 -52c-70.667 0 -128 22.333 -172 67c-35.333 35.333 -55 74.333 -59 117h123
c14.667 -44.667 50 -67 106 -67c80 0 120 35.667 120 107v54c-33.333 -44.667 -82.333 -67 -147 -67c-61.333 0 -114 24 -158 72c-46 49.333 -69 110 -69 182c0 77.333 23 139.666 69 186.999c42.667 44.667 95.334 67 158.001 67c67.333 0 115.333 -22 144 -66h3v53h107
c18 -1.33301 27 -10.333 27 -27v-475zM3051 361c-37.333 46 -82.666 69 -136 69c-60.667 0 -91 -14.667 -91 -44c0 -24 29 -41.667 87 -53c87.333 -18 140.666 -31.333 160 -40c58 -25.333 87 -67 87 -125c0 -57.333 -23.667 -101.666 -71 -132.999
c-43.333 -28.667 -100 -43 -170 -43c-102 0 -181.667 27.667 -239 83c-2.66699 2 -4 4.33301 -4 7s1.33301 5 4 7l78 79c20.667 -20.667 45.834 -37.834 75.5 -51.501c29.667 -13.667 58.167 -20.5 85.5 -20.5c62.667 0 94 21.667 94 65c0 20 -27.667 35.333 -83 46
c-79.333 16 -131 29.667 -155 41c-55.333 26.667 -83 69 -83 127c0 50.667 23 90.667 69 120c41.333 26 94 39 158 39c95.333 0 162.333 -26.333 201 -79c4 -5.33301 6 -10.333 6 -15s-2 -8.66699 -6 -12zM3720 616h-110c-16 1.33301 -24 10.333 -24 27v93h110
c16 -1.33301 24 -10.333 24 -27v-93zM531.998 0h-134c-16.667 0 -32.667 7 -48 21l-155 155c-5.33301 5.33301 -10.333 8 -15 8c-6.66699 0 -10 -4.66699 -10 -14v-141c-1.33301 -19.333 -10 -29 -26 -29h-94v736l107 -78c8.66699 -6 13 -17.333 13 -34v-289l174 174
c8.66699 8.66699 20 13 34 13h154l-268 -254zM2007 29c-1.33301 -19.333 -10.334 -28.999 -27.001 -28.999h-101v321c0 62.667 -27 94 -81 94c-36 0 -64.333 -10.667 -85 -32c-23.333 -23.333 -35 -57.333 -35 -102v-252c-1.33301 -19.333 -10.333 -29 -27 -29h-99v522h97
c16 -1.33301 24 -10.333 24 -27v-26h4c22.667 44 70.334 66 143.001 66c60 0 106.167 -15.333 138.5 -46s48.5 -73.334 48.5 -128.001v-332zM2342 147.001c42 0 74 15.667 96 47c17.333 24.667 26 53.667 26 87c0 35.333 -8.66699 66.666 -26 93.999
c-22 35.333 -54 53 -96 53s-74 -17.667 -96 -53c-16.667 -27.333 -25 -58.666 -25 -93.999c0 -33.333 8.33301 -62.333 25 -87c22 -31.333 54 -47 96 -47zM3359 29.001c-1.33301 -19.333 -10.332 -29 -26.999 -29h-107v522h110c16 -1.33301 24 -10.333 24 -27v-40h3
c26.667 53.333 79 80 157 80v-120c-38.667 0 -71.334 -8 -98.001 -24c-41.333 -25.333 -62 -71 -62 -137v-225zM732.998 29.001c-1.33301 -19.333 -10.332 -29 -26.999 -29h-107v522h110c16 -1.33301 24 -10.333 24 -27v-40h3c26.667 53.333 79 80 157 80v-120
c-38.667 0 -71.334 -8 -98.001 -24c-41.333 -25.333 -62 -71 -62 -137v-225zM3720 29.001c-1.33301 -19.333 -10.333 -29 -27 -29h-107v522h110c16 -1.33301 24 -10.333 24 -27v-466z" />
    <glyph glyph-name="guilsinglleft" unicode="&#x2039;" horiz-adv-x="348" 
d="M338 78h-155l-173 209l173 209h155l-141 -209z" />
    <glyph glyph-name="guilsinglright" unicode="&#x203a;" horiz-adv-x="346" 
d="M163 78h-155l141 209l-141 209h155l173 -209z" />
    <glyph glyph-name="fraction" unicode="&#x2044;" horiz-adv-x="208" 
d="M-180 -8l472 722h96l-472 -722h-96z" />
    <glyph glyph-name="Euro" unicode="&#x20ac;" horiz-adv-x="744" 
d="M414 237l-184.998 0.000976562c9.33301 -35.333 27.166 -63.833 53.499 -85.5s57.166 -32.5 92.499 -32.5c54.667 0 104.334 28.333 149.001 85l97 -89c-64.667 -86.667 -148 -130 -250 -130c-77.333 0 -143 23.667 -197 71c-52 45.333 -86 105.666 -102 180.999h-143
l23 97h109c-0.666992 9.33301 -1 16.666 -1 21.999c0 4.66699 0.333008 12 1 22h-100l24 97h90c17.333 72.667 51.666 131.334 102.999 176.001c54.667 47.333 120 71 196 71c96.667 0 179 -37.667 247 -113l-94 -87c-44.667 44 -95.667 66 -153 66
c-71.333 0 -118.333 -37.667 -141 -113h181v-97h-196c-2 -17.333 -2.33301 -32 -1 -44h197v-97z" />
    <glyph glyph-name="trademark" unicode="&#x2122;" horiz-adv-x="623" 
d="M614 442h-73l-10 184l-84 -131l-85 131l-10 -184h-73l20 292h72l76 -123l76 123h71zM173 442h-71v230h-92v62h255v-62h-92v-230z" />
    <glyph glyph-name="partialdiff" unicode="&#x2202;" horiz-adv-x="568" 
 />
    <glyph glyph-name="Delta" unicode="&#x2206;" horiz-adv-x="629" 
 />
    <glyph glyph-name="product" unicode="&#x220f;" horiz-adv-x="680" 
 />
    <glyph glyph-name="summation" unicode="&#x2211;" horiz-adv-x="523" 
 />
    <glyph glyph-name="minus" unicode="&#x2212;" horiz-adv-x="585" 
d="M33 285v139h519v-139h-519z" />
    <glyph glyph-name="radical" unicode="&#x221a;" horiz-adv-x="453" 
d="M152 -139l-162 357h163l44 -109l188 702h148l-267 -950h-114z" />
    <glyph glyph-name="infinity" unicode="&#x221e;" horiz-adv-x="688" 
d="M263 344l-10 13c-28 36.667 -49.333 55 -64 55c-10.667 0 -19.667 -6.66699 -27 -20s-11 -29 -11 -47c0 -19.333 3.5 -35.5 10.5 -48.5s15.833 -19.5 26.5 -19.5c13.333 0 35.333 18.667 66 56zM189 530c55.333 0 107.334 -28.665 156.001 -85.998
c48.667 57.333 102 86 160 86c48 0 87.167 -17.333 117.5 -52s45.5 -79.334 45.5 -134.001c0 -50.667 -16.167 -94.334 -48.5 -131.001s-72.5 -55 -120.5 -55c-54.667 0 -106.334 28.667 -155.001 86c-50 -57.333 -103.667 -86 -161 -86c-48.667 0 -88 17.333 -118 52
s-45 79.667 -45 135c0 50.667 16.167 94.167 48.5 130.5s72.5 54.5 120.5 54.5zM435.001 332.002c28 -36.667 49.333 -55 64 -55c10.667 0 19.667 6.66699 27 20s11 29 11 47c0 18.667 -3.5 34.667 -10.5 48s-15.5 20 -25.5 20s-32 -18.667 -66 -56l-10 -11z" />
    <glyph glyph-name="integral" unicode="&#x222b;" horiz-adv-x="354" 
 />
    <glyph glyph-name="approxequal" unicode="&#x2248;" horiz-adv-x="585" 
d="M552 512c-12.667 -104 -61.333 -156 -146 -156c-25.333 0 -61.666 11 -108.999 33s-83 33 -107 33c-10.667 0 -22 -4 -34 -12s-20.667 -18 -26 -30h-98c21.333 100.667 73.333 151 156 151c25.333 0 61.666 -10.167 108.999 -30.5s83 -30.5 107 -30.5
c10.667 0 21 4 31 12s16.333 18 19 30h98zM552.001 333c-21.333 -100.667 -73.334 -151 -156.001 -151c-25.333 0 -61.666 10.167 -108.999 30.5s-83 30.5 -107 30.5c-10.667 0 -21 -4 -31 -12s-16.333 -18 -19 -30h-98c12.667 104 61.334 156 146.001 156
c25.333 0 61.666 -11 108.999 -33s83 -33 107 -33c10.667 0 22 4 34 12s20.667 18 26 30h98z" />
    <glyph glyph-name="notequal" unicode="&#x2260;" horiz-adv-x="585" 
d="M552 183h-278l-49 -99h-142l49 99h-99v134h169l37 74h-206v139h273l47 93h142l-47 -93h104v-139h-177l-37 -74h214v-134z" />
    <glyph glyph-name="lessequal" unicode="&#x2264;" horiz-adv-x="585" 
d="M552 234l-519 155v108l519 156v-139l-234 -74v-1l234 -65v-140zM552 80h-519v129h519v-129z" />
    <glyph glyph-name="greaterequal" unicode="&#x2265;" horiz-adv-x="585" 
d="M552 389l-519 -155v140l234 65v1l-234 74v139l519 -156v-108zM552 80h-519v129h519v-129z" />
    <glyph glyph-name="lozenge" unicode="&#x25ca;" horiz-adv-x="560" 
 />
    <glyph glyph-name="uni0E10.alt1" unicode="&#xf700;" horiz-adv-x="676" 
d="M245 -4l-109.999 232.999h-76v5l28 118h151l101 -215c39.333 16 71.5 44.167 96.5 84.5s37.5 84.5 37.5 132.5c0 50 -16.333 90.667 -49 122c-30.667 29.333 -69 44 -115 44c-75.333 0 -146.333 -34.333 -213 -103l-91 97c84 90.667 186.667 136 308 136
c31.333 -1.33301 61.666 -6.66602 90.999 -15.999c73.333 4 137.333 28.667 192 74l87 -99c-36 -34.667 -82.667 -54.667 -140 -60c54 -52.667 81 -117.667 81 -195c0 -83.333 -29.5 -159.833 -88.5 -229.5s-126.833 -112.5 -203.5 -128.5h-87z" />
    <glyph glyph-name="uni0E34.alt1" unicode="&#xf701;" 
d="M-758 739v7l83 107h394v-114h-477z" />
    <glyph glyph-name="uni0E35.alt1" unicode="&#xf702;" 
d="M-758 739v7l83 107h262v51l122 46h10v-211h-477z" />
    <glyph glyph-name="uni0E36.alt1" unicode="&#xf703;" 
d="M-475 853c3.33301 25.333 15.333 46.834 36 64.501s44.667 26.5 72 26.5c29.333 0 54.333 -10.167 75 -30.5s31 -44.5 31 -72.5c0 -28.667 -10.333 -52.834 -31 -72.501s-45.667 -29.5 -75 -29.5h-390v7l83 107h199zM-367 810.001c7.33301 0 13.833 3.16699 19.5 9.5
s8.5 13.5 8.5 21.5s-2.83301 15.167 -8.5 21.5s-12.167 9.5 -19.5 9.5s-13.833 -3.16699 -19.5 -9.5s-8.5 -13.5 -8.5 -21.5s2.83301 -15.167 8.5 -21.5s12.167 -9.5 19.5 -9.5z" />
    <glyph glyph-name="uni0E37.alt1" unicode="&#xf704;" 
d="M-758 739v7l83 107h134v56l98 41h4v-104h56v63l98 41h4v-211h-477z" />
    <glyph glyph-name="uni0E48.alt1" unicode="&#xf705;" 
d="M-435 712h-10v225h124v-168z" />
    <glyph glyph-name="uni0E49.alt1" unicode="&#xf706;" 
d="M-306 739h-312v6l52 65c8.66699 10.667 13 19.667 13 27c0 11.333 -5.66699 17 -17 17h-43v67l101 22c55.333 0 83 -18.667 83 -56c0 -18.667 -6 -34.667 -18 -48h190v-7z" />
    <glyph glyph-name="uni0E4A.alt1" unicode="&#xf707;" 
d="M-233 941c-5.33301 -58.667 -24.002 -106.336 -56.002 -143.003c-34 -39.333 -77.333 -59 -130 -59h-69v6c18.667 8.66699 28 22.334 28 41.001c0 20.667 -7 33.334 -21 38.001c-11.333 -10.667 -31 -24.667 -59 -42c-13.333 4 -32.666 15.667 -57.999 35
c-9.33301 -5.33301 -14 -15.333 -14 -30c0 -24 13.667 -38 41 -42v-6h-72c-20 0 -37.333 9.33301 -52 28c-12.667 16.667 -19 35 -19 55c0 30 11.333 54 34 72c20 16 46.667 25.667 80 29c12.667 -17.333 32.667 -39 60 -65c14.667 10.667 32.334 32.334 53.001 65.001
c28 -0.666992 52 -8 72 -22c23.333 -16 35 -37.333 35 -64c0 -12.667 -5.33301 -28 -16 -46c40.667 22.667 61 72.667 61 150h102z" />
    <glyph glyph-name="uni0E4B.alt1" unicode="&#xf708;" 
d="M-383 821l4 -82h-104l4 80l-95 -4v88l95 -5l-4 82h104l-4 -82l95 4v-86z" />
    <glyph glyph-name="uni0E4C.alt1" unicode="&#xf709;" 
d="M-276 801h-125c-24.667 0 -37 -12 -37 -36v-25h-127v51c0 36.667 12.667 66 38 88c24.667 20 55.667 30 93 30h104l54 -102v-6z" />
    <glyph glyph-name="uni0E48.alt2" unicode="&#xf70a;" 
d="M-217 712h-10v225h124v-166z" />
    <glyph glyph-name="uni0E49.alt2" unicode="&#xf70b;" 
d="M-41 739h-357v6l52 65c8.66699 10.667 13 19.667 13 27c0 11.333 -5.66699 17 -17 17h-43v67l101 22c55.333 0 83 -18.667 83 -56c0 -18.667 -6 -34.667 -18 -48h233v-7z" />
    <glyph glyph-name="uni0E4A.alt2" unicode="&#xf70c;" 
d="M37 941c-5.33301 -57.333 -25.9971 -105.335 -61.9971 -144.002s-80.667 -58 -134 -58h-74v6c18.667 8.66699 28 22.334 28 41.001c0 20.667 -7 33.334 -21 38.001c-15.333 -8.66699 -38.333 -22.667 -69 -42c-24.667 8 -47.334 19.667 -68.001 35
c-9.33301 -5.33301 -14 -15.333 -14 -30c0 -24 13.667 -38 41 -42v-6h-77c-20 0 -37.333 9.33301 -52 28c-12.667 16.667 -19 35 -19 55c0 29.333 12 53.333 36 72c21.333 16 49 25.667 83 29c27.333 -31.333 50.666 -53 69.999 -65c26.667 19.333 47.667 41 63 65
c30 -0.666992 56 -8.33398 78 -23.001c23.333 -16.667 34.666 -37.667 33.999 -63c0 -13.333 -5.33301 -28.666 -16 -45.999c40.667 22.667 61 72.667 61 150h112z" />
    <glyph glyph-name="uni0E4B.alt2" unicode="&#xf70d;" 
d="M-113 814l4 -82h-104l4 80l-95 -2v86l95 -5l-4 82h104l-4 -82l95 4v-86z" />
    <glyph glyph-name="uni0E4C.alt2" unicode="&#xf70e;" 
d="M-6 790h-145c-24.667 0 -37 -12 -37 -36v-25h-132v51c0 36.667 13.667 66 41 88c25.333 20 57 30 95 30h124l54 -102v-6z" />
    <glyph glyph-name="uni0E0D.alt1" unicode="&#xf70f;" horiz-adv-x="1116" 
d="M1035 12c-20.667 -34.667 -49.668 -62.332 -87.001 -82.999c-34 -19.333 -67.333 -29 -100 -29c-26 0 -57 6.5 -93 19.5s-66.667 19.5 -92 19.5c-39.333 0 -76.666 -11.333 -111.999 -34l-84 90c18.667 24.667 49 49.334 91 74.001s80.333 40.667 115 48
c-55.333 4.66699 -100.666 26.334 -135.999 65.001s-53 85 -53 139v47c0 45.333 -11.833 81.166 -35.5 107.499s-57.167 39.5 -100.5 39.5c-62.667 0 -113.334 -24 -152.001 -72c24 -20.667 41.333 -42.667 52 -66v-260h100v-4l-29 -113h-225v359
c-10 28 -29.333 52.667 -58 74v17c16 53.333 52.667 99.666 110 138.999c60.667 40.667 127.334 61 200.001 61c89.333 0 160.333 -24.5 213 -73.5s79 -117.5 79 -205.5v-49c0 -32.667 11.167 -59.667 33.5 -81s48.5 -32 78.5 -32c40.667 0 73 13 97 39s36 61.333 36 106
v284h153v-285c0 -75.333 -23.333 -138 -70 -188c-44 -46.667 -100.333 -74.334 -169 -83.001c-78.667 -10 -134.334 -32 -167.001 -66c20 9.33301 43 14 69 14c20 0 44 -4 72 -12s53 -12 75 -12c49.333 0 87 20.333 113 61z" />
    <glyph glyph-name="uni0E31.alt1" unicode="&#xf710;" 
d="M-317 739h-194c-45.333 0 -81.333 11 -108 33s-40 52.667 -40 92v56h132v-25c0 -29.333 15.667 -44 47 -44h214v-6z" />
    <glyph glyph-name="uni0E4D.alt1" unicode="&#xf711;" 
d="M-412 789c21.333 0 32 11.333 32 34s-10.667 34 -32 34s-32 -11.333 -32 -34s10.667 -34 32 -34zM-292 823c0 -32.667 -11.833 -60.834 -35.5 -84.501s-51.834 -35.5 -84.501 -35.5c-33.333 0 -61.666 11.833 -84.999 35.5s-35 51.834 -35 84.501
c0 33.333 11.667 61.666 35 84.999s51.666 35 84.999 35c32.667 0 60.834 -11.667 84.501 -35s35.5 -51.666 35.5 -84.999z" />
    <glyph glyph-name="uni0E47.alt1" unicode="&#xf712;" 
d="M-298 736h-100c-29.333 0 -53.333 15.333 -72 46c-22 -9.33301 -42.333 -25.333 -61 -48c-38 0 -70.333 12.833 -97 38.5s-40 56.167 -40 91.5c0 34.667 12 64.667 36 90s55.333 38 94 38h240v-87h-226c-22 0 -33 -13 -33 -39c0 -20.667 7.33301 -35.667 22 -45
c26 19.333 52.667 33.333 80 42h21c8 -22.667 20.667 -34 38 -34h98v-93z" />
    <glyph glyph-name="uni0E48.alt3" unicode="&#xf713;" 
d="M-394 946h-10v191h115v-151z" />
    <glyph glyph-name="uni0E49.alt3" unicode="&#xf714;" 
d="M-182 972l-310 -0.000976562v6l48 60c8 10 12 18.333 12 25c0 10.667 -5 16 -15 16h-40v62l79 20c26 0 48.167 -6.16699 66.5 -18.5s27.5 -27.166 27.5 -44.499c0 -11.333 -4.66699 -22.333 -14 -33h197v-7z" />
    <glyph glyph-name="uni0E4A.alt3" unicode="&#xf715;" 
d="M-113 1159c-5.33301 -52.667 -24.667 -96.999 -58 -132.999s-74.666 -54 -123.999 -54h-68v6c17.333 8 26 20.667 26 38c0 18 -6.66699 29.667 -20 35c-14 -8 -35.333 -21 -64 -39c-22 7.33301 -43 18 -63 32c-8.66699 -4 -13 -13 -13 -27c0 -22 12.667 -35 38 -39v-6
h-71c-18.667 0 -34.334 8.33301 -47.001 25s-19 34 -19 52c0 27.333 11.333 49.666 34 66.999c19.333 14.667 44.666 23.667 75.999 27c25.333 -29.333 47 -49.666 65 -60.999c22.667 16 42.334 36.333 59.001 61c27.333 -0.666992 51.5 -8.33398 72.5 -23.001
s31.167 -33.667 30.5 -57c0 -13.333 -5 -27.666 -15 -42.999c38 21.333 57 67.666 57 138.999h104z" />
    <glyph glyph-name="uni0E4B.alt3" unicode="&#xf716;" 
d="M-297 1040l4 -67h-106l4 65l-79 -2v80l79 -5l-4 67h106l-4 -67l79 4v-80z" />
    <glyph glyph-name="uni0E4C.alt3" unicode="&#xf717;" 
d="M-187 983h-126.001c-22.667 0 -34 -11 -34 -33v-19h-117v43c0 33.333 12.667 60.333 38 81c22.667 18.667 50.334 28 83.001 28h105l51 -94v-6z" />
    <glyph glyph-name="uni0E38.alt1" unicode="&#xf718;" 
d="M-197 -512h-6v120h-57v5l22 85h146v-135z" />
    <glyph glyph-name="uni0E39.alt1" unicode="&#xf719;" 
d="M-92 -370c0 -42.667 -17.333 -75.667 -52 -99c-32 -21.333 -75.667 -32 -131 -32h-81v110h-57v5l22 84h136v-106c40 0 60 17 60 51v55h103v-68z" />
    <glyph glyph-name="uni0E3A.alt1" unicode="&#xf71a;" 
d="M-93 -373c0 -23.333 -8.5 -43.166 -25.5 -59.499s-37.833 -24.5 -62.5 -24.5s-45.667 8.16699 -63 24.5s-26 36.166 -26 59.499s8.66699 43 26 59s38.333 24 63 24s45.5 -8 62.5 -24s25.5 -35.667 25.5 -59z" />
    <glyph glyph-name="uni0E0E.alt1" unicode="&#xf71b;" horiz-adv-x="728" 
d="M648 -55c0 -66 -21.001 -119 -63.001 -159c-37.333 -36 -82.333 -54 -135 -54h-18l-127 83v-45l-118 -82h-7v259h125l127 -81c41.333 0 62 30.333 62 91v411c0 45.333 -12.5 81.166 -37.5 107.499s-60.167 39.5 -105.5 39.5c-32 0 -63 -7.66699 -93 -23
c-26 -13.333 -46 -29.666 -60 -48.999c24 -20.667 41.333 -42.667 52 -66v-377h-210l-34 117h90v242c-10 26.667 -29.333 51.334 -58 74.001v17c16.667 54.667 52.334 101 107.001 139c60 40.667 129 61 207 61c90 0 161.833 -25.333 215.5 -76s80.5 -118.334 80.5 -203.001
v-426z" />
    <glyph glyph-name="uni0E0F.alt1" unicode="&#xf71c;" horiz-adv-x="728" 
d="M648 -46c0 -70.667 -20.668 -126 -62.001 -166c-38 -37.333 -86.667 -56 -146 -56h-40l-87 90c-3.33301 -28 -17.333 -52 -42 -72s-53.667 -30 -87 -30h-79v117h55c39.333 0 59 20.667 59 62v48h126l90 -89c39.333 7.33301 59 38.333 59 93v417
c0 45.333 -12.5 81.166 -37.5 107.499s-60.167 39.5 -105.5 39.5c-32 0 -63 -7.66699 -93 -23c-26 -13.333 -46 -29.666 -60 -48.999c24 -20.667 41.333 -42.667 52 -66v-377h-210l-34 117h90v242c-10 26.667 -29.333 51.334 -58 74.001v17
c16.667 54.667 52.334 101 107.001 139c60 40.667 129 61 207 61c90 0 161.833 -25.333 215.5 -76s80.5 -118.334 80.5 -203.001v-417z" />
    <glyph glyph-name="uni0E2C.alt1" unicode="&#xf71d;" horiz-adv-x="782" 
d="M702 0l-156.001 0.000976562l-155 231l-155 -231h-156v638h151v-346l-4 -110l49 88l112 153h6l112 -155l49 -86l-4 109v63c0 60 -28 90 -84 90h-14v116h20c28.667 0 53.334 10.333 74.001 31c23.333 24 37 58 41 102h148c-6 -47.333 -22.667 -90.333 -50 -129
s-58.333 -60.334 -93 -65.001v-2c72.667 -15.333 109 -66 109 -152v-345z" />
    <glyph glyph-name="apple" unicode="&#xf8ff;" horiz-adv-x="942" 
d="M916 491l-3.99219 0.000976562l-6 -1l-2 -4l-11 1l-1 -1h-6l-7 -4l-3 -9c-2.66699 -2.66699 -6 -6.66699 -10 -12h-1v-3l-7 -6l-3 -1v-1l-8 -5h-4v-1h-4l-4 -2l-11 2l-1 -1l-3 -1l-3 -3l-3 -11l-4 -4h-2l-5 -4l-1 -4l-6 -2c-6 -7.33301 -12.333 -11 -19 -11
c-0.666992 0 -1.33398 0.333008 -2.00098 1h-2l-3 3h-3l-5 5l-4 1l-4 6l-1 4l-8 9v10l-8 -2c-1.33301 -3.33301 -4 -8.33301 -8 -15l-8 -7l-3 -1c-2 -2 -5.66699 -5 -11 -9v-1h-5l-6 1l-1 1c-1.33301 0 -2.5 0.333008 -3.5 1s-2.16699 1 -3.5 1l-8 1l-5 4l-1 3h-1l-2 5
c-3.33301 1.33301 -5 5.66602 -5 12.999l1 5h-1v4l-3 7l-5 -3l-4 1l-2 -3l-1 -8l-3 -3l-3 -11l-8 -6l-1 -6h-1v-2c-2 -2 -4.33301 -5.66699 -7 -11l-2 -11l-5 -4l-2 -3l-6 -3v-4l-9 -6l-2 1l-3 -4h-6v-1h-7l-8 1l-8 9l-1 4l-6 4c-2 4 -3 8.66699 -3 14h1l1 5l2 6h-2v6l2 8
l-4 2l-4 -5v-3l-3 -2v-3h-1v-3h1l-1 -4l-4 -4v-3l-4 -6v-3h-1c0 -8 -1.33301 -14.333 -4 -19h-1c-1.33301 -6 -4.66602 -13.333 -9.99902 -22v-4h-1l-4 -11l-2 -5c-5.33301 -4 -10 -13 -14 -27l-4 -1l-2 -7c-5.33301 -4.66699 -15.333 -12 -30 -22l-5 -1v-1l-5 -1
c-4.66699 0 -8.66699 1.66699 -12 5l-2 4l-5 2l-1 4l-6 1l-3 3l-1 3h-1v6h-1v2c-2 3.33301 -3 10 -3 20h1v4l1 8h1v2c0 1.33301 0.333008 2.66602 1 3.99902v3h1v4h1c0 10 -0.333008 17.333 -1 22l1 1l1 8l1 1v5l2 2v6l3 7h1v5h1v3l4 7v5l-1 1l1 5l-1 4h1l1 4h1v6h1v3l3 4v4
h-2c-6 -6 -9 -11.333 -9 -16l-2 -2c-2 -4.66699 -5.66699 -10.334 -11 -17.001v-5l-1 -1c-2.66699 -4 -4.33398 -7 -5.00098 -9h1v-6l-3 -5l-1 -1c-0.666992 -1.33301 -1.33398 -3.33301 -2.00098 -6s-1.33398 -4.66699 -2.00098 -6v-4h-1v-5l-2 -3l-5 -1
c-2.66699 -5.33301 -4.33398 -9.33301 -5.00098 -12h-1v-5l-8 -11v-4l-4 -6h-3l-5 -3l-4 -6l-7 -1l-2 -2l-4 -1v1l-2 1l-1 1l-6 -3h1l-6 1l-2 3h-4v1h-2c-2 0.666992 -3.66699 2.66699 -5 6h-2v1l-3 3l-6 1l-1 7l-1 1v2l-3 3v4l-1 1l-2 7h-1l-1 7h-1v8h1v9h-1v2h1l-2 6
c-4 -7.33301 -11 -15.333 -21 -24v-1c-2.66699 0 -7 -2.33301 -13 -7h-4v-1h-3c-5.33301 4 -9 7.33301 -11 10l-2 4l-1 1v5h-1v2l-1 1v6l-7 6l1 3l-6 6l-5 -2l-9 -9l-1 -4l-7 -7l-6 2l-4 -3l-6 -1v1h-3c-4 4 -7.33301 6.66699 -10 8l-4 3l-2 8h-1v3h-1v4h1v2l-6 6v3h-1l1 4
l2 5v10l1 5l-1 1v4l-2 3h-3l-3 -4l-4 -1v-1c-4.66699 0 -8.33398 -0.666992 -11.001 -2v1h-2l-7 4l-1 4l-5 7h-3l-8 -14l-3 -1l-3 -4l-12 -12l-8 -2v-1h-5l-12 5l-4 5h-2l-4 6v7l-6 7l-2 8v6h-1l-1 8h-1v3l-6 5l-2 4l-4 -4l-7 1v1h-2l-9 -5l-3 3h-6l-4 4l-1 5h-1l-1 6l-3 6
c1.33301 2.66699 2 5.33398 2 8.00098l5 6l4 12h1l2 5l4 2h5v1h3v1h2l2 3h4l6 7l1 5h1v4l7 4v4c5.33301 9.33301 11.666 14 18.999 14h5l3 -1v-1h5c2 0 3.66699 -0.666992 5 -2l7 -8l4 -1l3 1c2 4 4.66699 7 8 9l2 5l2 1l1 4h1l8 11l5 6l6 1v-1l15 7l9 -1l3 -3h6l3 -4h3
l1 -2l8 -6l6 -2c3.33301 4.66699 6.66602 11.667 9.99902 21l3 9l3 7l3 5h1l2 5l7 12c0 1.33301 1 3 3 5s3 3.66699 3 5l6 10c2.66699 1.33301 5.66699 3.66602 9 6.99902v1c3.33301 3.33301 8.66602 5 15.999 5c3.33301 -1.33301 8 -4.33301 14 -9v-1l7 -3l1 -4l5 -5l1 -5
l5 -5v-6h-1v-3h-1l-2 -10h2c2.66699 4 7 9.66699 13 17l9 5v1l9 2l3 -1v-1l5 -1l7 -6l2 -4v-3h1v-4l1 -4h1l4 7l6 7c1.33301 2.66699 2 7 2 13l1 1v8h1l5 10h1v3c14.667 20.667 23.667 37.667 27 51h1c1.33301 4.66699 3 8 5 10v1h4l1 2
c4 2.66699 8.66699 7.33398 14 14.001h9v1l9 1v-1l4 -1l5 -8l6 -1l5 -10h1l3 -30h1v-2l-3 -3l-1 -6c0 -2.66699 -0.833008 -6.5 -2.5 -11.5s-2.5 -8.83301 -2.5 -11.5v-3l-3 -3v-3l-1 -6h-1l-2 -8h-1v-4c0 -4 -1.33301 -9.66699 -4 -17s-4 -13 -4 -17h5l5 9v3l5 8l1 4l8 13
v1l2 7l3 2c2.66699 11.333 11 27.666 25 48.999l3 1l2 4l1 1l2 5l3 2l2 7l2 2l5 8c0 2 5 9 15 21l1 1h5l4 2v1l8 1v-1h5v1h5c5.33301 -2 12.333 -6.33301 21 -13l1 -4h-1l1 -11l1 -1c0 -1.33301 0.333008 -3.66602 1 -6.99902v-7h1v-6h-1v-6h-1v-3h1v-4l-3 -3v-6h-1v-8h-1
v-7c-0.666992 -5.33301 -2.66699 -10 -6 -14v-9l-2 -2l-2 -7l-1 -1v-5h-1v-7h-1l1 -6l4 1c0 8.66699 3.66699 17.334 11 26.001v4l5 1l2 5l4 1l5 9l5 1l3 4c2 0 4.33301 1.5 7 4.5s5 4.5 7 4.5l4 -2h7v-1c3.33301 0 6.33301 -1.83301 9 -5.5s5 -6.16699 7 -7.5l1 -3l2 -9
l3 -1v-11h1v-6h-1c-2 -6.66699 -3 -11 -3 -13c0 -3.33301 0.666992 -6.66602 2 -9.99902l-1 -2c-1.33301 -2.66699 -2 -6 -2 -10h1v-6h-1v-5l3 -3h3c2 4.66699 6 11 12 19l2 3l1 7h1v3c0 2.66699 1 5.5 3 8.5s3 5.5 3 7.5l5 2l1 3c6.66699 5.33301 12 8 16 8v1l7 1l2 2h5v1
h5l1 1l6 -2l6 2l2 -4l3 -1l4 -6c4.66699 -4.66699 7.66699 -8.66699 9 -12l3 -2l-1 -8c0 -0.666992 0.333008 -1 1 -1v-2l2 -3v-3h1l-1 -10l3 -1v1c2 4 5 7 9 9h4l5 8h2l8 1v1l3 1l1 -1h6v-1l7 -4l3 -4l4 -1l3 -3l3 -1l1 -4l8 -5l3 -6v-13l2 -2v-7h1v-3l-1 -11l8 5l1 5l3 3
l4 1l6 6l4 -1l7 1h7v-1h3l7 -7c2.66699 -10.667 4 -14.334 4 -11.001v-4l4 -1l3 -4l3 -7l10 -1l4 -4l1 -4l5 -2l2 -5l4 -4l1 -9c-0.666992 -1.33301 -1 -3.33301 -1 -6h1l-3 -11zM801.008 522.001c4.66699 0 9 5.66699 13 17c3.33301 9.33301 5 17 5 23
c0 14 -5.66699 21 -17 21s-17 -7 -17 -21c0 -7.33301 1.33301 -15.333 4 -24c3.33301 -10.667 7.33301 -16 12 -16zM802.008 481.001c10.667 0 16 5.33301 16 16s-5.33301 16 -16 16s-16 -5.33301 -16 -16s5.33301 -16 16 -16zM717.008 456.001
c14 0 25.3359 8.66406 34.0029 25.9971c4.66699 14.667 9.66699 29.334 15 44.001c2 6 5.16699 10.333 9.5 13s6.5 5 6.5 7c0 6 -5.33301 9 -16 9c-11.333 0 -17 -2.66699 -17 -8c0 -2 1.33301 -4 4 -6c1.33301 -2 1.16602 -5.33301 -0.500977 -10s-3.83398 -7 -6.50098 -7
s-4.83398 2.5 -6.50098 7.5s-1.83398 7.83301 -0.500977 8.5c2 2 3 4 3 6c0 6.66699 -7.33301 10 -22 10c-18 0 -27 -4 -27 -12c0 -3.33301 2 -6 6 -8c2 -1.33301 7 -10.166 15 -26.499s12 -27.166 12 -32.499c0 -3.33301 -1 -5 -3 -5
c-0.666992 0 -2.16699 2.83301 -4.5 8.5s-6.16602 8.5 -11.499 8.5c-8 0 -12 -4.66699 -12 -14c0 -12.667 7.33301 -19 22 -19zM668.011 534.998c0 2.66699 4.99902 4 14.999 4c3.33301 0 5 3.66699 5 11c0 2.66699 -1.66699 4 -5 4h-14c0 11.333 -2.33301 17 -7 17
c-4 0 -11.333 -3.5 -22 -10.5s-16 -12.5 -16 -16.5c0 -3.33301 3.66699 -5 11 -5v-38c2.66699 -13.333 11 -20 25 -20c18.667 0 28 5.33301 28 16c0 4.66699 -1.66699 7 -5 7c-0.666992 0 -2.16699 -0.333008 -4.5 -1s-4.16602 -1 -5.49902 -1c-3.33301 0 -5 2.66699 -5 8
v25zM595.01 558.998c15.333 0 23 4.66699 23 14c0 6.66699 -5.33301 10 -16 10c-15.333 0 -23 -4.33301 -23 -13c0 -7.33301 5.33301 -11 16 -11zM619.01 550.998c0 3.33301 -1.33398 5 -4.00098 5c-6 0 -13 -1.33301 -21 -4c-10.667 -2.66699 -16 -6.33398 -16 -11.001
c0 -2 1.33301 -4 4 -6s4 -6.33301 4 -13c0 -12.667 -0.166992 -19.667 -0.5 -21s-1.66602 -2.66602 -3.99902 -3.99902s-3.5 -3 -3.5 -5c0 -7.33301 8.66699 -11 26 -11c15.333 0 23 3.33301 23 10c0 2 -1.33301 4 -4 6s-4 4.66699 -4 8v46zM543.009 555.998
c-8 0 -15.668 -4.33398 -23.001 -13.001c-0.666992 0.666992 -1 11 -1 31c0 5.33301 -1.66699 8 -5 8c-8.66699 0 -18.334 -2.33301 -29.001 -7c-5.33301 -1.33301 -8 -4 -8 -8c0 -2 2.33301 -4.66699 7 -8c1.33301 -0.666992 2 -9 2 -25c0 -21.333 -1 -33 -3 -35
c-3.33301 -4.66699 -5 -7.33398 -5 -8.00098c0 -6 7.66699 -9 23 -9s23 2.66699 23 8c0 2 -0.666992 3.83301 -2 5.5s-2.16602 3.5 -2.49902 5.5s-0.5 10 -0.5 24c0 5.33301 2 8 6 8c6 0 9.33301 -5 10 -15c0.666992 -8.66699 -0.166016 -15.167 -2.49902 -19.5
s-3.5 -7.16602 -3.5 -8.49902c0 -6 7.66699 -9 23 -9c14.667 0 22 3 22 9c0 0.666992 -1.66699 3.33398 -5 8.00098l-2 29c-1.33301 19.333 -9.33301 29 -24 29zM429.008 482.997c0 0.666992 0.332031 1.66504 0.999023 2.99805c0.666992 0 2.83398 -0.833008 6.50098 -2.5
s7.16699 -2.5 10.5 -2.5c21.333 0 32 13.333 32 40c0 23.333 -9.66699 35 -29 35c-5.33301 0 -10 -1.5 -14 -4.5l-6 -4.5c-1.33301 0 -2 1.5 -2 4.5s-1.33301 4.5 -4 4.5c-5.33301 0 -12.333 -2 -21 -6c-10.667 -4 -16 -8 -16 -12c0 -1.33301 3 -4 9 -8
c1.33301 -1.33301 2 -10.666 2 -27.999s-0.666992 -26.666 -2 -27.999c-5.33301 -2.66699 -8 -5.33398 -8 -8.00098c0 -6.66699 9 -10 27 -10s27 3.33301 27 10c0 2.66699 -2.16699 4.83398 -6.5 6.50098s-6.5 5.16699 -6.5 10.5zM352.007 487.995
c-1.33301 0 0.666992 -1.33203 6 -3.99902c2 -2 5 -3 9 -3c14.667 0 22 5 22 15c0 2 -1.33301 3.66699 -4 5s-4 5.66602 -4 12.999c0 16.667 -1 27 -3 31c-4 7.33301 -14 11 -30 11c-22 0 -33 -6 -33 -18c0 -6 2 -9 6 -9c5.33301 0 10 2.5 14 7.5s7 7.5 9 7.5
c4 0 6 -6.66699 6 -20c-4 0.666992 -7.66699 1 -11 1c-20 0 -30 -8 -30 -24c0 -13.333 8 -20 24 -20c4.66699 0 9 1.16699 13 3.5zM262.007 480.996c16.667 0 24.999 3.33496 24.999 10.002c0 3.33301 -1.83301 5.83301 -5.5 7.5s-5.5 7.16699 -5.5 16.5
c0 10 0.666992 15 2 15s3.16602 -1.66699 5.49902 -5s5.83301 -5 10.5 -5c11.333 0 17 6 17 18c0 11.333 -6.33301 17 -19 17c-5.33301 0 -9.33301 -1.66699 -12 -5s-3.66699 -5 -3 -5c-0.666992 0 -1.16699 1.66699 -1.5 5s-2.16602 5 -5.49902 5
c-8 0 -16.667 -1.66699 -26 -5c-12 -4.66699 -13 -10 -3 -16c1.33301 -0.666992 2 -3 2 -7c0 -14 -0.166992 -21.833 -0.5 -23.5s-1.66602 -3.33398 -3.99902 -5.00098s-3.5 -3.83398 -3.5 -6.50098c0 -7.33301 9 -11 27 -11zM211.006 512.998
c10 4.66699 14 13.001 12 25.001c5.33301 5.33301 8 10.666 8 15.999c0 3.33301 -1.66699 5 -5 5l-6 -3c-4 -2 -7.66699 -3 -11 -3c-2 0 -5.5 0.5 -10.5 1.5s-8.83301 1.5 -11.5 1.5c-22.667 0 -34 -8.33301 -34 -25c0 -7.33301 3.33301 -13.333 10 -18
c-8.66699 -3.33301 -13 -8.33301 -13 -15c0 -4.66699 3 -8.33398 9 -11.001c-6 -2.66699 -9 -6.33398 -9 -11.001c0 -13.333 12.333 -20 37 -20c29.333 0 44 9.66699 44 29c0 10.667 -5.66699 16.334 -17 17.001c10 -0.666992 0.666992 -1 -28 -1c-7.33301 0 -11 2 -11 6
c0.666992 0.666992 1.66699 1.33398 3 2.00098c12.667 -1.33301 23.667 0 33 4zM446.006 514.999c0 -10.667 -3.66699 -16 -11 -16c-4.66699 0 -7 3.33301 -7 10c0 17.333 2 26 6 26c8 0 12 -6.66699 12 -20zM350.006 510.999c0 -9.33301 -1.66699 -14 -5 -14
c-4 0 -6 3 -6 9c0 4.66699 2 7.66699 6 9c3.33301 1.33301 5 0 5 -4zM196.006 529.999c0 -7.33301 -2.33301 -11 -7 -11c-5.33301 0 -8 5 -8 15c0 7.33301 2.33301 11 7 11c5.33301 0 8 -5 8 -15zM200.006 475.999c0 -4.66699 -4.33203 -7 -12.999 -7
c-12 0 -17.333 4 -16 12c5.33301 -1.33301 9.66602 -2 12.999 -2c1.33301 0 3.33301 0.333008 6 1h6c2.66699 0 4 -1.33301 4 -4zM657.007 -97.001c0 -13.333 -4.66699 -24.666 -14 -33.999s-20.666 -14 -33.999 -14h-288c-12.667 0 -23.834 4.66699 -33.501 14
s-14.5 20.666 -14.5 33.999v288c0 13.333 4.83301 24.666 14.5 33.999s20.834 14 33.501 14h288c13.333 0 24.666 -4.66699 33.999 -14s14 -20.666 14 -33.999v-288zM571.007 -94.001c23.333 0 38.333 12.334 45 37.001c4 13.333 6 35.666 6 66.999c0 29.333 -2 50 -6 62
c-7.33301 23.333 -22.333 35 -45 35c-35.333 0 -53 -32.333 -53 -97c0 -30.667 2 -53 6 -67c8 -24.667 23.667 -37 47 -37zM479.007 -89v104c0 22 3.66699 35.667 11 41c5.33301 3.33301 12.333 4.33301 21 3v48c-18 0 -29.667 -9.33301 -35 -28h-1v25h-34v-193h38z
M355.007 -89v112h20c14 0 24 2.66699 30 8c14.667 12.667 22 37 22 73c0 40 -8.66699 65.333 -26 76c-6 4.66699 -14.333 7 -25 7h-59v-276h38zM585.007 2c0 -40 -4.66699 -60 -14 -60c-10 0 -15 20 -15 60v23c0 31.333 5 47 15 47c9.33301 0 14 -15.667 14 -47v-23z
M355.007 63v83h15c12.667 0 19 -14.667 19 -44c0 -26 -5.66699 -39 -17 -39h-17z" />
    <glyph glyph-name=".null" horiz-adv-x="195" 
 />
    <glyph glyph-name="nonmarkingreturn" horiz-adv-x="195" 
 />
    <glyph glyph-name="uni0E33.alt1" horiz-adv-x="594" 
d="M514 0h-154v398c0 39.333 -10.333 69.333 -31 90s-47.667 31 -81 31c-54.667 0 -109 -32.333 -163 -97l-85 101c72 84.667 158.667 127 260 127c79.333 0 141.5 -22.333 186.5 -67s67.5 -107 67.5 -187v-396zM-412 789c21.333 0 32 11.333 32 34s-10.667 34 -32 34
s-32 -11.333 -32 -34s10.667 -34 32 -34zM-292 823c0 -32.667 -11.833 -60.834 -35.5 -84.501s-51.834 -35.5 -84.501 -35.5c-33.333 0 -61.666 11.833 -84.999 35.5s-35 51.834 -35 84.501c0 33.333 11.667 61.666 35 84.999s51.666 35 84.999 35
c32.667 0 60.834 -11.667 84.501 -35s35.5 -51.666 35.5 -84.999z" />
    <glyph glyph-name="uni0E4E.alt1" horiz-adv-x="767" 
 />
  </font>
</defs>
</svg>
